%
M48
M72
T01C0.0280
T02C0.0320
T03C0.0360
T04C0.0400
T05C0.0440
T06C0.0550
T07C0.0870
T08C0.0900
T09C0.1250
T10C0.1300
%
T01
X13129Y4805
X17879Y6055
X25504Y8680
X29879Y5180
X30879Y5680
X32254Y5555
X31254Y7305
X34379Y8180
X38629Y9930
X39379Y14930
X38629Y16805
X36629Y16180
X33629Y20555
X33254Y22430
X30379Y25680
X27879Y24805
X25754Y27930
X27754Y28680
X28504Y31680
X26004Y32055
X23129Y33430
X19379Y29055
X17629Y29305
X17754Y28180
X18254Y27680
X16504Y27680
X19754Y24805
X17879Y23180
X19379Y21305
X20879Y20930
X21879Y19055
X22754Y18680
X21754Y16430
X20379Y17555
X19754Y18305
X19379Y17930
X24629Y15805
X25379Y15930
X26129Y17305
X27379Y15680
X29129Y16180
X27379Y14055
X24879Y21305
X21879Y22930
X30879Y28680
X32254Y29680
X32879Y29180
X33254Y28305
X33879Y28680
X35504Y26805
X33254Y26555
X37879Y25680
X39754Y21930
X36004Y34180
X16004Y31555
T02
X15879Y30680
X14879Y30680
X13879Y30680
X12879Y30680
X11879Y30680
X10879Y30680
X10879Y33680
X11879Y33680
X12879Y33680
X13879Y33680
X14879Y33680
X15879Y33680
X16879Y33680
X17879Y33680
X18879Y33680
X19879Y33680
X19879Y30680
X18879Y30680
X17879Y30680
X16879Y30680
X16879Y27180
X17879Y27180
X17379Y25680
X18379Y25680
X19379Y25680
X20379Y25680
X21379Y25680
X22379Y25680
X23379Y25680
X24379Y25680
X25379Y25680
X26379Y25680
X27379Y25680
X28379Y25680
X29379Y25680
X31379Y25180
X31379Y24180
X31379Y23180
X31379Y22180
X31379Y21180
X31379Y20180
X31379Y19180
X31379Y18180
X29379Y19680
X28379Y19680
X27379Y19680
X26379Y19680
X25379Y19680
X24379Y19680
X23379Y19680
X22379Y19680
X21379Y19680
X20379Y19680
X19379Y19680
X18379Y19680
X17379Y19680
X16379Y19680
X15379Y19680
X14379Y19680
X13379Y19680
X12379Y19680
X11379Y19680
X10379Y19680
X7879Y20180
X6879Y20180
X5879Y20180
X4879Y20180
X4879Y23180
X4879Y24180
X5879Y23180
X6879Y23180
X7879Y23180
X7879Y24180
X10379Y25680
X11379Y25680
X12379Y25680
X13379Y25680
X14379Y25680
X15379Y25680
X16379Y25680
X19929Y27180
X21829Y27180
X23879Y30180
X24879Y30180
X25879Y30180
X26879Y30180
X27879Y30180
X28879Y30180
X29879Y30180
X30879Y30180
X31379Y26180
X34379Y26180
X34379Y25180
X34379Y24180
X34379Y23180
X34379Y22180
X34379Y21180
X34379Y20180
X34379Y19180
X34379Y18180
X35879Y20180
X39379Y22680
X38379Y23180
X40379Y22180
X40379Y25180
X39379Y25680
X38379Y26180
X39879Y27180
X39879Y28180
X39879Y29180
X39879Y30180
X39879Y31180
X39879Y32180
X39879Y33180
X39879Y34180
X36879Y34180
X36879Y33180
X36879Y32180
X36879Y31180
X36879Y30180
X36879Y29180
X36879Y28180
X36879Y27180
X35879Y23180
X26379Y16180
X26379Y15180
X26379Y13680
X26379Y12680
X27379Y9680
X28379Y9680
X29379Y9680
X30379Y9680
X31379Y9680
X32379Y9680
X33379Y9680
X34379Y9680
X35379Y9680
X36379Y9680
X37379Y9680
X21379Y18680
X20379Y18680
X19879Y21680
X19879Y22680
X16879Y22680
X16379Y22680
X16379Y21680
X16879Y21680
X13379Y21680
X13379Y22680
X6879Y26680
X6879Y27680
X6879Y28680
X6879Y29680
X6879Y30680
X6879Y31680
X6879Y32680
X6879Y33680
X3879Y33680
X3879Y32680
X3879Y31680
X3879Y30680
X3879Y29680
X3879Y28680
X3879Y27680
X3879Y26680
X3879Y25180
X4879Y25180
X14379Y14680
X14379Y12680
X5879Y9680
X3879Y11680
X2879Y11680
X2879Y9680
X23879Y34180
X24879Y34180
X25879Y34180
X26879Y34180
X27879Y34180
X28879Y34180
X29879Y34180
X30879Y34180
T03
X15379Y9680
X14379Y9680
X10879Y9680
X9879Y9680
T04
X6899Y6680
X7989Y6680
X9079Y6680
X10159Y6680
X11249Y6680
X12339Y6680
X13419Y6680
X14509Y6680
X15599Y6680
X16679Y6680
X17769Y6680
X18859Y6680
X19399Y7680
X18309Y7680
X17229Y7680
X16139Y7680
X15049Y7680
X13969Y7680
X12879Y7680
X11789Y7680
X10709Y7680
X9619Y7680
X8529Y7680
X7449Y7680
X6359Y7680
X9379Y15680
X9379Y17680
X12379Y17680
X12379Y15680
X3379Y20180
X3379Y21180
X3379Y22180
X3379Y23180
X28599Y7680
X29679Y7680
X30759Y7680
X31839Y7680
X32919Y7680
X33999Y7680
X35079Y7680
X36159Y7680
X35619Y6680
X34539Y6680
X33459Y6680
X32379Y6680
X31299Y6680
X30219Y6680
X29139Y6680
X38379Y18180
X40379Y18180
X40379Y21180
X38379Y21180
X36879Y21180
X36879Y20180
X36879Y22180
X36879Y23180
X36879Y24180
X36879Y25180
T05
X28379Y15680
X28379Y14680
X28379Y13680
X16379Y13680
X16379Y12680
X16379Y14680
X9879Y11180
X5879Y11180
T06
X37379Y14680
T07
X37379Y12480
X40379Y14680
X37379Y16880
T08
X6379Y13290
X5198Y15180
T09
X7600Y15180
T10
X3619Y7180
X22139Y7180
X25819Y7180
X22279Y13680
X34279Y14680
X38939Y7180
M30
