G75*
%MOIN*%
%OFA0B0*%
%FSLAX24Y24*%
%IPPOS*%
%LPD*%
%AMOC8*
5,1,8,0,0,1.08239X$1,22.5*
%
%ADD10C,0.0520*%
%ADD11OC8,0.0520*%
%ADD12C,0.0520*%
%ADD13C,0.1750*%
%ADD14C,0.1500*%
%ADD15C,0.0660*%
%ADD16C,0.0660*%
%ADD17C,0.0750*%
%ADD18OC8,0.0750*%
%ADD19OC8,0.0630*%
%ADD20C,0.0630*%
%ADD21C,0.0600*%
%ADD22OC8,0.0825*%
%ADD23OC8,0.1270*%
%ADD24OC8,0.0600*%
%ADD25C,0.2000*%
%ADD26C,0.0560*%
%ADD27C,0.0480*%
%ADD28C,0.0160*%
%ADD29C,0.0240*%
%ADD30C,0.0440*%
%ADD31C,0.0100*%
D10*
X010379Y019420D02*
X010379Y019940D01*
X011379Y019940D02*
X011379Y019420D01*
X012379Y019420D02*
X012379Y019940D01*
X013379Y019940D02*
X013379Y019420D01*
X014379Y019420D02*
X014379Y019940D01*
X015379Y019940D02*
X015379Y019420D01*
X016379Y019420D02*
X016379Y019940D01*
X017379Y019940D02*
X017379Y019420D01*
X018379Y019420D02*
X018379Y019940D01*
X019379Y019940D02*
X019379Y019420D01*
X020379Y019420D02*
X020379Y019940D01*
X021379Y019940D02*
X021379Y019420D01*
X022379Y019420D02*
X022379Y019940D01*
X023379Y019940D02*
X023379Y019420D01*
X024379Y019420D02*
X024379Y019940D01*
X025379Y019940D02*
X025379Y019420D01*
X026379Y019420D02*
X026379Y019940D01*
X027379Y019940D02*
X027379Y019420D01*
X028379Y019420D02*
X028379Y019940D01*
X029379Y019940D02*
X029379Y019420D01*
X029379Y025420D02*
X029379Y025940D01*
X028379Y025940D02*
X028379Y025420D01*
X027379Y025420D02*
X027379Y025940D01*
X026379Y025940D02*
X026379Y025420D01*
X025379Y025420D02*
X025379Y025940D01*
X024379Y025940D02*
X024379Y025420D01*
X023379Y025420D02*
X023379Y025940D01*
X022379Y025940D02*
X022379Y025420D01*
X021379Y025420D02*
X021379Y025940D01*
X020379Y025940D02*
X020379Y025420D01*
X019379Y025420D02*
X019379Y025940D01*
X018379Y025940D02*
X018379Y025420D01*
X017379Y025420D02*
X017379Y025940D01*
X016379Y025940D02*
X016379Y025420D01*
X015379Y025420D02*
X015379Y025940D01*
X014379Y025940D02*
X014379Y025420D01*
X013379Y025420D02*
X013379Y025940D01*
X012379Y025940D02*
X012379Y025420D01*
X011379Y025420D02*
X011379Y025940D01*
X010379Y025940D02*
X010379Y025420D01*
X007879Y023440D02*
X007879Y022920D01*
X006879Y022920D02*
X006879Y023440D01*
X005879Y023440D02*
X005879Y022920D01*
X004879Y022920D02*
X004879Y023440D01*
X004879Y020440D02*
X004879Y019920D01*
X005879Y019920D02*
X005879Y020440D01*
X006879Y020440D02*
X006879Y019920D01*
X007879Y019920D02*
X007879Y020440D01*
X007139Y026680D02*
X006619Y026680D01*
X006619Y027680D02*
X007139Y027680D01*
X007139Y028680D02*
X006619Y028680D01*
X006619Y029680D02*
X007139Y029680D01*
X007139Y030680D02*
X006619Y030680D01*
X006619Y031680D02*
X007139Y031680D01*
X007139Y032680D02*
X006619Y032680D01*
X006619Y033680D02*
X007139Y033680D01*
X004139Y033680D02*
X003619Y033680D01*
X003619Y032680D02*
X004139Y032680D01*
X004139Y031680D02*
X003619Y031680D01*
X003619Y030680D02*
X004139Y030680D01*
X004139Y029680D02*
X003619Y029680D01*
X003619Y028680D02*
X004139Y028680D01*
X004139Y027680D02*
X003619Y027680D01*
X003619Y026680D02*
X004139Y026680D01*
X010879Y030420D02*
X010879Y030940D01*
X011879Y030940D02*
X011879Y030420D01*
X012879Y030420D02*
X012879Y030940D01*
X013879Y030940D02*
X013879Y030420D01*
X014879Y030420D02*
X014879Y030940D01*
X015879Y030940D02*
X015879Y030420D01*
X016879Y030420D02*
X016879Y030940D01*
X017879Y030940D02*
X017879Y030420D01*
X018879Y030420D02*
X018879Y030940D01*
X019879Y030940D02*
X019879Y030420D01*
X019879Y033420D02*
X019879Y033940D01*
X018879Y033940D02*
X018879Y033420D01*
X017879Y033420D02*
X017879Y033940D01*
X016879Y033940D02*
X016879Y033420D01*
X015879Y033420D02*
X015879Y033940D01*
X014879Y033940D02*
X014879Y033420D01*
X013879Y033420D02*
X013879Y033940D01*
X012879Y033940D02*
X012879Y033420D01*
X011879Y033420D02*
X011879Y033940D01*
X010879Y033940D02*
X010879Y033420D01*
X023879Y033920D02*
X023879Y034440D01*
X024879Y034440D02*
X024879Y033920D01*
X025879Y033920D02*
X025879Y034440D01*
X026879Y034440D02*
X026879Y033920D01*
X027879Y033920D02*
X027879Y034440D01*
X028879Y034440D02*
X028879Y033920D01*
X029879Y033920D02*
X029879Y034440D01*
X030879Y034440D02*
X030879Y033920D01*
X030879Y030440D02*
X030879Y029920D01*
X029879Y029920D02*
X029879Y030440D01*
X028879Y030440D02*
X028879Y029920D01*
X027879Y029920D02*
X027879Y030440D01*
X026879Y030440D02*
X026879Y029920D01*
X025879Y029920D02*
X025879Y030440D01*
X024879Y030440D02*
X024879Y029920D01*
X023879Y029920D02*
X023879Y030440D01*
X036619Y030180D02*
X037139Y030180D01*
X037139Y029180D02*
X036619Y029180D01*
X036619Y028180D02*
X037139Y028180D01*
X037139Y027180D02*
X036619Y027180D01*
X039619Y027180D02*
X040139Y027180D01*
X040139Y028180D02*
X039619Y028180D01*
X039619Y029180D02*
X040139Y029180D01*
X040139Y030180D02*
X039619Y030180D01*
X039619Y031180D02*
X040139Y031180D01*
X040139Y032180D02*
X039619Y032180D01*
X039619Y033180D02*
X040139Y033180D01*
X040139Y034180D02*
X039619Y034180D01*
X037139Y034180D02*
X036619Y034180D01*
X036619Y033180D02*
X037139Y033180D01*
X037139Y032180D02*
X036619Y032180D01*
X036619Y031180D02*
X037139Y031180D01*
X037379Y009940D02*
X037379Y009420D01*
X036379Y009420D02*
X036379Y009940D01*
X035379Y009940D02*
X035379Y009420D01*
X034379Y009420D02*
X034379Y009940D01*
X033379Y009940D02*
X033379Y009420D01*
X032379Y009420D02*
X032379Y009940D01*
X031379Y009940D02*
X031379Y009420D01*
X030379Y009420D02*
X030379Y009940D01*
X029379Y009940D02*
X029379Y009420D01*
X028379Y009420D02*
X028379Y009940D01*
X027379Y009940D02*
X027379Y009420D01*
D11*
X031379Y018180D03*
X031379Y019180D03*
X031379Y020180D03*
X031379Y021180D03*
X031379Y022180D03*
X031379Y023180D03*
X031379Y024180D03*
X031379Y025180D03*
X031379Y026180D03*
X034379Y026180D03*
X034379Y025180D03*
X034379Y024180D03*
X034379Y023180D03*
X034379Y022180D03*
X034379Y021180D03*
X034379Y020180D03*
X034379Y019180D03*
X034379Y018180D03*
X035879Y020180D03*
X039379Y022680D03*
X038379Y023180D03*
X040379Y022180D03*
X040379Y025180D03*
X039379Y025680D03*
X038379Y026180D03*
X035879Y023180D03*
X021379Y018680D03*
X020379Y018680D03*
X019879Y021680D03*
X019879Y022680D03*
X016879Y022680D03*
X016379Y022680D03*
X016379Y021680D03*
X016879Y021680D03*
X013379Y021680D03*
X013379Y022680D03*
X007879Y024180D03*
X004879Y024180D03*
X004879Y025180D03*
X003879Y025180D03*
X016879Y027180D03*
X017879Y027180D03*
X003879Y011680D03*
X002879Y011680D03*
X002879Y009680D03*
X005879Y009680D03*
D12*
X019929Y027180D03*
X021829Y027180D03*
D13*
X007600Y015180D03*
D14*
X006379Y013290D03*
X005198Y015180D03*
D15*
X005879Y011180D03*
X009879Y011180D03*
D16*
X016049Y012680D02*
X016709Y012680D01*
X016709Y013680D02*
X016049Y013680D01*
X016049Y014680D02*
X016709Y014680D01*
X028049Y014680D02*
X028709Y014680D01*
X028709Y013680D02*
X028049Y013680D01*
X028049Y015680D02*
X028709Y015680D01*
D17*
X014379Y014680D03*
D18*
X014379Y012680D03*
D19*
X026379Y013680D03*
X026379Y015180D03*
D20*
X026379Y016180D03*
X026379Y012680D03*
D21*
X036579Y020180D02*
X037179Y020180D01*
X037179Y021180D02*
X036579Y021180D01*
X036579Y022180D02*
X037179Y022180D01*
X037179Y023180D02*
X036579Y023180D01*
X036579Y024180D02*
X037179Y024180D01*
X037179Y025180D02*
X036579Y025180D01*
X038379Y021480D02*
X038379Y020880D01*
X040379Y020880D02*
X040379Y021480D01*
X040379Y018480D02*
X040379Y017880D01*
X038379Y017880D02*
X038379Y018480D01*
X012679Y017680D02*
X012079Y017680D01*
X012079Y015680D02*
X012679Y015680D01*
X009679Y015680D02*
X009079Y015680D01*
X009079Y017680D02*
X009679Y017680D01*
X003679Y020180D02*
X003079Y020180D01*
X003079Y021180D02*
X003679Y021180D01*
X003679Y022180D02*
X003079Y022180D01*
X003079Y023180D02*
X003679Y023180D01*
D22*
X037379Y014680D03*
D23*
X037379Y012480D03*
X040379Y014680D03*
X037379Y016880D03*
D24*
X036159Y007680D03*
X035079Y007680D03*
X033999Y007680D03*
X032919Y007680D03*
X031839Y007680D03*
X030759Y007680D03*
X029679Y007680D03*
X028599Y007680D03*
X029139Y006680D03*
X030219Y006680D03*
X031299Y006680D03*
X032379Y006680D03*
X033459Y006680D03*
X034539Y006680D03*
X035619Y006680D03*
X019399Y007680D03*
X018309Y007680D03*
X017229Y007680D03*
X016139Y007680D03*
X015049Y007680D03*
X013969Y007680D03*
X012879Y007680D03*
X011789Y007680D03*
X010709Y007680D03*
X009619Y007680D03*
X008529Y007680D03*
X007449Y007680D03*
X006359Y007680D03*
X006899Y006680D03*
X007989Y006680D03*
X009079Y006680D03*
X010159Y006680D03*
X011249Y006680D03*
X012339Y006680D03*
X013419Y006680D03*
X014509Y006680D03*
X015599Y006680D03*
X016679Y006680D03*
X017769Y006680D03*
X018859Y006680D03*
D25*
X022139Y007180D03*
X025819Y007180D03*
X038939Y007180D03*
X003619Y007180D03*
D26*
X009879Y009400D02*
X009879Y009960D01*
X010879Y009960D02*
X010879Y009400D01*
X014379Y009400D02*
X014379Y009960D01*
X015379Y009960D02*
X015379Y009400D01*
D27*
X014379Y012680D02*
X014129Y012680D01*
X009379Y017430D01*
X009379Y017680D01*
X005879Y023180D02*
X005879Y024180D01*
X004879Y025180D01*
X016879Y027180D02*
X017504Y026555D01*
X020629Y026555D01*
X021379Y025805D01*
X021379Y025680D01*
X021379Y025055D01*
X018379Y022055D01*
X018379Y019680D01*
X019379Y019680D02*
X019379Y019555D01*
X020254Y018680D01*
X020379Y018680D01*
X021379Y017680D01*
X017379Y013680D01*
X016379Y013680D01*
X021379Y017680D02*
X023879Y015180D01*
X026379Y015180D01*
X026379Y014680D01*
X028379Y014680D01*
X028504Y014555D01*
X030004Y016055D01*
X034754Y016055D01*
X035254Y015555D01*
X040379Y015555D01*
X040379Y014680D01*
X040379Y015555D02*
X040379Y016930D01*
X039754Y017555D01*
X039754Y021180D01*
X040379Y021180D01*
X039754Y021180D02*
X039629Y021180D01*
X038254Y022555D01*
X037754Y022555D01*
X037129Y023180D01*
X036879Y023180D01*
X026379Y014680D02*
X026379Y013680D01*
X027129Y012930D01*
X027129Y012430D01*
X026754Y012055D01*
X026754Y008555D01*
X028629Y006680D01*
X029139Y006680D01*
D28*
X002359Y004160D02*
X002359Y013554D01*
X003813Y012100D01*
X003705Y012100D01*
X003459Y011854D01*
X003459Y011506D01*
X003705Y011260D01*
X004053Y011260D01*
X004299Y011506D01*
X004299Y011614D01*
X004329Y011584D01*
X004329Y011584D01*
X004408Y011505D01*
X005599Y010314D01*
X005599Y009994D01*
X005459Y009854D01*
X005459Y009506D01*
X005705Y009260D01*
X006053Y009260D01*
X006299Y009506D01*
X006299Y009854D01*
X006159Y009994D01*
X006159Y010486D01*
X006117Y010589D01*
X006004Y010701D01*
X006157Y010765D01*
X006295Y010902D01*
X006369Y011083D01*
X006369Y011277D01*
X006295Y011458D01*
X006227Y011525D01*
X009531Y011525D01*
X009464Y011458D01*
X009389Y011277D01*
X009389Y011083D01*
X009464Y010902D01*
X009602Y010765D01*
X009782Y010690D01*
X009977Y010690D01*
X010157Y010765D01*
X010295Y010902D01*
X010369Y011083D01*
X010369Y011277D01*
X010295Y011458D01*
X010227Y011525D01*
X022185Y011525D01*
X022288Y011568D01*
X022367Y011646D01*
X023120Y012400D01*
X025987Y012400D01*
X026110Y012277D01*
X026285Y012205D01*
X026474Y012205D01*
X026648Y012277D01*
X026782Y012411D01*
X026854Y012586D01*
X026854Y012774D01*
X026782Y012949D01*
X026648Y013083D01*
X026474Y013155D01*
X026285Y013155D01*
X026110Y013083D01*
X025987Y012960D01*
X023157Y012960D01*
X023183Y012986D01*
X023332Y013244D01*
X023409Y013531D01*
X023409Y013829D01*
X023332Y014116D01*
X023183Y014374D01*
X022973Y014584D01*
X022715Y014733D01*
X022428Y014810D01*
X022130Y014810D01*
X021843Y014733D01*
X021585Y014584D01*
X021375Y014374D01*
X021226Y014116D01*
X021149Y013829D01*
X021149Y013531D01*
X021226Y013244D01*
X021375Y012986D01*
X021585Y012776D01*
X021843Y012627D01*
X022130Y012550D01*
X022428Y012550D01*
X022497Y012568D01*
X022013Y012085D01*
X004620Y012085D01*
X002784Y013921D01*
X002784Y019801D01*
X002828Y019769D01*
X002895Y019735D01*
X002967Y019712D01*
X003041Y019700D01*
X003359Y019700D01*
X003359Y020160D01*
X003399Y020160D01*
X003399Y019700D01*
X003717Y019700D01*
X003792Y019712D01*
X003863Y019735D01*
X003931Y019769D01*
X003992Y019814D01*
X004045Y019867D01*
X004090Y019928D01*
X004124Y019996D01*
X004147Y020068D01*
X004159Y020142D01*
X004159Y020160D01*
X003399Y020160D01*
X003399Y020200D01*
X003359Y020200D01*
X003359Y020660D01*
X003041Y020660D01*
X002967Y020648D01*
X002895Y020625D01*
X002828Y020591D01*
X002784Y020559D01*
X002784Y020824D01*
X002819Y020790D01*
X002988Y020720D01*
X003771Y020720D01*
X003940Y020790D01*
X004069Y020919D01*
X004090Y020970D01*
X007667Y020970D01*
X007770Y020867D01*
X007710Y020848D01*
X007649Y020816D01*
X007593Y020776D01*
X007544Y020727D01*
X007503Y020671D01*
X007471Y020609D01*
X007450Y020543D01*
X007439Y020475D01*
X007439Y020180D01*
X007439Y019885D01*
X007450Y019817D01*
X007471Y019751D01*
X007503Y019689D01*
X007544Y019633D01*
X007593Y019584D01*
X007649Y019544D01*
X007710Y019512D01*
X007776Y019491D01*
X007845Y019480D01*
X007879Y019480D01*
X007879Y020180D01*
X007439Y020180D01*
X007879Y020180D01*
X007879Y020180D01*
X007879Y020180D01*
X007879Y019480D01*
X007914Y019480D01*
X007982Y019491D01*
X008048Y019512D01*
X008110Y019544D01*
X008166Y019584D01*
X008215Y019633D01*
X008255Y019689D01*
X008949Y019689D01*
X008790Y019847D02*
X008313Y019847D01*
X008308Y019817D02*
X008319Y019885D01*
X008319Y020180D01*
X008319Y020318D01*
X009419Y019218D01*
X009419Y018343D01*
X009602Y018160D01*
X009399Y018160D01*
X009399Y017700D01*
X009359Y017700D01*
X009359Y017660D01*
X008599Y017660D01*
X008599Y017642D01*
X008611Y017568D01*
X008634Y017496D01*
X008669Y017428D01*
X008713Y017367D01*
X008766Y017314D01*
X008828Y017269D01*
X008895Y017235D01*
X008967Y017212D01*
X009041Y017200D01*
X009359Y017200D01*
X009359Y017660D01*
X009399Y017660D01*
X009399Y017200D01*
X009717Y017200D01*
X009792Y017212D01*
X009863Y017235D01*
X009931Y017269D01*
X009992Y017314D01*
X010045Y017367D01*
X010090Y017428D01*
X010124Y017496D01*
X010147Y017568D01*
X010154Y017608D01*
X011755Y016007D01*
X011689Y015941D01*
X011619Y015771D01*
X011619Y015588D01*
X011689Y015419D01*
X011819Y015290D01*
X011988Y015220D01*
X012771Y015220D01*
X012940Y015290D01*
X013069Y015419D01*
X013139Y015588D01*
X013139Y015771D01*
X013069Y015941D01*
X012940Y016070D01*
X012771Y016140D01*
X012216Y016140D01*
X009839Y018517D01*
X009839Y019392D01*
X009716Y019515D01*
X007841Y021390D01*
X004090Y021390D01*
X004069Y021441D01*
X003940Y021570D01*
X003771Y021640D01*
X002988Y021640D01*
X002819Y021570D01*
X002784Y021536D01*
X002784Y021824D01*
X002819Y021790D01*
X002988Y021720D01*
X003771Y021720D01*
X003940Y021790D01*
X004069Y021919D01*
X004090Y021970D01*
X010841Y021970D01*
X010964Y022093D01*
X014038Y025167D01*
X014141Y025064D01*
X014296Y025000D01*
X014463Y025000D01*
X014617Y025064D01*
X014720Y025167D01*
X014792Y025095D01*
X015169Y024718D01*
X015169Y020308D01*
X015141Y020296D01*
X015023Y020178D01*
X014959Y020024D01*
X014959Y019397D01*
X014799Y019557D01*
X014799Y020024D01*
X014735Y020178D01*
X014617Y020296D01*
X014463Y020360D01*
X014296Y020360D01*
X014141Y020296D01*
X014038Y020193D01*
X013966Y020265D01*
X013591Y020640D01*
X011042Y020640D01*
X010919Y020517D01*
X010658Y020255D01*
X010617Y020296D01*
X010463Y020360D01*
X010296Y020360D01*
X010141Y020296D01*
X010023Y020178D01*
X009959Y020024D01*
X009959Y019336D01*
X010023Y019182D01*
X010141Y019064D01*
X010296Y019000D01*
X010463Y019000D01*
X010617Y019064D01*
X010735Y019182D01*
X010799Y019336D01*
X010799Y019803D01*
X010959Y019963D01*
X010959Y019336D01*
X011023Y019182D01*
X011141Y019064D01*
X011296Y019000D01*
X011463Y019000D01*
X011617Y019064D01*
X011735Y019182D01*
X011799Y019336D01*
X011799Y020024D01*
X011735Y020178D01*
X011693Y020220D01*
X012065Y020220D01*
X012023Y020178D01*
X011959Y020024D01*
X011959Y019336D01*
X012023Y019182D01*
X012141Y019064D01*
X012296Y019000D01*
X012463Y019000D01*
X012617Y019064D01*
X012658Y019105D01*
X014294Y017468D01*
X014417Y017345D01*
X020055Y017345D01*
X020057Y017340D01*
X020164Y017233D01*
X020304Y017175D01*
X020455Y017175D01*
X020594Y017233D01*
X020701Y017340D01*
X020759Y017479D01*
X020759Y017631D01*
X020701Y017770D01*
X020594Y017877D01*
X020455Y017935D01*
X020304Y017935D01*
X020164Y017877D01*
X020057Y017770D01*
X020055Y017765D01*
X019722Y017765D01*
X019759Y017854D01*
X019759Y017925D01*
X019830Y017925D01*
X019969Y017983D01*
X020076Y018090D01*
X020134Y018229D01*
X020134Y018303D01*
X020197Y018240D01*
X020379Y018240D01*
X020379Y018680D01*
X019939Y018680D01*
X020379Y018680D01*
X020379Y018680D01*
X020379Y018680D01*
X020379Y018240D01*
X020561Y018240D01*
X020819Y018498D01*
X020819Y018680D01*
X020819Y018862D01*
X020617Y019064D01*
X020735Y019182D01*
X020799Y019336D01*
X020799Y020024D01*
X020735Y020178D01*
X020617Y020296D01*
X020499Y020345D01*
X021259Y020345D01*
X021141Y020296D01*
X021023Y020178D01*
X020959Y020024D01*
X020959Y019336D01*
X021023Y019182D01*
X021141Y019064D01*
X021161Y019056D01*
X020959Y018854D01*
X020959Y018506D01*
X021205Y018260D01*
X021553Y018260D01*
X021603Y018310D01*
X022267Y017646D01*
X022346Y017568D01*
X022448Y017525D01*
X025812Y017525D01*
X025807Y017520D01*
X025749Y017381D01*
X025749Y017229D01*
X025751Y017224D01*
X024710Y016183D01*
X024705Y016185D01*
X024554Y016185D01*
X024414Y016127D01*
X024307Y016020D01*
X024249Y015881D01*
X024249Y015729D01*
X024307Y015590D01*
X024414Y015483D01*
X024554Y015425D01*
X024705Y015425D01*
X024844Y015483D01*
X024951Y015590D01*
X025009Y015729D01*
X025009Y015830D01*
X025057Y015715D01*
X025164Y015608D01*
X025304Y015550D01*
X025455Y015550D01*
X025594Y015608D01*
X025701Y015715D01*
X025759Y015854D01*
X025759Y015914D01*
X025912Y016067D01*
X025976Y015911D01*
X026110Y015777D01*
X026285Y015705D01*
X026474Y015705D01*
X026648Y015777D01*
X026782Y015911D01*
X026854Y016086D01*
X026854Y016274D01*
X026782Y016449D01*
X026648Y016583D01*
X026492Y016647D01*
X026867Y017021D01*
X026909Y017124D01*
X026909Y017486D01*
X026867Y017589D01*
X026788Y017667D01*
X026413Y018042D01*
X026310Y018085D01*
X022620Y018085D01*
X022610Y018095D01*
X029966Y018095D01*
X030959Y019088D01*
X030959Y019006D01*
X031205Y018760D01*
X031553Y018760D01*
X031799Y019006D01*
X031799Y019354D01*
X031683Y019470D01*
X032341Y019470D01*
X033279Y020408D01*
X033288Y020386D01*
X031792Y018890D01*
X031669Y018767D01*
X031669Y018484D01*
X031553Y018600D01*
X031205Y018600D01*
X030959Y018354D01*
X030959Y018006D01*
X031205Y017760D01*
X031287Y017760D01*
X030417Y016890D01*
X028292Y016890D01*
X027460Y016058D01*
X027455Y016060D01*
X027304Y016060D01*
X027164Y016002D01*
X027057Y015895D01*
X026999Y015756D01*
X026999Y015604D01*
X027057Y015465D01*
X027164Y015358D01*
X027304Y015300D01*
X027455Y015300D01*
X027594Y015358D01*
X027636Y015400D01*
X027772Y015265D01*
X027952Y015190D01*
X028807Y015190D01*
X028987Y015265D01*
X029125Y015402D01*
X029199Y015583D01*
X029199Y015777D01*
X029190Y015800D01*
X029205Y015800D01*
X029344Y015858D01*
X029451Y015965D01*
X029509Y016104D01*
X029509Y016220D01*
X030716Y016220D01*
X030839Y016343D01*
X032339Y017843D01*
X032339Y018468D01*
X033959Y020088D01*
X033959Y020006D01*
X034205Y019760D01*
X034553Y019760D01*
X034799Y020006D01*
X034799Y020354D01*
X034553Y020600D01*
X034471Y020600D01*
X034589Y020718D01*
X034589Y020796D01*
X034799Y021006D01*
X034799Y021088D01*
X034919Y020968D01*
X034919Y017593D01*
X036251Y016261D01*
X036249Y016256D01*
X036249Y016104D01*
X036307Y015965D01*
X036414Y015858D01*
X036554Y015800D01*
X036705Y015800D01*
X036844Y015858D01*
X036951Y015965D01*
X037009Y016104D01*
X037009Y016126D01*
X037050Y016085D01*
X037708Y016085D01*
X038174Y016551D01*
X038174Y016963D01*
X038251Y016886D01*
X038249Y016881D01*
X038249Y016729D01*
X038307Y016590D01*
X038414Y016483D01*
X038554Y016425D01*
X038705Y016425D01*
X038844Y016483D01*
X038951Y016590D01*
X039009Y016729D01*
X039009Y016881D01*
X038951Y017020D01*
X038844Y017127D01*
X038705Y017185D01*
X038554Y017185D01*
X038548Y017183D01*
X038311Y017420D01*
X038471Y017420D01*
X038640Y017490D01*
X038769Y017619D01*
X038839Y017788D01*
X038839Y018571D01*
X038769Y018741D01*
X038640Y018870D01*
X038471Y018940D01*
X038288Y018940D01*
X038119Y018870D01*
X037989Y018741D01*
X037919Y018571D01*
X037919Y017812D01*
X035971Y019760D01*
X036053Y019760D01*
X036201Y019908D01*
X036319Y019790D01*
X036488Y019720D01*
X037271Y019720D01*
X037440Y019790D01*
X037569Y019919D01*
X037639Y020088D01*
X037639Y020271D01*
X037569Y020441D01*
X037440Y020570D01*
X037271Y020640D01*
X036488Y020640D01*
X036319Y020570D01*
X036201Y020452D01*
X036053Y020600D01*
X035705Y020600D01*
X035589Y020484D01*
X035589Y021892D01*
X035466Y022015D01*
X034637Y022844D01*
X034799Y023006D01*
X034799Y023114D01*
X034971Y022943D01*
X035073Y022900D01*
X035565Y022900D01*
X035705Y022760D01*
X036053Y022760D01*
X036191Y022898D01*
X036213Y022867D01*
X036266Y022814D01*
X036328Y022769D01*
X036395Y022735D01*
X036467Y022712D01*
X036541Y022700D01*
X034781Y022700D01*
X034652Y022859D02*
X035607Y022859D01*
X035565Y023460D02*
X035245Y023460D01*
X034867Y023839D01*
X034788Y023917D01*
X034733Y023940D01*
X034799Y024006D01*
X034799Y024354D01*
X034683Y024470D01*
X036197Y024470D01*
X036169Y024432D01*
X036134Y024364D01*
X036111Y024292D01*
X036099Y024218D01*
X036099Y024200D01*
X036859Y024200D01*
X036859Y024160D01*
X036099Y024160D01*
X036099Y024142D01*
X036111Y024068D01*
X036134Y023996D01*
X036169Y023928D01*
X036213Y023867D01*
X036266Y023814D01*
X036328Y023769D01*
X036395Y023735D01*
X036467Y023712D01*
X036541Y023700D01*
X036859Y023700D01*
X036859Y024160D01*
X036899Y024160D01*
X036899Y023700D01*
X037217Y023700D01*
X037292Y023712D01*
X037363Y023735D01*
X037431Y023769D01*
X037492Y023814D01*
X037545Y023867D01*
X037590Y023928D01*
X037624Y023996D01*
X037647Y024068D01*
X037659Y024142D01*
X037659Y024160D01*
X036899Y024160D01*
X036899Y024200D01*
X037659Y024200D01*
X037659Y024218D01*
X037657Y024230D01*
X038287Y023600D01*
X038205Y023600D01*
X037959Y023354D01*
X037959Y023006D01*
X038205Y022760D01*
X038553Y022760D01*
X038799Y023006D01*
X038799Y023088D01*
X038996Y022891D01*
X038959Y022854D01*
X038959Y022506D01*
X039205Y022260D01*
X039553Y022260D01*
X039669Y022376D01*
X039669Y022306D01*
X039539Y022252D01*
X039432Y022145D01*
X039374Y022006D01*
X039374Y021854D01*
X039432Y021715D01*
X039539Y021608D01*
X039679Y021550D01*
X039830Y021550D01*
X039909Y021583D01*
X039899Y021518D01*
X039899Y021200D01*
X040359Y021200D01*
X040359Y021160D01*
X039899Y021160D01*
X039899Y020842D01*
X039911Y020768D01*
X039934Y020696D01*
X039969Y020628D01*
X040013Y020567D01*
X040066Y020514D01*
X040128Y020469D01*
X040195Y020435D01*
X040267Y020412D01*
X040341Y020400D01*
X040359Y020400D01*
X040359Y021160D01*
X040399Y021160D01*
X040399Y020400D01*
X040417Y020400D01*
X040492Y020412D01*
X040563Y020435D01*
X040631Y020469D01*
X040692Y020514D01*
X040745Y020567D01*
X040769Y020600D01*
X040769Y018740D01*
X040769Y018741D01*
X040640Y018870D01*
X040471Y018940D01*
X040288Y018940D01*
X040119Y018870D01*
X039989Y018741D01*
X039919Y018571D01*
X039919Y017788D01*
X039989Y017619D01*
X040119Y017490D01*
X040288Y017420D01*
X040471Y017420D01*
X040640Y017490D01*
X040769Y017619D01*
X040769Y017620D01*
X040769Y015443D01*
X040717Y015495D01*
X040459Y015495D01*
X040459Y014760D01*
X040299Y014760D01*
X040299Y015495D01*
X040042Y015495D01*
X039697Y015150D01*
X039594Y015252D01*
X039455Y015310D01*
X039304Y015310D01*
X039164Y015252D01*
X039057Y015145D01*
X039055Y015140D01*
X038542Y015140D01*
X037952Y014549D01*
X037952Y014917D01*
X037616Y015252D01*
X037142Y015252D01*
X036807Y014917D01*
X036807Y014443D01*
X037142Y014108D01*
X037510Y014108D01*
X034042Y010640D01*
X029042Y010640D01*
X028658Y010255D01*
X028617Y010296D01*
X028476Y010355D01*
X029464Y011343D01*
X029464Y013892D01*
X029341Y014015D01*
X029053Y014303D01*
X029098Y014348D01*
X029145Y014413D01*
X029182Y014484D01*
X029207Y014561D01*
X029219Y014640D01*
X029219Y014650D01*
X028409Y014650D01*
X028409Y014710D01*
X028349Y014710D01*
X028349Y014650D01*
X027539Y014650D01*
X027539Y014640D01*
X027552Y014561D01*
X027577Y014484D01*
X027613Y014413D01*
X027660Y014348D01*
X027705Y014303D01*
X027687Y014285D01*
X027594Y014377D01*
X027455Y014435D01*
X027304Y014435D01*
X027164Y014377D01*
X027057Y014270D01*
X026999Y014131D01*
X026999Y013979D01*
X027057Y013840D01*
X027164Y013733D01*
X027304Y013675D01*
X027455Y013675D01*
X027559Y013718D01*
X027559Y013583D01*
X027634Y013402D01*
X027772Y013265D01*
X027952Y013190D01*
X028099Y013190D01*
X028099Y013171D01*
X027142Y012214D01*
X027099Y012111D01*
X027099Y010254D01*
X027023Y010178D01*
X026959Y010024D01*
X026959Y009336D01*
X027023Y009182D01*
X027141Y009064D01*
X027296Y009000D01*
X027463Y009000D01*
X027617Y009064D01*
X027720Y009167D01*
X028044Y008843D01*
X028167Y008720D01*
X028716Y008720D01*
X029101Y009105D01*
X029141Y009064D01*
X029296Y009000D01*
X029463Y009000D01*
X029617Y009064D01*
X029735Y009182D01*
X029799Y009336D01*
X029799Y010024D01*
X029735Y010178D01*
X029693Y010220D01*
X030065Y010220D01*
X030023Y010178D01*
X029959Y010024D01*
X029959Y009336D01*
X030023Y009182D01*
X030141Y009064D01*
X030296Y009000D01*
X030463Y009000D01*
X030617Y009064D01*
X030735Y009182D01*
X030799Y009336D01*
X030799Y010024D01*
X030735Y010178D01*
X030693Y010220D01*
X031065Y010220D01*
X031023Y010178D01*
X030959Y010024D01*
X030959Y009336D01*
X031023Y009182D01*
X031141Y009064D01*
X031169Y009052D01*
X031169Y007968D01*
X031379Y007758D01*
X031379Y007665D01*
X031330Y007685D01*
X031219Y007685D01*
X031219Y007871D01*
X030950Y008140D01*
X030569Y008140D01*
X030299Y007871D01*
X030299Y007489D01*
X030569Y007220D01*
X030872Y007220D01*
X030601Y006949D01*
X030410Y007140D01*
X030029Y007140D01*
X029759Y006871D01*
X029759Y006489D01*
X029859Y006390D01*
X029528Y006390D01*
X029619Y006481D01*
X029619Y006660D01*
X029159Y006660D01*
X029159Y006700D01*
X029119Y006700D01*
X029119Y006660D01*
X028659Y006660D01*
X028659Y006481D01*
X028750Y006390D01*
X028591Y006390D01*
X024341Y010640D01*
X009667Y010640D01*
X009544Y010517D01*
X007794Y008767D01*
X007794Y007986D01*
X007640Y008140D01*
X007259Y008140D01*
X006989Y007871D01*
X006989Y007489D01*
X007259Y007220D01*
X007640Y007220D01*
X007794Y007374D01*
X007794Y007136D01*
X007529Y006871D01*
X007529Y006489D01*
X007799Y006220D01*
X008180Y006220D01*
X008449Y006489D01*
X008449Y006871D01*
X008214Y007106D01*
X008214Y007344D01*
X008339Y007220D01*
X008720Y007220D01*
X008989Y007489D01*
X008989Y007871D01*
X008720Y008140D01*
X008339Y008140D01*
X008214Y008016D01*
X008214Y008593D01*
X009419Y009798D01*
X009419Y009690D01*
X009869Y009690D01*
X009869Y009670D01*
X009419Y009670D01*
X009419Y009364D01*
X009430Y009292D01*
X009453Y009223D01*
X009486Y009159D01*
X009528Y009100D01*
X009579Y009049D01*
X009638Y009007D01*
X009703Y008974D01*
X009771Y008951D01*
X009843Y008940D01*
X009869Y008940D01*
X009869Y009670D01*
X009889Y009670D01*
X009889Y008940D01*
X009915Y008940D01*
X009987Y008951D01*
X010056Y008974D01*
X010120Y009007D01*
X010179Y009049D01*
X010230Y009100D01*
X010273Y009159D01*
X010305Y009223D01*
X010328Y009292D01*
X010339Y009364D01*
X010339Y009670D01*
X009889Y009670D01*
X009889Y009690D01*
X010339Y009690D01*
X010339Y009996D01*
X010328Y010068D01*
X010305Y010137D01*
X010273Y010201D01*
X010259Y010220D01*
X010517Y010220D01*
X010506Y010209D01*
X010439Y010048D01*
X010439Y009312D01*
X010506Y009151D01*
X010630Y009027D01*
X010669Y009011D01*
X010669Y008642D01*
X010167Y008140D01*
X010044Y008017D01*
X010044Y007934D01*
X009818Y008160D01*
X009639Y008160D01*
X009639Y007700D01*
X009599Y007700D01*
X009599Y007660D01*
X009139Y007660D01*
X009139Y007481D01*
X009420Y007200D01*
X009599Y007200D01*
X009599Y007660D01*
X009639Y007660D01*
X009639Y007200D01*
X009818Y007200D01*
X010044Y007426D01*
X010044Y007140D01*
X009969Y007140D01*
X009699Y006871D01*
X009699Y006489D01*
X009969Y006220D01*
X010350Y006220D01*
X010383Y006254D01*
X011542Y005095D01*
X012882Y005095D01*
X012807Y005020D01*
X012749Y004881D01*
X012749Y004729D01*
X012807Y004590D01*
X012914Y004483D01*
X013054Y004425D01*
X013205Y004425D01*
X013344Y004483D01*
X013451Y004590D01*
X013453Y004595D01*
X020292Y004595D01*
X020727Y004160D01*
X002359Y004160D01*
X002359Y004314D02*
X020573Y004314D01*
X020415Y004473D02*
X013319Y004473D01*
X012939Y004473D02*
X002359Y004473D01*
X002359Y004631D02*
X012790Y004631D01*
X012749Y004790D02*
X002359Y004790D01*
X002359Y004948D02*
X012777Y004948D01*
X011531Y005107D02*
X002359Y005107D01*
X002359Y005265D02*
X011372Y005265D01*
X011214Y005424D02*
X002359Y005424D01*
X002359Y005582D02*
X011055Y005582D01*
X010897Y005741D02*
X002359Y005741D01*
X002359Y005899D02*
X010738Y005899D01*
X010580Y006058D02*
X003912Y006058D01*
X003772Y006020D02*
X004067Y006099D01*
X004331Y006252D01*
X004547Y006468D01*
X004700Y006732D01*
X004779Y007027D01*
X004779Y007333D01*
X004700Y007628D01*
X004547Y007892D01*
X004331Y008108D01*
X004067Y008261D01*
X003772Y008340D01*
X003466Y008340D01*
X003171Y008261D01*
X002907Y008108D01*
X002691Y007892D01*
X002538Y007628D01*
X002459Y007333D01*
X002459Y007027D01*
X002538Y006732D01*
X002691Y006468D01*
X002907Y006252D01*
X003171Y006099D01*
X003466Y006020D01*
X003772Y006020D01*
X003326Y006058D02*
X002359Y006058D01*
X002359Y006216D02*
X002969Y006216D01*
X002784Y006375D02*
X002359Y006375D01*
X002359Y006533D02*
X002653Y006533D01*
X002562Y006692D02*
X002359Y006692D01*
X002359Y006850D02*
X002507Y006850D01*
X002464Y007009D02*
X002359Y007009D01*
X002359Y007167D02*
X002459Y007167D01*
X002459Y007326D02*
X002359Y007326D01*
X002359Y007484D02*
X002500Y007484D01*
X002547Y007643D02*
X002359Y007643D01*
X002359Y007801D02*
X002638Y007801D01*
X002758Y007960D02*
X002359Y007960D01*
X002359Y008118D02*
X002924Y008118D01*
X003229Y008277D02*
X002359Y008277D01*
X002359Y008435D02*
X007794Y008435D01*
X007794Y008277D02*
X004009Y008277D01*
X004314Y008118D02*
X006147Y008118D01*
X006169Y008140D02*
X005899Y007871D01*
X005899Y007489D01*
X006169Y007220D01*
X006550Y007220D01*
X006819Y007489D01*
X006819Y007871D01*
X006550Y008140D01*
X006169Y008140D01*
X005988Y007960D02*
X004480Y007960D01*
X004600Y007801D02*
X005899Y007801D01*
X005899Y007643D02*
X004692Y007643D01*
X004739Y007484D02*
X005905Y007484D01*
X006063Y007326D02*
X004779Y007326D01*
X004779Y007167D02*
X007794Y007167D01*
X007794Y007326D02*
X007745Y007326D01*
X007667Y007009D02*
X007221Y007009D01*
X007090Y007140D02*
X007359Y006871D01*
X007359Y006489D01*
X007090Y006220D01*
X006709Y006220D01*
X006439Y006489D01*
X006439Y006871D01*
X006709Y007140D01*
X007090Y007140D01*
X007153Y007326D02*
X006655Y007326D01*
X006814Y007484D02*
X006995Y007484D01*
X006989Y007643D02*
X006819Y007643D01*
X006819Y007801D02*
X006989Y007801D01*
X007078Y007960D02*
X006730Y007960D01*
X006572Y008118D02*
X007237Y008118D01*
X007662Y008118D02*
X007794Y008118D01*
X008214Y008118D02*
X008317Y008118D01*
X008214Y008277D02*
X010304Y008277D01*
X010462Y008435D02*
X008214Y008435D01*
X008215Y008594D02*
X010621Y008594D01*
X010669Y008752D02*
X008373Y008752D01*
X008532Y008911D02*
X010669Y008911D01*
X010588Y009069D02*
X010199Y009069D01*
X010307Y009228D02*
X010474Y009228D01*
X010439Y009386D02*
X010339Y009386D01*
X010339Y009545D02*
X010439Y009545D01*
X010439Y009703D02*
X010339Y009703D01*
X010339Y009862D02*
X010439Y009862D01*
X010439Y010020D02*
X010335Y010020D01*
X010284Y010179D02*
X010493Y010179D01*
X010205Y010813D02*
X027099Y010813D01*
X027099Y010971D02*
X010323Y010971D01*
X010369Y011130D02*
X027099Y011130D01*
X027099Y011288D02*
X010365Y011288D01*
X010299Y011447D02*
X027099Y011447D01*
X027099Y011605D02*
X022325Y011605D01*
X022484Y011764D02*
X027099Y011764D01*
X027099Y011922D02*
X022642Y011922D01*
X022801Y012081D02*
X027099Y012081D01*
X027167Y012239D02*
X026556Y012239D01*
X026768Y012398D02*
X027326Y012398D01*
X027484Y012556D02*
X026842Y012556D01*
X026854Y012715D02*
X027643Y012715D01*
X027801Y012873D02*
X026813Y012873D01*
X026699Y013032D02*
X027960Y013032D01*
X027952Y013190D02*
X026589Y013190D01*
X026584Y013185D02*
X026874Y013475D01*
X026874Y013680D01*
X026379Y013680D01*
X025884Y013680D01*
X025884Y013475D01*
X026174Y013185D01*
X026379Y013185D01*
X026379Y013680D01*
X026379Y013680D01*
X025884Y013680D01*
X025884Y013885D01*
X026174Y014175D01*
X026379Y014175D01*
X026379Y013680D01*
X026379Y013680D01*
X026379Y013680D01*
X026379Y014175D01*
X026584Y014175D01*
X026874Y013885D01*
X026874Y013680D01*
X026379Y013680D01*
X026379Y013185D01*
X026584Y013185D01*
X026379Y013190D02*
X026379Y013190D01*
X026379Y013349D02*
X026379Y013349D01*
X026379Y013507D02*
X026379Y013507D01*
X026379Y013666D02*
X026379Y013666D01*
X026379Y013680D02*
X026379Y013680D01*
X026379Y013824D02*
X026379Y013824D01*
X026379Y013983D02*
X026379Y013983D01*
X026379Y014141D02*
X026379Y014141D01*
X026140Y014141D02*
X023318Y014141D01*
X023368Y013983D02*
X025982Y013983D01*
X025884Y013824D02*
X023409Y013824D01*
X023409Y013666D02*
X025884Y013666D01*
X025884Y013507D02*
X023403Y013507D01*
X023360Y013349D02*
X026011Y013349D01*
X026169Y013190D02*
X023301Y013190D01*
X023210Y013032D02*
X026059Y013032D01*
X026748Y013349D02*
X027688Y013349D01*
X027590Y013507D02*
X026874Y013507D01*
X026874Y013666D02*
X027559Y013666D01*
X027073Y013824D02*
X026874Y013824D01*
X026777Y013983D02*
X026999Y013983D01*
X027003Y014141D02*
X026618Y014141D01*
X027086Y014300D02*
X023226Y014300D01*
X023099Y014458D02*
X027590Y014458D01*
X027543Y014617D02*
X022917Y014617D01*
X022558Y014775D02*
X026084Y014775D01*
X026174Y014685D02*
X025884Y014975D01*
X025884Y015180D01*
X026379Y015180D01*
X026379Y015180D01*
X025884Y015180D01*
X025884Y015385D01*
X026174Y015675D01*
X026379Y015675D01*
X026379Y015180D01*
X026379Y015180D01*
X026379Y015180D01*
X026379Y014685D01*
X026174Y014685D01*
X026379Y014685D02*
X026584Y014685D01*
X026874Y014975D01*
X026874Y015180D01*
X026379Y015180D01*
X026379Y015675D01*
X026584Y015675D01*
X026874Y015385D01*
X026874Y015180D01*
X026379Y015180D01*
X026379Y014685D01*
X026379Y014775D02*
X026379Y014775D01*
X026379Y014934D02*
X026379Y014934D01*
X026379Y015092D02*
X026379Y015092D01*
X026379Y015180D02*
X026379Y015180D01*
X026379Y015251D02*
X026379Y015251D01*
X026379Y015409D02*
X026379Y015409D01*
X026379Y015568D02*
X026379Y015568D01*
X026234Y015726D02*
X025706Y015726D01*
X025759Y015885D02*
X026003Y015885D01*
X025922Y016043D02*
X025888Y016043D01*
X025204Y016677D02*
X022045Y016677D01*
X022076Y016645D02*
X021969Y016752D01*
X021830Y016810D01*
X021679Y016810D01*
X021539Y016752D01*
X021432Y016645D01*
X021374Y016506D01*
X021374Y016446D01*
X017888Y012960D01*
X017122Y012960D01*
X016987Y013095D01*
X016807Y013170D01*
X015952Y013170D01*
X015772Y013095D01*
X015634Y012958D01*
X015559Y012777D01*
X015559Y012583D01*
X015634Y012402D01*
X015772Y012265D01*
X015952Y012190D01*
X016807Y012190D01*
X016987Y012265D01*
X017122Y012400D01*
X018060Y012400D01*
X018163Y012443D01*
X021770Y016050D01*
X021830Y016050D01*
X021969Y016108D01*
X022076Y016215D01*
X022134Y016354D01*
X022134Y016506D01*
X022076Y016645D01*
X022129Y016519D02*
X025046Y016519D01*
X024887Y016360D02*
X022134Y016360D01*
X022063Y016202D02*
X024729Y016202D01*
X024330Y016043D02*
X021763Y016043D01*
X021605Y015885D02*
X024251Y015885D01*
X024251Y015726D02*
X021446Y015726D01*
X021288Y015568D02*
X024329Y015568D01*
X024929Y015568D02*
X025261Y015568D01*
X025497Y015568D02*
X026067Y015568D01*
X025908Y015409D02*
X021129Y015409D01*
X020971Y015251D02*
X025884Y015251D01*
X025884Y015092D02*
X020812Y015092D01*
X020654Y014934D02*
X025926Y014934D01*
X026674Y014775D02*
X027548Y014775D01*
X027552Y014799D02*
X027539Y014720D01*
X027539Y014710D01*
X028349Y014710D01*
X028349Y015190D01*
X028009Y015190D01*
X027930Y015177D01*
X027853Y015153D01*
X027782Y015116D01*
X027717Y015069D01*
X027660Y015012D01*
X027613Y014947D01*
X027577Y014876D01*
X027552Y014799D01*
X027606Y014934D02*
X026833Y014934D01*
X026874Y015092D02*
X027749Y015092D01*
X027806Y015251D02*
X026874Y015251D01*
X026850Y015409D02*
X027113Y015409D01*
X027014Y015568D02*
X026692Y015568D01*
X026524Y015726D02*
X026999Y015726D01*
X027053Y015885D02*
X026755Y015885D01*
X026837Y016043D02*
X027263Y016043D01*
X027604Y016202D02*
X026854Y016202D01*
X026819Y016360D02*
X027762Y016360D01*
X027921Y016519D02*
X026712Y016519D01*
X026522Y016677D02*
X028079Y016677D01*
X028238Y016836D02*
X026681Y016836D01*
X026839Y016994D02*
X030521Y016994D01*
X030680Y017153D02*
X026909Y017153D01*
X026909Y017311D02*
X030838Y017311D01*
X030997Y017470D02*
X026909Y017470D01*
X026827Y017628D02*
X031155Y017628D01*
X031179Y017787D02*
X026669Y017787D01*
X026510Y017945D02*
X031020Y017945D01*
X030959Y018104D02*
X029975Y018104D01*
X030133Y018262D02*
X030959Y018262D01*
X031026Y018421D02*
X030292Y018421D01*
X030450Y018579D02*
X031184Y018579D01*
X031069Y018896D02*
X030767Y018896D01*
X030609Y018738D02*
X031669Y018738D01*
X031669Y018579D02*
X031574Y018579D01*
X031689Y018896D02*
X031798Y018896D01*
X031799Y019055D02*
X031957Y019055D01*
X031799Y019213D02*
X032115Y019213D01*
X032274Y019372D02*
X031782Y019372D01*
X032401Y019530D02*
X032432Y019530D01*
X032560Y019689D02*
X032591Y019689D01*
X032718Y019847D02*
X032749Y019847D01*
X032877Y020006D02*
X032908Y020006D01*
X033035Y020164D02*
X033066Y020164D01*
X033194Y020323D02*
X033225Y020323D01*
X033718Y019847D02*
X034118Y019847D01*
X033960Y020006D02*
X033877Y020006D01*
X033560Y019689D02*
X034919Y019689D01*
X034919Y019847D02*
X034640Y019847D01*
X034799Y020006D02*
X034919Y020006D01*
X034919Y020164D02*
X034799Y020164D01*
X034799Y020323D02*
X034919Y020323D01*
X034919Y020481D02*
X034672Y020481D01*
X034511Y020640D02*
X034919Y020640D01*
X034919Y020798D02*
X034591Y020798D01*
X034750Y020957D02*
X034919Y020957D01*
X035589Y020957D02*
X036174Y020957D01*
X036189Y020919D02*
X036319Y020790D01*
X036488Y020720D01*
X037271Y020720D01*
X037440Y020790D01*
X037569Y020919D01*
X037639Y021088D01*
X037639Y021271D01*
X037569Y021441D01*
X037440Y021570D01*
X037271Y021640D01*
X036488Y021640D01*
X036319Y021570D01*
X036189Y021441D01*
X036119Y021271D01*
X036119Y021088D01*
X036189Y020919D01*
X036311Y020798D02*
X035589Y020798D01*
X035589Y020640D02*
X036487Y020640D01*
X036230Y020481D02*
X036172Y020481D01*
X036140Y019847D02*
X036262Y019847D01*
X036043Y019689D02*
X040769Y019689D01*
X040769Y019847D02*
X037497Y019847D01*
X037605Y020006D02*
X040769Y020006D01*
X040769Y020164D02*
X037639Y020164D01*
X037618Y020323D02*
X040769Y020323D01*
X040769Y020481D02*
X040647Y020481D01*
X040399Y020481D02*
X040359Y020481D01*
X040359Y020640D02*
X040399Y020640D01*
X040399Y020798D02*
X040359Y020798D01*
X040359Y020957D02*
X040399Y020957D01*
X040399Y021115D02*
X040359Y021115D01*
X039899Y021115D02*
X038839Y021115D01*
X038839Y020957D02*
X039899Y020957D01*
X039906Y020798D02*
X038839Y020798D01*
X038839Y020788D02*
X038769Y020619D01*
X038640Y020490D01*
X038471Y020420D01*
X038288Y020420D01*
X038119Y020490D01*
X037989Y020619D01*
X037919Y020788D01*
X037919Y021571D01*
X037989Y021741D01*
X038119Y021870D01*
X038288Y021940D01*
X038471Y021940D01*
X038640Y021870D01*
X038769Y021741D01*
X038839Y021571D01*
X038839Y020788D01*
X038777Y020640D02*
X039963Y020640D01*
X040112Y020481D02*
X038618Y020481D01*
X038140Y020481D02*
X037529Y020481D01*
X037272Y020640D02*
X037981Y020640D01*
X037919Y020798D02*
X037448Y020798D01*
X037584Y020957D02*
X037919Y020957D01*
X037919Y021115D02*
X037639Y021115D01*
X037638Y021274D02*
X037919Y021274D01*
X037919Y021432D02*
X037573Y021432D01*
X037390Y021591D02*
X037927Y021591D01*
X037998Y021749D02*
X037341Y021749D01*
X037271Y021720D02*
X037440Y021790D01*
X037569Y021919D01*
X037639Y022088D01*
X037639Y022271D01*
X037569Y022441D01*
X037440Y022570D01*
X037271Y022640D01*
X036488Y022640D01*
X036319Y022570D01*
X036189Y022441D01*
X036119Y022271D01*
X036119Y022088D01*
X036189Y021919D01*
X036319Y021790D01*
X036488Y021720D01*
X037271Y021720D01*
X037557Y021908D02*
X038209Y021908D01*
X038549Y021908D02*
X039374Y021908D01*
X039399Y022066D02*
X037630Y022066D01*
X037639Y022225D02*
X039511Y022225D01*
X039082Y022383D02*
X037593Y022383D01*
X037468Y022542D02*
X038959Y022542D01*
X038959Y022700D02*
X037217Y022700D01*
X037292Y022712D01*
X037363Y022735D01*
X037431Y022769D01*
X037492Y022814D01*
X037545Y022867D01*
X037590Y022928D01*
X037624Y022996D01*
X037647Y023068D01*
X037659Y023142D01*
X037659Y023160D01*
X036899Y023160D01*
X036899Y022700D01*
X037217Y022700D01*
X036899Y022700D02*
X036859Y022700D01*
X036859Y023160D01*
X036899Y023160D01*
X036899Y023200D01*
X036859Y023200D01*
X036859Y023660D01*
X036541Y023660D01*
X036467Y023648D01*
X036395Y023625D01*
X036328Y023591D01*
X036266Y023546D01*
X036213Y023493D01*
X036191Y023462D01*
X036053Y023600D01*
X035705Y023600D01*
X035565Y023460D01*
X035598Y023493D02*
X035213Y023493D01*
X035054Y023651D02*
X036485Y023651D01*
X036272Y023810D02*
X034896Y023810D01*
X034761Y023968D02*
X036148Y023968D01*
X036102Y024127D02*
X034799Y024127D01*
X034799Y024285D02*
X036110Y024285D01*
X036177Y024444D02*
X034710Y024444D01*
X034799Y023017D02*
X034896Y023017D01*
X034940Y022542D02*
X036290Y022542D01*
X036165Y022383D02*
X035098Y022383D01*
X035257Y022225D02*
X036119Y022225D01*
X036128Y022066D02*
X035415Y022066D01*
X035574Y021908D02*
X036201Y021908D01*
X036418Y021749D02*
X035589Y021749D01*
X035589Y021591D02*
X036368Y021591D01*
X036186Y021432D02*
X035589Y021432D01*
X035589Y021274D02*
X036120Y021274D01*
X036119Y021115D02*
X035589Y021115D01*
X034553Y019600D02*
X034205Y019600D01*
X033959Y019354D01*
X033959Y019006D01*
X034205Y018760D01*
X034553Y018760D01*
X034799Y019006D01*
X034799Y019354D01*
X034553Y019600D01*
X034623Y019530D02*
X034919Y019530D01*
X034919Y019372D02*
X034782Y019372D01*
X034799Y019213D02*
X034919Y019213D01*
X034919Y019055D02*
X034799Y019055D01*
X034689Y018896D02*
X034919Y018896D01*
X034919Y018738D02*
X032609Y018738D01*
X032767Y018896D02*
X034069Y018896D01*
X033959Y019055D02*
X032926Y019055D01*
X033084Y019213D02*
X033959Y019213D01*
X033977Y019372D02*
X033243Y019372D01*
X033401Y019530D02*
X034135Y019530D01*
X034205Y018600D02*
X033959Y018354D01*
X033959Y018006D01*
X034205Y017760D01*
X034553Y017760D01*
X034799Y018006D01*
X034799Y018354D01*
X034553Y018600D01*
X034205Y018600D01*
X034184Y018579D02*
X032450Y018579D01*
X032339Y018421D02*
X034026Y018421D01*
X033959Y018262D02*
X032339Y018262D01*
X032339Y018104D02*
X033959Y018104D01*
X034020Y017945D02*
X032339Y017945D01*
X032283Y017787D02*
X034179Y017787D01*
X034580Y017787D02*
X034919Y017787D01*
X034919Y017945D02*
X034738Y017945D01*
X034799Y018104D02*
X034919Y018104D01*
X034919Y018262D02*
X034799Y018262D01*
X034733Y018421D02*
X034919Y018421D01*
X034919Y018579D02*
X034574Y018579D01*
X034919Y017628D02*
X032124Y017628D01*
X031966Y017470D02*
X035043Y017470D01*
X035201Y017311D02*
X031807Y017311D01*
X031649Y017153D02*
X035360Y017153D01*
X035518Y016994D02*
X031490Y016994D01*
X031332Y016836D02*
X035677Y016836D01*
X035835Y016677D02*
X031173Y016677D01*
X031015Y016519D02*
X035994Y016519D01*
X036152Y016360D02*
X030856Y016360D01*
X029509Y016202D02*
X036249Y016202D01*
X036275Y016043D02*
X029484Y016043D01*
X029371Y015885D02*
X036387Y015885D01*
X036871Y015885D02*
X040769Y015885D01*
X040769Y016043D02*
X036984Y016043D01*
X037825Y016202D02*
X040769Y016202D01*
X040769Y016360D02*
X037983Y016360D01*
X038142Y016519D02*
X038378Y016519D01*
X038271Y016677D02*
X038174Y016677D01*
X038174Y016836D02*
X038249Y016836D01*
X038420Y017311D02*
X040769Y017311D01*
X040769Y017153D02*
X038783Y017153D01*
X038962Y016994D02*
X040769Y016994D01*
X040769Y016836D02*
X039009Y016836D01*
X038987Y016677D02*
X040769Y016677D01*
X040769Y016519D02*
X038880Y016519D01*
X038590Y017470D02*
X040168Y017470D01*
X039986Y017628D02*
X038773Y017628D01*
X038838Y017787D02*
X039920Y017787D01*
X039919Y017945D02*
X038839Y017945D01*
X038839Y018104D02*
X039919Y018104D01*
X039919Y018262D02*
X038839Y018262D01*
X038839Y018421D02*
X039919Y018421D01*
X039922Y018579D02*
X038836Y018579D01*
X038770Y018738D02*
X039988Y018738D01*
X040181Y018896D02*
X038577Y018896D01*
X038181Y018896D02*
X036835Y018896D01*
X036677Y019055D02*
X040769Y019055D01*
X040769Y019213D02*
X036518Y019213D01*
X036360Y019372D02*
X040769Y019372D01*
X040769Y019530D02*
X036201Y019530D01*
X036994Y018738D02*
X037988Y018738D01*
X037922Y018579D02*
X037152Y018579D01*
X037311Y018421D02*
X037919Y018421D01*
X037919Y018262D02*
X037469Y018262D01*
X037628Y018104D02*
X037919Y018104D01*
X037919Y017945D02*
X037786Y017945D01*
X040590Y017470D02*
X040769Y017470D01*
X040769Y018896D02*
X040577Y018896D01*
X039899Y021274D02*
X038839Y021274D01*
X038839Y021432D02*
X039899Y021432D01*
X039581Y021591D02*
X038831Y021591D01*
X038761Y021749D02*
X039418Y021749D01*
X038964Y022859D02*
X038652Y022859D01*
X038799Y023017D02*
X038870Y023017D01*
X038107Y022859D02*
X037537Y022859D01*
X037631Y023017D02*
X037959Y023017D01*
X037959Y023176D02*
X036899Y023176D01*
X036899Y023200D02*
X037659Y023200D01*
X037659Y023218D01*
X037647Y023292D01*
X037624Y023364D01*
X037590Y023432D01*
X037545Y023493D01*
X037492Y023546D01*
X037431Y023591D01*
X037363Y023625D01*
X037292Y023648D01*
X037217Y023660D01*
X036899Y023660D01*
X036899Y023200D01*
X036899Y023334D02*
X036859Y023334D01*
X036859Y023493D02*
X036899Y023493D01*
X036899Y023651D02*
X036859Y023651D01*
X036859Y023810D02*
X036899Y023810D01*
X036899Y023968D02*
X036859Y023968D01*
X036859Y024127D02*
X036899Y024127D01*
X037274Y023651D02*
X038236Y023651D01*
X038098Y023493D02*
X037545Y023493D01*
X037634Y023334D02*
X037959Y023334D01*
X038078Y023810D02*
X037486Y023810D01*
X037610Y023968D02*
X037919Y023968D01*
X037761Y024127D02*
X037657Y024127D01*
X036899Y023017D02*
X036859Y023017D01*
X036859Y022859D02*
X036899Y022859D01*
X036859Y022700D02*
X036541Y022700D01*
X036222Y022859D02*
X036152Y022859D01*
X036161Y023493D02*
X036213Y023493D01*
X030959Y019055D02*
X030926Y019055D01*
X029199Y015726D02*
X033831Y015726D01*
X033843Y015733D02*
X033585Y015584D01*
X033375Y015374D01*
X033226Y015116D01*
X033149Y014829D01*
X033149Y014531D01*
X033226Y014244D01*
X033375Y013986D01*
X033585Y013776D01*
X033843Y013627D01*
X034130Y013550D01*
X034428Y013550D01*
X034715Y013627D01*
X034973Y013776D01*
X035183Y013986D01*
X035332Y014244D01*
X035409Y014531D01*
X035409Y014829D01*
X035332Y015116D01*
X035183Y015374D01*
X034973Y015584D01*
X034715Y015733D01*
X034428Y015810D01*
X034130Y015810D01*
X033843Y015733D01*
X033569Y015568D02*
X029193Y015568D01*
X029127Y015409D02*
X033410Y015409D01*
X033304Y015251D02*
X028953Y015251D01*
X028905Y015153D02*
X028829Y015177D01*
X028749Y015190D01*
X028409Y015190D01*
X028409Y014710D01*
X029219Y014710D01*
X029219Y014720D01*
X029207Y014799D01*
X029182Y014876D01*
X029145Y014947D01*
X029098Y015012D01*
X029041Y015069D01*
X028976Y015116D01*
X028905Y015153D01*
X029010Y015092D02*
X033220Y015092D01*
X033177Y014934D02*
X029152Y014934D01*
X029210Y014775D02*
X033149Y014775D01*
X033149Y014617D02*
X029215Y014617D01*
X029168Y014458D02*
X033169Y014458D01*
X033211Y014300D02*
X029057Y014300D01*
X029215Y014141D02*
X033286Y014141D01*
X033379Y013983D02*
X029374Y013983D01*
X029464Y013824D02*
X033537Y013824D01*
X033776Y013666D02*
X029464Y013666D01*
X029464Y013507D02*
X036909Y013507D01*
X036751Y013349D02*
X029464Y013349D01*
X029464Y013190D02*
X036592Y013190D01*
X036434Y013032D02*
X029464Y013032D01*
X029464Y012873D02*
X036275Y012873D01*
X036117Y012715D02*
X029464Y012715D01*
X029464Y012556D02*
X035958Y012556D01*
X035800Y012398D02*
X029464Y012398D01*
X029464Y012239D02*
X035641Y012239D01*
X035483Y012081D02*
X029464Y012081D01*
X029464Y011922D02*
X035324Y011922D01*
X035166Y011764D02*
X029464Y011764D01*
X029464Y011605D02*
X035007Y011605D01*
X034849Y011447D02*
X029464Y011447D01*
X029409Y011288D02*
X034690Y011288D01*
X034532Y011130D02*
X029251Y011130D01*
X029092Y010971D02*
X034373Y010971D01*
X034215Y010813D02*
X028934Y010813D01*
X028775Y010654D02*
X034056Y010654D01*
X034614Y010618D02*
X036584Y012588D01*
X036584Y012151D01*
X037050Y011685D01*
X037708Y011685D01*
X038174Y012151D01*
X038174Y012809D01*
X037708Y013275D01*
X037271Y013275D01*
X038716Y014720D01*
X039055Y014720D01*
X039057Y014715D01*
X039164Y014608D01*
X039304Y014550D01*
X039455Y014550D01*
X039564Y014595D01*
X039564Y014342D01*
X040042Y013865D01*
X040299Y013865D01*
X040299Y014600D01*
X040459Y014600D01*
X040459Y013865D01*
X040717Y013865D01*
X040769Y013917D01*
X040769Y004160D01*
X031156Y004160D01*
X032173Y005177D01*
X032179Y005175D01*
X032330Y005175D01*
X032469Y005233D01*
X032576Y005340D01*
X032634Y005479D01*
X032634Y005503D01*
X032667Y005470D01*
X035716Y005470D01*
X035839Y005593D01*
X037852Y007606D01*
X037779Y007333D01*
X037779Y007027D01*
X037858Y006732D01*
X038011Y006468D01*
X038227Y006252D01*
X038491Y006099D01*
X038786Y006020D01*
X039092Y006020D01*
X039387Y006099D01*
X039651Y006252D01*
X039867Y006468D01*
X040020Y006732D01*
X040099Y007027D01*
X040099Y007333D01*
X040020Y007628D01*
X039867Y007892D01*
X039651Y008108D01*
X039387Y008261D01*
X039092Y008340D01*
X038786Y008340D01*
X038513Y008267D01*
X038839Y008593D01*
X038839Y009606D01*
X038844Y009608D01*
X038951Y009715D01*
X039009Y009854D01*
X039009Y010006D01*
X038951Y010145D01*
X038844Y010252D01*
X038705Y010310D01*
X038554Y010310D01*
X038414Y010252D01*
X038307Y010145D01*
X038249Y010006D01*
X038249Y009854D01*
X038307Y009715D01*
X038414Y009608D01*
X038419Y009606D01*
X038419Y008767D01*
X036839Y007187D01*
X036839Y008017D01*
X036716Y008140D01*
X036589Y008267D01*
X036589Y009052D01*
X036617Y009064D01*
X036735Y009182D01*
X036799Y009336D01*
X036799Y010024D01*
X036735Y010178D01*
X036617Y010296D01*
X036463Y010360D01*
X036296Y010360D01*
X036141Y010296D01*
X036023Y010178D01*
X035959Y010024D01*
X035959Y009336D01*
X036023Y009182D01*
X036141Y009064D01*
X036169Y009052D01*
X036169Y008140D01*
X035969Y008140D01*
X035699Y007871D01*
X035699Y007489D01*
X035969Y007220D01*
X036350Y007220D01*
X036419Y007289D01*
X036419Y007142D01*
X036079Y006802D01*
X036079Y006871D01*
X035810Y007140D01*
X035429Y007140D01*
X035159Y006871D01*
X035159Y006632D01*
X034917Y006390D01*
X034900Y006390D01*
X034999Y006489D01*
X034999Y006871D01*
X034730Y007140D01*
X034714Y007140D01*
X034714Y007394D01*
X034889Y007220D01*
X035270Y007220D01*
X035539Y007489D01*
X035539Y007871D01*
X035270Y008140D01*
X035089Y008140D01*
X035089Y009116D01*
X035141Y009064D01*
X035296Y009000D01*
X035463Y009000D01*
X035617Y009064D01*
X035735Y009182D01*
X035799Y009336D01*
X035799Y010024D01*
X035735Y010178D01*
X035617Y010296D01*
X035463Y010360D01*
X035296Y010360D01*
X035141Y010296D01*
X035038Y010193D01*
X034966Y010265D01*
X034714Y010517D01*
X034614Y010618D01*
X034650Y010654D02*
X040769Y010654D01*
X040769Y010496D02*
X034736Y010496D01*
X034714Y010517D02*
X034714Y010517D01*
X034894Y010337D02*
X035240Y010337D01*
X035518Y010337D02*
X036240Y010337D01*
X036024Y010179D02*
X035735Y010179D01*
X035799Y010020D02*
X035959Y010020D01*
X035959Y009862D02*
X035799Y009862D01*
X035799Y009703D02*
X035959Y009703D01*
X035959Y009545D02*
X035799Y009545D01*
X035799Y009386D02*
X035959Y009386D01*
X036004Y009228D02*
X035754Y009228D01*
X035622Y009069D02*
X036136Y009069D01*
X036169Y008911D02*
X035089Y008911D01*
X035089Y009069D02*
X035136Y009069D01*
X035089Y008752D02*
X036169Y008752D01*
X036169Y008594D02*
X035089Y008594D01*
X035089Y008435D02*
X036169Y008435D01*
X036169Y008277D02*
X035089Y008277D01*
X035292Y008118D02*
X035947Y008118D01*
X035788Y007960D02*
X035450Y007960D01*
X035539Y007801D02*
X035699Y007801D01*
X035699Y007643D02*
X035539Y007643D01*
X035534Y007484D02*
X035705Y007484D01*
X035863Y007326D02*
X035375Y007326D01*
X035297Y007009D02*
X034861Y007009D01*
X034999Y006850D02*
X035159Y006850D01*
X035159Y006692D02*
X034999Y006692D01*
X034999Y006533D02*
X035060Y006533D01*
X034714Y007167D02*
X036419Y007167D01*
X036286Y007009D02*
X035941Y007009D01*
X036079Y006850D02*
X036127Y006850D01*
X036779Y006533D02*
X037973Y006533D01*
X037882Y006692D02*
X036938Y006692D01*
X037096Y006850D02*
X037827Y006850D01*
X037784Y007009D02*
X037255Y007009D01*
X037413Y007167D02*
X037779Y007167D01*
X037779Y007326D02*
X037572Y007326D01*
X037730Y007484D02*
X037820Y007484D01*
X037453Y007801D02*
X036839Y007801D01*
X036839Y007643D02*
X037295Y007643D01*
X037136Y007484D02*
X036839Y007484D01*
X036839Y007326D02*
X036978Y007326D01*
X036839Y007960D02*
X037612Y007960D01*
X037770Y008118D02*
X036738Y008118D01*
X036589Y008277D02*
X037929Y008277D01*
X038087Y008435D02*
X036589Y008435D01*
X036589Y008594D02*
X038246Y008594D01*
X038404Y008752D02*
X036589Y008752D01*
X036589Y008911D02*
X038419Y008911D01*
X038419Y009069D02*
X037622Y009069D01*
X037617Y009064D02*
X037735Y009182D01*
X037799Y009336D01*
X037799Y010024D01*
X037735Y010178D01*
X037617Y010296D01*
X037463Y010360D01*
X037296Y010360D01*
X037141Y010296D01*
X037023Y010178D01*
X036959Y010024D01*
X036959Y009336D01*
X037023Y009182D01*
X037141Y009064D01*
X037296Y009000D01*
X037463Y009000D01*
X037617Y009064D01*
X037754Y009228D02*
X038419Y009228D01*
X038419Y009386D02*
X037799Y009386D01*
X037799Y009545D02*
X038419Y009545D01*
X038319Y009703D02*
X037799Y009703D01*
X037799Y009862D02*
X038249Y009862D01*
X038255Y010020D02*
X037799Y010020D01*
X037735Y010179D02*
X038340Y010179D01*
X038918Y010179D02*
X040769Y010179D01*
X040769Y010337D02*
X037518Y010337D01*
X037240Y010337D02*
X036518Y010337D01*
X036735Y010179D02*
X037024Y010179D01*
X036959Y010020D02*
X036799Y010020D01*
X036799Y009862D02*
X036959Y009862D01*
X036959Y009703D02*
X036799Y009703D01*
X036799Y009545D02*
X036959Y009545D01*
X036959Y009386D02*
X036799Y009386D01*
X036754Y009228D02*
X037004Y009228D01*
X037136Y009069D02*
X036622Y009069D01*
X034966Y010265D02*
X034966Y010265D01*
X034809Y010813D02*
X040769Y010813D01*
X040769Y010971D02*
X034967Y010971D01*
X035126Y011130D02*
X040769Y011130D01*
X040769Y011288D02*
X035284Y011288D01*
X035443Y011447D02*
X040769Y011447D01*
X040769Y011605D02*
X035601Y011605D01*
X035760Y011764D02*
X036971Y011764D01*
X036813Y011922D02*
X035918Y011922D01*
X036077Y012081D02*
X036654Y012081D01*
X036584Y012239D02*
X036235Y012239D01*
X036394Y012398D02*
X036584Y012398D01*
X036584Y012556D02*
X036552Y012556D01*
X037345Y013349D02*
X040769Y013349D01*
X040769Y013507D02*
X037503Y013507D01*
X037662Y013666D02*
X040769Y013666D01*
X040769Y013824D02*
X037820Y013824D01*
X037979Y013983D02*
X039924Y013983D01*
X039766Y014141D02*
X038137Y014141D01*
X038296Y014300D02*
X039607Y014300D01*
X039564Y014458D02*
X038454Y014458D01*
X038613Y014617D02*
X039155Y014617D01*
X039162Y015251D02*
X037618Y015251D01*
X037777Y015092D02*
X038494Y015092D01*
X038336Y014934D02*
X037935Y014934D01*
X037952Y014775D02*
X038177Y014775D01*
X038019Y014617D02*
X037952Y014617D01*
X037385Y013983D02*
X035180Y013983D01*
X035273Y014141D02*
X037108Y014141D01*
X036950Y014300D02*
X035347Y014300D01*
X035390Y014458D02*
X036807Y014458D01*
X036807Y014617D02*
X035409Y014617D01*
X035409Y014775D02*
X036807Y014775D01*
X036823Y014934D02*
X035381Y014934D01*
X035339Y015092D02*
X036982Y015092D01*
X037140Y015251D02*
X035255Y015251D01*
X035148Y015409D02*
X039956Y015409D01*
X039797Y015251D02*
X039596Y015251D01*
X040299Y015251D02*
X040459Y015251D01*
X040459Y015409D02*
X040299Y015409D01*
X040299Y015092D02*
X040459Y015092D01*
X040459Y014934D02*
X040299Y014934D01*
X040299Y014775D02*
X040459Y014775D01*
X040459Y014458D02*
X040299Y014458D01*
X040299Y014300D02*
X040459Y014300D01*
X040459Y014141D02*
X040299Y014141D01*
X040299Y013983D02*
X040459Y013983D01*
X040769Y013190D02*
X037793Y013190D01*
X037952Y013032D02*
X040769Y013032D01*
X040769Y012873D02*
X038110Y012873D01*
X038174Y012715D02*
X040769Y012715D01*
X040769Y012556D02*
X038174Y012556D01*
X038174Y012398D02*
X040769Y012398D01*
X040769Y012239D02*
X038174Y012239D01*
X038104Y012081D02*
X040769Y012081D01*
X040769Y011922D02*
X037945Y011922D01*
X037787Y011764D02*
X040769Y011764D01*
X040769Y010020D02*
X039003Y010020D01*
X039009Y009862D02*
X040769Y009862D01*
X040769Y009703D02*
X038940Y009703D01*
X038839Y009545D02*
X040769Y009545D01*
X040769Y009386D02*
X038839Y009386D01*
X038839Y009228D02*
X040769Y009228D01*
X040769Y009069D02*
X038839Y009069D01*
X038839Y008911D02*
X040769Y008911D01*
X040769Y008752D02*
X038839Y008752D01*
X038839Y008594D02*
X040769Y008594D01*
X040769Y008435D02*
X038681Y008435D01*
X038549Y008277D02*
X038523Y008277D01*
X039329Y008277D02*
X040769Y008277D01*
X040769Y008118D02*
X039634Y008118D01*
X039800Y007960D02*
X040769Y007960D01*
X040769Y007801D02*
X039920Y007801D01*
X040012Y007643D02*
X040769Y007643D01*
X040769Y007484D02*
X040059Y007484D01*
X040099Y007326D02*
X040769Y007326D01*
X040769Y007167D02*
X040099Y007167D01*
X040094Y007009D02*
X040769Y007009D01*
X040769Y006850D02*
X040052Y006850D01*
X039997Y006692D02*
X040769Y006692D01*
X040769Y006533D02*
X039905Y006533D01*
X039774Y006375D02*
X040769Y006375D01*
X040769Y006216D02*
X039589Y006216D01*
X039232Y006058D02*
X040769Y006058D01*
X040769Y005899D02*
X036145Y005899D01*
X035987Y005741D02*
X040769Y005741D01*
X040769Y005582D02*
X035828Y005582D01*
X036304Y006058D02*
X038646Y006058D01*
X038289Y006216D02*
X036462Y006216D01*
X036621Y006375D02*
X038104Y006375D01*
X040769Y005424D02*
X032611Y005424D01*
X032502Y005265D02*
X040769Y005265D01*
X040769Y005107D02*
X032103Y005107D01*
X031944Y004948D02*
X040769Y004948D01*
X040769Y004790D02*
X031786Y004790D01*
X031627Y004631D02*
X040769Y004631D01*
X040769Y004473D02*
X031469Y004473D01*
X031310Y004314D02*
X040769Y004314D01*
X034783Y007326D02*
X034714Y007326D01*
X031336Y007801D02*
X031219Y007801D01*
X031178Y007960D02*
X031130Y007960D01*
X031169Y008118D02*
X030972Y008118D01*
X031169Y008277D02*
X026705Y008277D01*
X026546Y008435D02*
X031169Y008435D01*
X031169Y008594D02*
X026388Y008594D01*
X026229Y008752D02*
X028135Y008752D01*
X027977Y008911D02*
X026071Y008911D01*
X025912Y009069D02*
X027136Y009069D01*
X027004Y009228D02*
X025754Y009228D01*
X025595Y009386D02*
X026959Y009386D01*
X026959Y009545D02*
X025437Y009545D01*
X025278Y009703D02*
X026959Y009703D01*
X026959Y009862D02*
X025120Y009862D01*
X024961Y010020D02*
X026959Y010020D01*
X027024Y010179D02*
X024803Y010179D01*
X024644Y010337D02*
X027099Y010337D01*
X027099Y010496D02*
X024486Y010496D01*
X022959Y012239D02*
X026203Y012239D01*
X025990Y012398D02*
X023118Y012398D01*
X022484Y012556D02*
X022450Y012556D01*
X022326Y012398D02*
X017120Y012398D01*
X016925Y012239D02*
X022167Y012239D01*
X022108Y012556D02*
X018276Y012556D01*
X018435Y012715D02*
X021691Y012715D01*
X021488Y012873D02*
X018593Y012873D01*
X018752Y013032D02*
X021349Y013032D01*
X021257Y013190D02*
X018910Y013190D01*
X019069Y013349D02*
X021198Y013349D01*
X021156Y013507D02*
X019227Y013507D01*
X019386Y013666D02*
X021149Y013666D01*
X021149Y013824D02*
X019544Y013824D01*
X019703Y013983D02*
X021190Y013983D01*
X021241Y014141D02*
X019861Y014141D01*
X020020Y014300D02*
X021332Y014300D01*
X021459Y014458D02*
X020178Y014458D01*
X020337Y014617D02*
X021641Y014617D01*
X022000Y014775D02*
X020495Y014775D01*
X020020Y015092D02*
X016990Y015092D01*
X016987Y015095D02*
X016807Y015170D01*
X015952Y015170D01*
X015772Y015095D01*
X015634Y014958D01*
X015559Y014777D01*
X015559Y014583D01*
X015634Y014402D01*
X015772Y014265D01*
X015952Y014190D01*
X016807Y014190D01*
X016987Y014265D01*
X017125Y014402D01*
X017199Y014583D01*
X017199Y014777D01*
X017125Y014958D01*
X016987Y015095D01*
X017135Y014934D02*
X019862Y014934D01*
X019703Y014775D02*
X017199Y014775D01*
X017199Y014617D02*
X019545Y014617D01*
X019386Y014458D02*
X017148Y014458D01*
X017022Y014300D02*
X019228Y014300D01*
X019069Y014141D02*
X016928Y014141D01*
X016905Y014153D02*
X016829Y014177D01*
X016749Y014190D01*
X016409Y014190D01*
X016409Y013710D01*
X016349Y013710D01*
X016349Y013650D01*
X015539Y013650D01*
X015539Y013640D01*
X015552Y013561D01*
X015577Y013484D01*
X015613Y013413D01*
X015660Y013348D01*
X015717Y013291D01*
X015782Y013244D01*
X015853Y013207D01*
X015930Y013183D01*
X016009Y013170D01*
X016349Y013170D01*
X016349Y013650D01*
X016409Y013650D01*
X016409Y013170D01*
X016749Y013170D01*
X016829Y013183D01*
X016905Y013207D01*
X016976Y013244D01*
X017041Y013291D01*
X017098Y013348D01*
X017145Y013413D01*
X017182Y013484D01*
X017207Y013561D01*
X017219Y013640D01*
X017219Y013650D01*
X016409Y013650D01*
X016409Y013710D01*
X017219Y013710D01*
X017219Y013720D01*
X017207Y013799D01*
X017182Y013876D01*
X017145Y013947D01*
X017098Y014012D01*
X017041Y014069D01*
X016976Y014116D01*
X016905Y014153D01*
X017120Y013983D02*
X018911Y013983D01*
X018752Y013824D02*
X017199Y013824D01*
X017189Y013507D02*
X018435Y013507D01*
X018277Y013349D02*
X017099Y013349D01*
X016852Y013190D02*
X018118Y013190D01*
X017960Y013032D02*
X017051Y013032D01*
X016409Y013190D02*
X016349Y013190D01*
X016349Y013349D02*
X016409Y013349D01*
X016409Y013507D02*
X016349Y013507D01*
X016349Y013666D02*
X007209Y013666D01*
X007151Y013806D02*
X006895Y014062D01*
X006560Y014200D01*
X006198Y014200D01*
X005864Y014062D01*
X005608Y013806D01*
X005469Y013471D01*
X005469Y013109D01*
X005608Y012775D01*
X005864Y012519D01*
X006198Y012380D01*
X006560Y012380D01*
X006895Y012519D01*
X007151Y012775D01*
X007289Y013109D01*
X007289Y013471D01*
X007151Y013806D01*
X007132Y013824D02*
X015560Y013824D01*
X015552Y013799D02*
X015539Y013720D01*
X015539Y013710D01*
X016349Y013710D01*
X016349Y014190D01*
X016009Y014190D01*
X015930Y014177D01*
X015853Y014153D01*
X015782Y014116D01*
X015717Y014069D01*
X015660Y014012D01*
X015613Y013947D01*
X015577Y013876D01*
X015552Y013799D01*
X015639Y013983D02*
X006974Y013983D01*
X006703Y014141D02*
X015831Y014141D01*
X015737Y014300D02*
X014755Y014300D01*
X014682Y014226D02*
X014833Y014377D01*
X014914Y014574D01*
X014914Y014786D01*
X014833Y014983D01*
X014682Y015134D01*
X014486Y015215D01*
X014273Y015215D01*
X014076Y015134D01*
X013926Y014983D01*
X013844Y014786D01*
X013844Y014574D01*
X013926Y014377D01*
X014076Y014226D01*
X014273Y014145D01*
X014486Y014145D01*
X014682Y014226D01*
X014866Y014458D02*
X015611Y014458D01*
X015559Y014617D02*
X014914Y014617D01*
X014914Y014775D02*
X015559Y014775D01*
X015624Y014934D02*
X014853Y014934D01*
X014724Y015092D02*
X015768Y015092D01*
X016349Y014141D02*
X016409Y014141D01*
X016409Y013983D02*
X016349Y013983D01*
X016349Y013824D02*
X016409Y013824D01*
X016409Y013666D02*
X018594Y013666D01*
X020179Y015251D02*
X012844Y015251D01*
X013059Y015409D02*
X020337Y015409D01*
X020496Y015568D02*
X013130Y015568D01*
X013139Y015726D02*
X020654Y015726D01*
X020813Y015885D02*
X013092Y015885D01*
X012967Y016043D02*
X020971Y016043D01*
X021130Y016202D02*
X012155Y016202D01*
X011996Y016360D02*
X021288Y016360D01*
X021380Y016519D02*
X011838Y016519D01*
X011679Y016677D02*
X021464Y016677D01*
X020673Y017311D02*
X025749Y017311D01*
X025786Y017470D02*
X020755Y017470D01*
X020759Y017628D02*
X022285Y017628D01*
X022127Y017787D02*
X020685Y017787D01*
X020073Y017787D02*
X019731Y017787D01*
X019878Y017945D02*
X021968Y017945D01*
X021810Y018104D02*
X020082Y018104D01*
X020134Y018262D02*
X020175Y018262D01*
X020379Y018262D02*
X020379Y018262D01*
X020379Y018421D02*
X020379Y018421D01*
X020379Y018579D02*
X020379Y018579D01*
X020379Y018680D02*
X020379Y018680D01*
X020819Y018680D01*
X020379Y018680D01*
X019939Y018680D02*
X019939Y018640D01*
X019830Y018685D01*
X019679Y018685D01*
X019539Y018627D01*
X019432Y018520D01*
X019430Y018515D01*
X014966Y018515D01*
X014476Y019005D01*
X014617Y019064D01*
X014658Y019105D01*
X014919Y018843D01*
X015042Y018720D01*
X018591Y018720D01*
X018966Y019095D01*
X019027Y019156D01*
X019044Y019133D01*
X019093Y019084D01*
X019149Y019044D01*
X019210Y019012D01*
X019276Y018991D01*
X019345Y018980D01*
X019379Y018980D01*
X019379Y019680D01*
X019379Y019680D01*
X019379Y020380D01*
X019345Y020380D01*
X019276Y020369D01*
X019210Y020348D01*
X019149Y020316D01*
X019093Y020276D01*
X019089Y020272D01*
X019089Y021058D01*
X019164Y020983D01*
X019304Y020925D01*
X019455Y020925D01*
X019594Y020983D01*
X019624Y021013D01*
X020169Y020468D01*
X020283Y020355D01*
X020141Y020296D01*
X020023Y020178D01*
X019959Y020024D01*
X019959Y019336D01*
X020023Y019182D01*
X020141Y019064D01*
X019939Y018862D01*
X019939Y018680D01*
X019939Y018738D02*
X018609Y018738D01*
X018767Y018896D02*
X019973Y018896D01*
X020131Y019055D02*
X019625Y019055D01*
X019610Y019044D02*
X019666Y019084D01*
X019715Y019133D01*
X019755Y019189D01*
X019787Y019251D01*
X019808Y019317D01*
X019819Y019385D01*
X019819Y019680D01*
X019819Y019975D01*
X019808Y020043D01*
X019787Y020109D01*
X019755Y020171D01*
X019715Y020227D01*
X019666Y020276D01*
X019610Y020316D01*
X019548Y020348D01*
X019482Y020369D01*
X019414Y020380D01*
X019379Y020380D01*
X019379Y019680D01*
X019379Y019680D01*
X019379Y018980D01*
X019414Y018980D01*
X019482Y018991D01*
X019548Y019012D01*
X019610Y019044D01*
X019768Y019213D02*
X020010Y019213D01*
X019959Y019372D02*
X019817Y019372D01*
X019819Y019530D02*
X019959Y019530D01*
X019959Y019689D02*
X019819Y019689D01*
X019819Y019680D02*
X019379Y019680D01*
X019379Y019680D01*
X019819Y019680D01*
X019819Y019847D02*
X019959Y019847D01*
X019959Y020006D02*
X019814Y020006D01*
X019759Y020164D02*
X020017Y020164D01*
X020205Y020323D02*
X019598Y020323D01*
X019379Y020323D02*
X019379Y020323D01*
X019379Y020164D02*
X019379Y020164D01*
X019379Y020006D02*
X019379Y020006D01*
X019379Y019847D02*
X019379Y019847D01*
X019379Y019689D02*
X019379Y019689D01*
X019379Y019530D02*
X019379Y019530D01*
X019379Y019372D02*
X019379Y019372D01*
X019379Y019213D02*
X019379Y019213D01*
X019379Y019055D02*
X019379Y019055D01*
X019134Y019055D02*
X018926Y019055D01*
X019491Y018579D02*
X014902Y018579D01*
X015025Y018738D02*
X014744Y018738D01*
X014866Y018896D02*
X014585Y018896D01*
X014594Y019055D02*
X014708Y019055D01*
X014826Y019530D02*
X014959Y019530D01*
X014959Y019689D02*
X014799Y019689D01*
X014799Y019847D02*
X014959Y019847D01*
X014959Y020006D02*
X014799Y020006D01*
X014741Y020164D02*
X015017Y020164D01*
X015169Y020323D02*
X014553Y020323D01*
X014205Y020323D02*
X013909Y020323D01*
X013750Y020481D02*
X015169Y020481D01*
X015169Y020640D02*
X013592Y020640D01*
X013553Y021260D02*
X013205Y021260D01*
X012959Y021506D01*
X012959Y021854D01*
X013205Y022100D01*
X013553Y022100D01*
X013799Y021854D01*
X013799Y021506D01*
X013553Y021260D01*
X013567Y021274D02*
X015169Y021274D01*
X015169Y021432D02*
X013725Y021432D01*
X013799Y021591D02*
X015169Y021591D01*
X015169Y021749D02*
X013799Y021749D01*
X013746Y021908D02*
X015169Y021908D01*
X015169Y022066D02*
X013587Y022066D01*
X013553Y022260D02*
X013205Y022260D01*
X012959Y022506D01*
X012959Y022854D01*
X013205Y023100D01*
X013553Y023100D01*
X013799Y022854D01*
X013799Y022506D01*
X013553Y022260D01*
X013676Y022383D02*
X015169Y022383D01*
X015169Y022225D02*
X011096Y022225D01*
X011254Y022383D02*
X013082Y022383D01*
X012959Y022542D02*
X011413Y022542D01*
X011571Y022700D02*
X012959Y022700D01*
X012964Y022859D02*
X011730Y022859D01*
X011888Y023017D02*
X013122Y023017D01*
X013636Y023017D02*
X015169Y023017D01*
X015169Y022859D02*
X013795Y022859D01*
X013799Y022700D02*
X015169Y022700D01*
X015169Y022542D02*
X013799Y022542D01*
X013171Y022066D02*
X010937Y022066D01*
X011042Y020640D02*
X008592Y020640D01*
X008433Y020798D02*
X015169Y020798D01*
X015169Y020957D02*
X008275Y020957D01*
X008116Y021115D02*
X015169Y021115D01*
X015589Y021115D02*
X018669Y021115D01*
X018669Y020957D02*
X015589Y020957D01*
X015589Y020798D02*
X018669Y020798D01*
X018669Y020640D02*
X015589Y020640D01*
X015589Y020481D02*
X018669Y020481D01*
X018669Y020323D02*
X018598Y020323D01*
X018610Y020316D02*
X018548Y020348D01*
X018482Y020369D01*
X018414Y020380D01*
X018379Y020380D01*
X018345Y020380D01*
X018276Y020369D01*
X018210Y020348D01*
X018149Y020316D01*
X018093Y020276D01*
X018044Y020227D01*
X018003Y020171D01*
X017971Y020109D01*
X017950Y020043D01*
X017939Y019975D01*
X017939Y019680D01*
X017939Y019385D01*
X017950Y019317D01*
X017971Y019251D01*
X018003Y019189D01*
X018039Y019140D01*
X017693Y019140D01*
X017735Y019182D01*
X017799Y019336D01*
X017799Y020024D01*
X017735Y020178D01*
X017617Y020296D01*
X017463Y020360D01*
X017296Y020360D01*
X017141Y020296D01*
X017023Y020178D01*
X016959Y020024D01*
X016959Y019336D01*
X017023Y019182D01*
X017065Y019140D01*
X016693Y019140D01*
X016735Y019182D01*
X016799Y019336D01*
X016799Y020024D01*
X016735Y020178D01*
X016617Y020296D01*
X016463Y020360D01*
X016296Y020360D01*
X016141Y020296D01*
X016023Y020178D01*
X015959Y020024D01*
X015959Y019336D01*
X016023Y019182D01*
X016065Y019140D01*
X015693Y019140D01*
X015735Y019182D01*
X015799Y019336D01*
X015799Y020024D01*
X015735Y020178D01*
X015617Y020296D01*
X015589Y020308D01*
X015589Y024892D01*
X015476Y025005D01*
X015617Y025064D01*
X015658Y025105D01*
X017501Y023261D01*
X017499Y023256D01*
X017499Y023104D01*
X017557Y022965D01*
X017632Y022890D01*
X017263Y022890D01*
X017053Y023100D01*
X016705Y023100D01*
X016629Y023024D01*
X016553Y023100D01*
X016205Y023100D01*
X015959Y022854D01*
X015959Y022506D01*
X016205Y022260D01*
X016553Y022260D01*
X016629Y022336D01*
X016705Y022260D01*
X017053Y022260D01*
X017263Y022470D01*
X017966Y022470D01*
X019841Y024345D01*
X019964Y024468D01*
X019964Y024481D01*
X019969Y024483D01*
X020076Y024590D01*
X020134Y024729D01*
X020134Y024881D01*
X020076Y025020D01*
X019969Y025127D01*
X019830Y025185D01*
X019736Y025185D01*
X019799Y025336D01*
X019799Y026024D01*
X019735Y026178D01*
X019617Y026296D01*
X019463Y026360D01*
X019296Y026360D01*
X019141Y026296D01*
X019023Y026178D01*
X018959Y026024D01*
X018959Y025336D01*
X019023Y025182D01*
X019141Y025064D01*
X019296Y025000D01*
X019424Y025000D01*
X019374Y024881D01*
X019374Y024729D01*
X019432Y024590D01*
X019462Y024560D01*
X018229Y023327D01*
X018201Y023395D01*
X018094Y023502D01*
X017955Y023560D01*
X017804Y023560D01*
X017798Y023558D01*
X016356Y025000D01*
X016463Y025000D01*
X016617Y025064D01*
X016735Y025182D01*
X016799Y025336D01*
X016799Y026024D01*
X016735Y026178D01*
X016617Y026296D01*
X016463Y026360D01*
X016296Y026360D01*
X016141Y026296D01*
X016023Y026178D01*
X015959Y026024D01*
X015959Y025397D01*
X015799Y025557D01*
X015799Y026024D01*
X015735Y026178D01*
X015617Y026296D01*
X015463Y026360D01*
X015296Y026360D01*
X015141Y026296D01*
X015089Y026244D01*
X015089Y026468D01*
X016154Y027533D01*
X016182Y027465D01*
X016289Y027358D01*
X016429Y027300D01*
X016439Y027300D01*
X016439Y027180D01*
X016879Y027180D01*
X016439Y027180D01*
X016439Y026998D01*
X016697Y026740D01*
X016879Y026740D01*
X016879Y027180D01*
X016879Y027180D01*
X016879Y027180D01*
X016879Y026740D01*
X017061Y026740D01*
X017319Y026998D01*
X017319Y027180D01*
X017319Y027362D01*
X017061Y027620D01*
X016884Y027620D01*
X016884Y027756D01*
X016882Y027761D01*
X017374Y028253D01*
X017374Y028104D01*
X017432Y027965D01*
X017539Y027858D01*
X017679Y027800D01*
X017830Y027800D01*
X017835Y027802D01*
X017876Y027761D01*
X017874Y027756D01*
X017874Y027604D01*
X017876Y027600D01*
X017705Y027600D01*
X017459Y027354D01*
X017459Y027006D01*
X017705Y026760D01*
X018053Y026760D01*
X018299Y027006D01*
X018299Y027300D01*
X018330Y027300D01*
X018469Y027358D01*
X018576Y027465D01*
X018634Y027604D01*
X018634Y027756D01*
X018576Y027895D01*
X018469Y028002D01*
X018330Y028060D01*
X018179Y028060D01*
X018173Y028058D01*
X018132Y028099D01*
X018134Y028104D01*
X018134Y028256D01*
X018076Y028395D01*
X017969Y028502D01*
X017830Y028560D01*
X017681Y028560D01*
X018341Y029220D01*
X019036Y029220D01*
X018999Y029131D01*
X018999Y028979D01*
X019057Y028840D01*
X019164Y028733D01*
X019169Y028731D01*
X019169Y028468D01*
X020054Y027583D01*
X020013Y027600D01*
X019846Y027600D01*
X019691Y027536D01*
X019573Y027418D01*
X019509Y027264D01*
X019509Y027096D01*
X019573Y026942D01*
X019691Y026824D01*
X019846Y026760D01*
X020013Y026760D01*
X020167Y026824D01*
X020285Y026942D01*
X020349Y027096D01*
X020349Y027264D01*
X020332Y027305D01*
X021270Y026367D01*
X021210Y026348D01*
X021149Y026316D01*
X021093Y026276D01*
X021044Y026227D01*
X021003Y026171D01*
X020971Y026109D01*
X020950Y026043D01*
X020939Y025975D01*
X020939Y025680D01*
X020939Y025385D01*
X020950Y025317D01*
X020971Y025251D01*
X021003Y025189D01*
X021044Y025133D01*
X021093Y025084D01*
X021149Y025044D01*
X021210Y025012D01*
X021276Y024991D01*
X021345Y024980D01*
X021379Y024980D01*
X021379Y025680D01*
X020939Y025680D01*
X021379Y025680D01*
X021379Y025680D01*
X021379Y026258D01*
X021379Y026258D01*
X021379Y025680D01*
X021379Y025680D01*
X021379Y025680D01*
X021379Y024980D01*
X021414Y024980D01*
X021482Y024991D01*
X021548Y025012D01*
X021610Y025044D01*
X021666Y025084D01*
X021669Y025088D01*
X021669Y023254D01*
X021664Y023252D01*
X021557Y023145D01*
X021499Y023006D01*
X021499Y022854D01*
X021557Y022715D01*
X021664Y022608D01*
X021804Y022550D01*
X021955Y022550D01*
X022094Y022608D01*
X022201Y022715D01*
X022259Y022854D01*
X022259Y023006D01*
X022201Y023145D01*
X022094Y023252D01*
X022089Y023254D01*
X022089Y025116D01*
X022141Y025064D01*
X022296Y025000D01*
X022463Y025000D01*
X022617Y025064D01*
X022735Y025182D01*
X022799Y025336D01*
X022799Y025803D01*
X022959Y025963D01*
X022959Y025336D01*
X023023Y025182D01*
X023141Y025064D01*
X023296Y025000D01*
X023463Y025000D01*
X023617Y025064D01*
X023735Y025182D01*
X023799Y025336D01*
X023799Y025803D01*
X023959Y025963D01*
X023959Y025336D01*
X024023Y025182D01*
X024141Y025064D01*
X024296Y025000D01*
X024463Y025000D01*
X024617Y025064D01*
X024735Y025182D01*
X024799Y025336D01*
X024799Y025803D01*
X024959Y025963D01*
X024959Y025336D01*
X025023Y025182D01*
X025141Y025064D01*
X025296Y025000D01*
X025463Y025000D01*
X025617Y025064D01*
X025735Y025182D01*
X025799Y025336D01*
X025799Y026024D01*
X025735Y026178D01*
X025617Y026296D01*
X025463Y026360D01*
X025356Y026360D01*
X025716Y026720D01*
X029247Y026720D01*
X028720Y026193D01*
X028617Y026296D01*
X028463Y026360D01*
X028296Y026360D01*
X028141Y026296D01*
X028023Y026178D01*
X027959Y026024D01*
X027959Y025336D01*
X028023Y025182D01*
X028066Y025139D01*
X027955Y025185D01*
X027804Y025185D01*
X027692Y025139D01*
X027735Y025182D01*
X027799Y025336D01*
X027799Y026024D01*
X027735Y026178D01*
X027617Y026296D01*
X027463Y026360D01*
X027296Y026360D01*
X027141Y026296D01*
X027023Y026178D01*
X026959Y026024D01*
X026959Y025336D01*
X027023Y025182D01*
X027141Y025064D01*
X027296Y025000D01*
X027463Y025000D01*
X027589Y025052D01*
X027557Y025020D01*
X027499Y024881D01*
X027499Y024729D01*
X027501Y024724D01*
X025167Y022390D01*
X020183Y022390D01*
X020299Y022506D01*
X020299Y022854D01*
X020053Y023100D01*
X019705Y023100D01*
X019459Y022854D01*
X019459Y022506D01*
X019621Y022344D01*
X019544Y022267D01*
X018669Y021392D01*
X018669Y020272D01*
X018666Y020276D01*
X018610Y020316D01*
X018379Y020323D02*
X018379Y020323D01*
X018379Y020380D02*
X018379Y019680D01*
X017939Y019680D01*
X018379Y019680D01*
X018379Y019680D01*
X018379Y020380D01*
X018379Y020164D02*
X018379Y020164D01*
X018379Y020006D02*
X018379Y020006D01*
X018379Y019847D02*
X018379Y019847D01*
X018379Y019689D02*
X018379Y019689D01*
X018379Y019680D02*
X018379Y019680D01*
X017939Y019689D02*
X017799Y019689D01*
X017799Y019847D02*
X017939Y019847D01*
X017944Y020006D02*
X017799Y020006D01*
X017741Y020164D02*
X017999Y020164D01*
X018161Y020323D02*
X017553Y020323D01*
X017205Y020323D02*
X016553Y020323D01*
X016741Y020164D02*
X017017Y020164D01*
X016959Y020006D02*
X016799Y020006D01*
X016799Y019847D02*
X016959Y019847D01*
X016959Y019689D02*
X016799Y019689D01*
X016799Y019530D02*
X016959Y019530D01*
X016959Y019372D02*
X016799Y019372D01*
X016748Y019213D02*
X017010Y019213D01*
X017748Y019213D02*
X017991Y019213D01*
X017941Y019372D02*
X017799Y019372D01*
X017799Y019530D02*
X017939Y019530D01*
X019089Y020323D02*
X019161Y020323D01*
X019089Y020481D02*
X020156Y020481D01*
X019998Y020640D02*
X019089Y020640D01*
X019089Y020798D02*
X019839Y020798D01*
X019681Y020957D02*
X019531Y020957D01*
X019227Y020957D02*
X019089Y020957D01*
X018669Y021274D02*
X017067Y021274D01*
X017053Y021260D02*
X017299Y021506D01*
X017299Y021854D01*
X017053Y022100D01*
X016705Y022100D01*
X016629Y022024D01*
X016553Y022100D01*
X016205Y022100D01*
X015959Y021854D01*
X015959Y021506D01*
X016205Y021260D01*
X016553Y021260D01*
X016629Y021336D01*
X016705Y021260D01*
X017053Y021260D01*
X017225Y021432D02*
X018709Y021432D01*
X018868Y021591D02*
X017299Y021591D01*
X017299Y021749D02*
X019026Y021749D01*
X019185Y021908D02*
X017246Y021908D01*
X017087Y022066D02*
X019343Y022066D01*
X019502Y022225D02*
X015589Y022225D01*
X015589Y022383D02*
X016082Y022383D01*
X015959Y022542D02*
X015589Y022542D01*
X015589Y022700D02*
X015959Y022700D01*
X015964Y022859D02*
X015589Y022859D01*
X015589Y023017D02*
X016122Y023017D01*
X015589Y023176D02*
X017499Y023176D01*
X017535Y023017D02*
X017136Y023017D01*
X017428Y023334D02*
X015589Y023334D01*
X015589Y023493D02*
X017270Y023493D01*
X017111Y023651D02*
X015589Y023651D01*
X015589Y023810D02*
X016953Y023810D01*
X016794Y023968D02*
X015589Y023968D01*
X015589Y024127D02*
X016636Y024127D01*
X016477Y024285D02*
X015589Y024285D01*
X015589Y024444D02*
X016319Y024444D01*
X016160Y024602D02*
X015589Y024602D01*
X015589Y024761D02*
X016002Y024761D01*
X015843Y024919D02*
X015562Y024919D01*
X015631Y025078D02*
X015685Y025078D01*
X015803Y025553D02*
X015959Y025553D01*
X015959Y025712D02*
X015799Y025712D01*
X015799Y025870D02*
X015959Y025870D01*
X015961Y026029D02*
X015797Y026029D01*
X015726Y026187D02*
X016032Y026187D01*
X016261Y026346D02*
X015498Y026346D01*
X015261Y026346D02*
X015089Y026346D01*
X015125Y026504D02*
X021133Y026504D01*
X021206Y026346D02*
X020498Y026346D01*
X020463Y026360D02*
X020296Y026360D01*
X020141Y026296D01*
X020023Y026178D01*
X019959Y026024D01*
X019959Y025336D01*
X020023Y025182D01*
X020141Y025064D01*
X020296Y025000D01*
X020463Y025000D01*
X020617Y025064D01*
X020735Y025182D01*
X020799Y025336D01*
X020799Y026024D01*
X020735Y026178D01*
X020617Y026296D01*
X020463Y026360D01*
X020261Y026346D02*
X019498Y026346D01*
X019261Y026346D02*
X018498Y026346D01*
X018463Y026360D02*
X018296Y026360D01*
X018141Y026296D01*
X018023Y026178D01*
X017959Y026024D01*
X017959Y025336D01*
X018023Y025182D01*
X018141Y025064D01*
X018296Y025000D01*
X018463Y025000D01*
X018617Y025064D01*
X018735Y025182D01*
X018799Y025336D01*
X018799Y026024D01*
X018735Y026178D01*
X018617Y026296D01*
X018463Y026360D01*
X018261Y026346D02*
X017498Y026346D01*
X017463Y026360D02*
X017296Y026360D01*
X017141Y026296D01*
X017023Y026178D01*
X016959Y026024D01*
X016959Y025336D01*
X017023Y025182D01*
X017141Y025064D01*
X017296Y025000D01*
X017463Y025000D01*
X017617Y025064D01*
X017735Y025182D01*
X017799Y025336D01*
X017799Y026024D01*
X017735Y026178D01*
X017617Y026296D01*
X017463Y026360D01*
X017261Y026346D02*
X016498Y026346D01*
X016726Y026187D02*
X017032Y026187D01*
X016961Y026029D02*
X016797Y026029D01*
X016799Y025870D02*
X016959Y025870D01*
X016959Y025712D02*
X016799Y025712D01*
X016799Y025553D02*
X016959Y025553D01*
X016959Y025395D02*
X016799Y025395D01*
X016758Y025236D02*
X017001Y025236D01*
X017128Y025078D02*
X016631Y025078D01*
X016437Y024919D02*
X019390Y024919D01*
X019374Y024761D02*
X016596Y024761D01*
X016754Y024602D02*
X019427Y024602D01*
X019346Y024444D02*
X016913Y024444D01*
X017071Y024285D02*
X019187Y024285D01*
X019029Y024127D02*
X017230Y024127D01*
X017388Y023968D02*
X018870Y023968D01*
X018712Y023810D02*
X017547Y023810D01*
X017705Y023651D02*
X018553Y023651D01*
X018395Y023493D02*
X018104Y023493D01*
X018227Y023334D02*
X018236Y023334D01*
X018513Y023017D02*
X019622Y023017D01*
X019464Y022859D02*
X018355Y022859D01*
X018196Y022700D02*
X019459Y022700D01*
X019459Y022542D02*
X018038Y022542D01*
X017176Y022383D02*
X019582Y022383D01*
X020299Y022542D02*
X025319Y022542D01*
X025477Y022700D02*
X022187Y022700D01*
X022259Y022859D02*
X025636Y022859D01*
X025794Y023017D02*
X022254Y023017D01*
X022171Y023176D02*
X025953Y023176D01*
X026111Y023334D02*
X022089Y023334D01*
X022089Y023493D02*
X026270Y023493D01*
X026428Y023651D02*
X022089Y023651D01*
X022089Y023810D02*
X026587Y023810D01*
X026745Y023968D02*
X022089Y023968D01*
X022089Y024127D02*
X026904Y024127D01*
X027062Y024285D02*
X022089Y024285D01*
X022089Y024444D02*
X027221Y024444D01*
X027379Y024602D02*
X022089Y024602D01*
X022089Y024761D02*
X027499Y024761D01*
X027515Y024919D02*
X022089Y024919D01*
X022089Y025078D02*
X022128Y025078D01*
X021669Y025078D02*
X021656Y025078D01*
X021669Y024919D02*
X020118Y024919D01*
X020128Y025078D02*
X020019Y025078D01*
X020001Y025236D02*
X019758Y025236D01*
X019799Y025395D02*
X019959Y025395D01*
X019959Y025553D02*
X019799Y025553D01*
X019799Y025712D02*
X019959Y025712D01*
X019959Y025870D02*
X019799Y025870D01*
X019797Y026029D02*
X019961Y026029D01*
X020032Y026187D02*
X019726Y026187D01*
X019698Y026821D02*
X018114Y026821D01*
X018273Y026980D02*
X019558Y026980D01*
X019509Y027138D02*
X018299Y027138D01*
X018299Y027297D02*
X019523Y027297D01*
X019610Y027455D02*
X018567Y027455D01*
X018634Y027614D02*
X020024Y027614D01*
X019865Y027772D02*
X018627Y027772D01*
X018541Y027931D02*
X019707Y027931D01*
X019548Y028089D02*
X018142Y028089D01*
X018134Y028248D02*
X019390Y028248D01*
X019231Y028406D02*
X018066Y028406D01*
X017844Y028723D02*
X019169Y028723D01*
X019169Y028565D02*
X017686Y028565D01*
X017374Y028248D02*
X017369Y028248D01*
X017381Y028089D02*
X017210Y028089D01*
X017052Y027931D02*
X017466Y027931D01*
X017865Y027772D02*
X016893Y027772D01*
X017068Y027614D02*
X017874Y027614D01*
X017560Y027455D02*
X017226Y027455D01*
X017319Y027297D02*
X017459Y027297D01*
X017459Y027138D02*
X017319Y027138D01*
X017319Y027180D02*
X016879Y027180D01*
X017319Y027180D01*
X017301Y026980D02*
X017486Y026980D01*
X017644Y026821D02*
X017142Y026821D01*
X016879Y026821D02*
X016879Y026821D01*
X016879Y026980D02*
X016879Y026980D01*
X016879Y027138D02*
X016879Y027138D01*
X016879Y027180D02*
X016879Y027180D01*
X016439Y027138D02*
X015759Y027138D01*
X015601Y026980D02*
X016457Y026980D01*
X016616Y026821D02*
X015442Y026821D01*
X015284Y026663D02*
X020975Y026663D01*
X020816Y026821D02*
X020160Y026821D01*
X020301Y026980D02*
X020658Y026980D01*
X020499Y027138D02*
X020349Y027138D01*
X020335Y027297D02*
X020341Y027297D01*
X020726Y026187D02*
X021015Y026187D01*
X020948Y026029D02*
X020797Y026029D01*
X020799Y025870D02*
X020939Y025870D01*
X020939Y025712D02*
X020799Y025712D01*
X020799Y025553D02*
X020939Y025553D01*
X020939Y025395D02*
X020799Y025395D01*
X020758Y025236D02*
X020979Y025236D01*
X021102Y025078D02*
X020631Y025078D01*
X020134Y024761D02*
X021669Y024761D01*
X021669Y024602D02*
X020081Y024602D01*
X019940Y024444D02*
X021669Y024444D01*
X021669Y024285D02*
X019781Y024285D01*
X019623Y024127D02*
X021669Y024127D01*
X021669Y023968D02*
X019464Y023968D01*
X019306Y023810D02*
X021669Y023810D01*
X021669Y023651D02*
X019147Y023651D01*
X018989Y023493D02*
X021669Y023493D01*
X021669Y023334D02*
X018830Y023334D01*
X018672Y023176D02*
X021587Y023176D01*
X021504Y023017D02*
X020136Y023017D01*
X020295Y022859D02*
X021499Y022859D01*
X021572Y022700D02*
X020299Y022700D01*
X020553Y020323D02*
X021205Y020323D01*
X021017Y020164D02*
X020741Y020164D01*
X020799Y020006D02*
X020959Y020006D01*
X020959Y019847D02*
X020799Y019847D01*
X020799Y019689D02*
X020959Y019689D01*
X020959Y019530D02*
X020799Y019530D01*
X020799Y019372D02*
X020959Y019372D01*
X021010Y019213D02*
X020748Y019213D01*
X020627Y019055D02*
X021160Y019055D01*
X021001Y018896D02*
X020785Y018896D01*
X020819Y018738D02*
X020959Y018738D01*
X020959Y018579D02*
X020819Y018579D01*
X020742Y018421D02*
X021045Y018421D01*
X021203Y018262D02*
X020583Y018262D01*
X021555Y018262D02*
X021651Y018262D01*
X020086Y017311D02*
X012961Y017311D01*
X012940Y017290D02*
X013069Y017419D01*
X013139Y017588D01*
X013139Y017771D01*
X013069Y017941D01*
X012940Y018070D01*
X012771Y018140D01*
X011988Y018140D01*
X011819Y018070D01*
X011689Y017941D01*
X011619Y017771D01*
X011619Y017588D01*
X011689Y017419D01*
X011819Y017290D01*
X011988Y017220D01*
X012771Y017220D01*
X012940Y017290D01*
X013090Y017470D02*
X014293Y017470D01*
X014134Y017628D02*
X013139Y017628D01*
X013133Y017787D02*
X013976Y017787D01*
X013817Y017945D02*
X013065Y017945D01*
X012859Y018104D02*
X013659Y018104D01*
X013500Y018262D02*
X010094Y018262D01*
X009936Y018421D02*
X013342Y018421D01*
X013183Y018579D02*
X009839Y018579D01*
X009839Y018738D02*
X013025Y018738D01*
X012866Y018896D02*
X009839Y018896D01*
X009839Y019055D02*
X010164Y019055D01*
X010010Y019213D02*
X009839Y019213D01*
X009839Y019372D02*
X009959Y019372D01*
X009959Y019530D02*
X009701Y019530D01*
X009543Y019689D02*
X009959Y019689D01*
X009959Y019847D02*
X009384Y019847D01*
X009226Y020006D02*
X009959Y020006D01*
X010017Y020164D02*
X009067Y020164D01*
X008909Y020323D02*
X010205Y020323D01*
X010553Y020323D02*
X010725Y020323D01*
X010883Y020481D02*
X008750Y020481D01*
X008473Y020164D02*
X008319Y020164D01*
X008319Y020180D02*
X007879Y020180D01*
X008319Y020180D01*
X008319Y020006D02*
X008632Y020006D01*
X008308Y019817D02*
X008287Y019751D01*
X008255Y019689D01*
X008083Y019530D02*
X009107Y019530D01*
X009266Y019372D02*
X002784Y019372D01*
X002784Y019530D02*
X004675Y019530D01*
X004649Y019544D02*
X004710Y019512D01*
X004776Y019491D01*
X004845Y019480D01*
X004879Y019480D01*
X004879Y020180D01*
X004439Y020180D01*
X004439Y019885D01*
X004450Y019817D01*
X004471Y019751D01*
X004503Y019689D01*
X004544Y019633D01*
X004593Y019584D01*
X004649Y019544D01*
X004503Y019689D02*
X002784Y019689D01*
X003359Y019847D02*
X003399Y019847D01*
X003399Y020006D02*
X003359Y020006D01*
X003399Y020164D02*
X004439Y020164D01*
X004439Y020180D02*
X004879Y020180D01*
X004879Y020180D01*
X004879Y020180D01*
X004879Y020880D01*
X004845Y020880D01*
X004776Y020869D01*
X004710Y020848D01*
X004649Y020816D01*
X004593Y020776D01*
X004544Y020727D01*
X004503Y020671D01*
X004471Y020609D01*
X004450Y020543D01*
X004439Y020475D01*
X004439Y020180D01*
X004439Y020323D02*
X004138Y020323D01*
X004147Y020292D02*
X004124Y020364D01*
X004090Y020432D01*
X004045Y020493D01*
X003992Y020546D01*
X003931Y020591D01*
X003863Y020625D01*
X003792Y020648D01*
X003717Y020660D01*
X003399Y020660D01*
X003399Y020200D01*
X004159Y020200D01*
X004159Y020218D01*
X004147Y020292D01*
X004054Y020481D02*
X004440Y020481D01*
X004487Y020640D02*
X003818Y020640D01*
X003948Y020798D02*
X004623Y020798D01*
X004879Y020798D02*
X004879Y020798D01*
X004879Y020880D02*
X004879Y020180D01*
X004879Y020180D01*
X004879Y019480D01*
X004914Y019480D01*
X004982Y019491D01*
X005048Y019512D01*
X005110Y019544D01*
X005166Y019584D01*
X005215Y019633D01*
X005255Y019689D01*
X005503Y019689D01*
X005544Y019633D01*
X005593Y019584D01*
X005649Y019544D01*
X005710Y019512D01*
X005776Y019491D01*
X005845Y019480D01*
X005879Y019480D01*
X005879Y020180D01*
X005439Y020180D01*
X005439Y019885D01*
X005450Y019817D01*
X005471Y019751D01*
X005503Y019689D01*
X005445Y019847D02*
X005313Y019847D01*
X005308Y019817D02*
X005319Y019885D01*
X005319Y020180D01*
X005319Y020475D01*
X005308Y020543D01*
X005287Y020609D01*
X005255Y020671D01*
X005215Y020727D01*
X005166Y020776D01*
X005110Y020816D01*
X005048Y020848D01*
X004982Y020869D01*
X004914Y020880D01*
X004879Y020880D01*
X004879Y020640D02*
X004879Y020640D01*
X004879Y020481D02*
X004879Y020481D01*
X004879Y020323D02*
X004879Y020323D01*
X004879Y020180D02*
X005319Y020180D01*
X004879Y020180D01*
X004879Y020180D01*
X004879Y020164D02*
X004879Y020164D01*
X004879Y020006D02*
X004879Y020006D01*
X004879Y019847D02*
X004879Y019847D01*
X004879Y019689D02*
X004879Y019689D01*
X004879Y019530D02*
X004879Y019530D01*
X005083Y019530D02*
X005675Y019530D01*
X005879Y019530D02*
X005879Y019530D01*
X005879Y019480D02*
X005914Y019480D01*
X005982Y019491D01*
X006048Y019512D01*
X006110Y019544D01*
X006166Y019584D01*
X006215Y019633D01*
X006255Y019689D01*
X006503Y019689D01*
X006544Y019633D01*
X006593Y019584D01*
X006649Y019544D01*
X006710Y019512D01*
X006776Y019491D01*
X006845Y019480D01*
X006879Y019480D01*
X006879Y020180D01*
X006439Y020180D01*
X006439Y019885D01*
X006450Y019817D01*
X006471Y019751D01*
X006503Y019689D01*
X006445Y019847D02*
X006313Y019847D01*
X006308Y019817D02*
X006319Y019885D01*
X006319Y020180D01*
X006319Y020475D01*
X006308Y020543D01*
X006287Y020609D01*
X006255Y020671D01*
X006215Y020727D01*
X006166Y020776D01*
X006110Y020816D01*
X006048Y020848D01*
X005982Y020869D01*
X005914Y020880D01*
X005879Y020880D01*
X005845Y020880D01*
X005776Y020869D01*
X005710Y020848D01*
X005649Y020816D01*
X005593Y020776D01*
X005544Y020727D01*
X005503Y020671D01*
X005471Y020609D01*
X005450Y020543D01*
X005439Y020475D01*
X005439Y020180D01*
X005879Y020180D01*
X005879Y020180D01*
X005879Y020180D01*
X005879Y020880D01*
X005879Y020180D01*
X005879Y020180D01*
X005879Y019480D01*
X005879Y019689D02*
X005879Y019689D01*
X005879Y019847D02*
X005879Y019847D01*
X005879Y020006D02*
X005879Y020006D01*
X005879Y020164D02*
X005879Y020164D01*
X005879Y020180D02*
X005879Y020180D01*
X006319Y020180D01*
X005879Y020180D01*
X005879Y020323D02*
X005879Y020323D01*
X005879Y020481D02*
X005879Y020481D01*
X005879Y020640D02*
X005879Y020640D01*
X005879Y020798D02*
X005879Y020798D01*
X005623Y020798D02*
X005135Y020798D01*
X005271Y020640D02*
X005487Y020640D01*
X005440Y020481D02*
X005318Y020481D01*
X005319Y020323D02*
X005439Y020323D01*
X005439Y020164D02*
X005319Y020164D01*
X005319Y020006D02*
X005439Y020006D01*
X005308Y019817D02*
X005287Y019751D01*
X005255Y019689D01*
X004445Y019847D02*
X004025Y019847D01*
X004127Y020006D02*
X004439Y020006D01*
X004084Y020957D02*
X007681Y020957D01*
X007623Y020798D02*
X007135Y020798D01*
X007110Y020816D02*
X007048Y020848D01*
X006982Y020869D01*
X006914Y020880D01*
X006879Y020880D01*
X006845Y020880D01*
X006776Y020869D01*
X006710Y020848D01*
X006649Y020816D01*
X006593Y020776D01*
X006544Y020727D01*
X006503Y020671D01*
X006471Y020609D01*
X006450Y020543D01*
X006439Y020475D01*
X006439Y020180D01*
X006879Y020180D01*
X006879Y020180D01*
X006879Y020180D01*
X006879Y020880D01*
X006879Y020180D01*
X006879Y020180D01*
X006879Y019480D01*
X006914Y019480D01*
X006982Y019491D01*
X007048Y019512D01*
X007110Y019544D01*
X007166Y019584D01*
X007215Y019633D01*
X007255Y019689D01*
X007503Y019689D01*
X007445Y019847D02*
X007313Y019847D01*
X007308Y019817D02*
X007319Y019885D01*
X007319Y020180D01*
X007319Y020475D01*
X007308Y020543D01*
X007287Y020609D01*
X007255Y020671D01*
X007215Y020727D01*
X007166Y020776D01*
X007110Y020816D01*
X006879Y020798D02*
X006879Y020798D01*
X006879Y020640D02*
X006879Y020640D01*
X006879Y020481D02*
X006879Y020481D01*
X006879Y020323D02*
X006879Y020323D01*
X006879Y020180D02*
X007319Y020180D01*
X006879Y020180D01*
X006879Y020180D01*
X006879Y020164D02*
X006879Y020164D01*
X006879Y020006D02*
X006879Y020006D01*
X006879Y019847D02*
X006879Y019847D01*
X006879Y019689D02*
X006879Y019689D01*
X006879Y019530D02*
X006879Y019530D01*
X006675Y019530D02*
X006083Y019530D01*
X006255Y019689D02*
X006287Y019751D01*
X006308Y019817D01*
X006319Y020006D02*
X006439Y020006D01*
X006439Y020164D02*
X006319Y020164D01*
X006319Y020323D02*
X006439Y020323D01*
X006440Y020481D02*
X006318Y020481D01*
X006271Y020640D02*
X006487Y020640D01*
X006623Y020798D02*
X006135Y020798D01*
X007271Y020640D02*
X007487Y020640D01*
X007440Y020481D02*
X007318Y020481D01*
X007319Y020323D02*
X007439Y020323D01*
X007439Y020164D02*
X007319Y020164D01*
X007319Y020006D02*
X007439Y020006D01*
X007308Y019817D02*
X007287Y019751D01*
X007255Y019689D01*
X007083Y019530D02*
X007675Y019530D01*
X007879Y019530D02*
X007879Y019530D01*
X007879Y019689D02*
X007879Y019689D01*
X007879Y019847D02*
X007879Y019847D01*
X007879Y020006D02*
X007879Y020006D01*
X007879Y020164D02*
X007879Y020164D01*
X007879Y020180D02*
X007879Y020180D01*
X007958Y021274D02*
X013192Y021274D01*
X013033Y021432D02*
X004073Y021432D01*
X003890Y021591D02*
X012959Y021591D01*
X012959Y021749D02*
X003841Y021749D01*
X004057Y021908D02*
X013013Y021908D01*
X012047Y023176D02*
X015169Y023176D01*
X015169Y023334D02*
X012205Y023334D01*
X012364Y023493D02*
X015169Y023493D01*
X015169Y023651D02*
X012522Y023651D01*
X012681Y023810D02*
X015169Y023810D01*
X015169Y023968D02*
X012839Y023968D01*
X012998Y024127D02*
X015169Y024127D01*
X015169Y024285D02*
X013156Y024285D01*
X013315Y024444D02*
X015169Y024444D01*
X015169Y024602D02*
X013473Y024602D01*
X013632Y024761D02*
X015127Y024761D01*
X014968Y024919D02*
X013790Y024919D01*
X013949Y025078D02*
X014128Y025078D01*
X014631Y025078D02*
X014810Y025078D01*
X014669Y026244D02*
X014617Y026296D01*
X014463Y026360D01*
X014296Y026360D01*
X014141Y026296D01*
X014038Y026193D01*
X013966Y026265D01*
X013591Y026640D01*
X011042Y026640D01*
X010919Y026517D01*
X010658Y026255D01*
X010617Y026296D01*
X010463Y026360D01*
X010296Y026360D01*
X010141Y026296D01*
X010023Y026178D01*
X009959Y026024D01*
X009959Y025336D01*
X010023Y025182D01*
X010141Y025064D01*
X010296Y025000D01*
X010402Y025000D01*
X010292Y024890D01*
X007417Y024890D01*
X006292Y023765D01*
X006231Y023704D01*
X006215Y023727D01*
X006166Y023776D01*
X006110Y023816D01*
X006048Y023848D01*
X005982Y023869D01*
X005914Y023880D01*
X005879Y023880D01*
X005845Y023880D01*
X005776Y023869D01*
X005710Y023848D01*
X005649Y023816D01*
X005593Y023776D01*
X005544Y023727D01*
X005503Y023671D01*
X005471Y023609D01*
X005450Y023543D01*
X005439Y023475D01*
X005439Y023180D01*
X005439Y022885D01*
X005450Y022817D01*
X005471Y022751D01*
X005503Y022689D01*
X005539Y022640D01*
X005193Y022640D01*
X005235Y022682D01*
X005299Y022836D01*
X005299Y023524D01*
X005235Y023678D01*
X005117Y023796D01*
X005097Y023804D01*
X005299Y024006D01*
X005299Y024354D01*
X005053Y024600D01*
X004705Y024600D01*
X004459Y024354D01*
X004459Y024006D01*
X004661Y023804D01*
X004641Y023796D01*
X004523Y023678D01*
X004459Y023524D01*
X004459Y022836D01*
X004523Y022682D01*
X004565Y022640D01*
X004216Y022640D01*
X004003Y022853D01*
X004069Y022919D01*
X004139Y023088D01*
X004139Y023271D01*
X004069Y023441D01*
X003940Y023570D01*
X003771Y023640D01*
X002988Y023640D01*
X002819Y023570D01*
X002784Y023536D01*
X002784Y023689D01*
X003350Y024255D01*
X003429Y024334D01*
X003855Y024760D01*
X004053Y024760D01*
X004299Y025006D01*
X004299Y025354D01*
X004053Y025600D01*
X003705Y025600D01*
X003459Y025354D01*
X003459Y025156D01*
X003409Y025106D01*
X003409Y026293D01*
X003450Y026272D01*
X003516Y026251D01*
X003585Y026240D01*
X003879Y026240D01*
X003879Y026680D01*
X003879Y027120D01*
X003585Y027120D01*
X003516Y027109D01*
X003450Y027088D01*
X003409Y027067D01*
X003409Y027312D01*
X003536Y027260D01*
X004223Y027260D01*
X004377Y027324D01*
X004495Y027442D01*
X004507Y027470D01*
X005091Y027470D01*
X006205Y028583D01*
X006263Y028442D01*
X006381Y028324D01*
X006536Y028260D01*
X007223Y028260D01*
X007377Y028324D01*
X007495Y028442D01*
X007559Y028596D01*
X007559Y028764D01*
X007495Y028918D01*
X007443Y028970D01*
X015341Y028970D01*
X015464Y029093D01*
X016466Y030095D01*
X016466Y030095D01*
X016538Y030167D01*
X016641Y030064D01*
X016796Y030000D01*
X016963Y030000D01*
X017117Y030064D01*
X017235Y030182D01*
X017299Y030336D01*
X017299Y031024D01*
X017235Y031178D01*
X017117Y031296D01*
X016963Y031360D01*
X016796Y031360D01*
X016686Y031314D01*
X018466Y033095D01*
X018538Y033167D01*
X018641Y033064D01*
X018796Y033000D01*
X018963Y033000D01*
X019117Y033064D01*
X019158Y033105D01*
X019542Y032720D01*
X020042Y032720D01*
X023122Y029640D01*
X018167Y029640D01*
X018044Y029517D01*
X017979Y029452D01*
X017951Y029520D01*
X017844Y029627D01*
X017705Y029685D01*
X017554Y029685D01*
X017414Y029627D01*
X017307Y029520D01*
X017249Y029381D01*
X017249Y029229D01*
X017251Y029224D01*
X014669Y026642D01*
X014669Y026244D01*
X014669Y026346D02*
X014498Y026346D01*
X014669Y026504D02*
X013727Y026504D01*
X013886Y026346D02*
X014261Y026346D01*
X014690Y026663D02*
X007559Y026663D01*
X007559Y026596D02*
X007559Y026764D01*
X007495Y026918D01*
X007377Y027036D01*
X007223Y027100D01*
X006536Y027100D01*
X006381Y027036D01*
X006263Y026918D01*
X006199Y026764D01*
X006199Y026596D01*
X006263Y026442D01*
X006381Y026324D01*
X006536Y026260D01*
X007223Y026260D01*
X007377Y026324D01*
X007495Y026442D01*
X007559Y026596D01*
X007521Y026504D02*
X010906Y026504D01*
X010919Y026517D02*
X010919Y026517D01*
X010748Y026346D02*
X010498Y026346D01*
X010261Y026346D02*
X007399Y026346D01*
X007535Y026821D02*
X014848Y026821D01*
X015007Y026980D02*
X007434Y026980D01*
X007311Y027297D02*
X015324Y027297D01*
X015482Y027455D02*
X007501Y027455D01*
X007495Y027442D02*
X007559Y027596D01*
X007559Y027764D01*
X007495Y027918D01*
X007377Y028036D01*
X007223Y028100D01*
X006536Y028100D01*
X006381Y028036D01*
X006263Y027918D01*
X006199Y027764D01*
X006199Y027596D01*
X006263Y027442D01*
X006381Y027324D01*
X006536Y027260D01*
X007223Y027260D01*
X007377Y027324D01*
X007495Y027442D01*
X007559Y027614D02*
X015641Y027614D01*
X015799Y027772D02*
X007556Y027772D01*
X007483Y027931D02*
X015958Y027931D01*
X016116Y028089D02*
X007249Y028089D01*
X007459Y028406D02*
X016433Y028406D01*
X016275Y028248D02*
X005869Y028248D01*
X006027Y028406D02*
X006299Y028406D01*
X006212Y028565D02*
X006186Y028565D01*
X005909Y028882D02*
X004510Y028882D01*
X004500Y028905D02*
X004867Y029271D01*
X004909Y029374D01*
X004909Y031314D01*
X006199Y032604D01*
X006199Y032596D01*
X006263Y032442D01*
X006381Y032324D01*
X006536Y032260D01*
X007223Y032260D01*
X007377Y032324D01*
X007495Y032442D01*
X007559Y032596D01*
X007559Y032764D01*
X007495Y032918D01*
X007377Y033036D01*
X007223Y033100D01*
X006695Y033100D01*
X006855Y033260D01*
X007223Y033260D01*
X007377Y033324D01*
X007495Y033442D01*
X007559Y033596D01*
X007559Y033764D01*
X007495Y033918D01*
X007377Y034036D01*
X007223Y034100D01*
X006536Y034100D01*
X006381Y034036D01*
X006263Y033918D01*
X006199Y033764D01*
X006199Y033596D01*
X006258Y033455D01*
X004559Y031756D01*
X004559Y031764D01*
X004495Y031918D01*
X004377Y032036D01*
X004223Y032100D01*
X003536Y032100D01*
X003381Y032036D01*
X003263Y031918D01*
X003199Y031764D01*
X003199Y031596D01*
X003263Y031442D01*
X003381Y031324D01*
X003536Y031260D01*
X004223Y031260D01*
X004349Y031312D01*
X004349Y031067D01*
X004308Y031088D01*
X004242Y031109D01*
X004174Y031120D01*
X003879Y031120D01*
X003585Y031120D01*
X003516Y031109D01*
X003450Y031088D01*
X003389Y031056D01*
X003333Y031016D01*
X003284Y030967D01*
X003243Y030911D01*
X003211Y030849D01*
X003190Y030783D01*
X003179Y030715D01*
X003179Y030680D01*
X003179Y030645D01*
X003190Y030577D01*
X003211Y030511D01*
X003243Y030449D01*
X003284Y030393D01*
X003333Y030344D01*
X003389Y030304D01*
X003450Y030272D01*
X003516Y030251D01*
X003585Y030240D01*
X003879Y030240D01*
X003879Y030680D01*
X003179Y030680D01*
X003879Y030680D01*
X003879Y030680D01*
X003879Y030680D01*
X003879Y031120D01*
X003879Y030680D01*
X003879Y030680D01*
X003879Y030240D01*
X004174Y030240D01*
X004242Y030251D01*
X004308Y030272D01*
X004349Y030293D01*
X004349Y030067D01*
X004308Y030088D01*
X004242Y030109D01*
X004174Y030120D01*
X003879Y030120D01*
X003585Y030120D01*
X003516Y030109D01*
X003450Y030088D01*
X003389Y030056D01*
X003333Y030016D01*
X003284Y029967D01*
X003243Y029911D01*
X003211Y029849D01*
X003190Y029783D01*
X003179Y029715D01*
X003179Y029680D01*
X003179Y029645D01*
X003190Y029577D01*
X003211Y029511D01*
X003243Y029449D01*
X003284Y029393D01*
X003333Y029344D01*
X003389Y029304D01*
X003450Y029272D01*
X003516Y029251D01*
X003585Y029240D01*
X003879Y029240D01*
X003879Y029680D01*
X003179Y029680D01*
X003879Y029680D01*
X003879Y029680D01*
X003879Y029680D01*
X003879Y030120D01*
X003879Y029680D01*
X003879Y029680D01*
X003879Y029240D01*
X004043Y029240D01*
X003903Y029100D01*
X003536Y029100D01*
X003381Y029036D01*
X003263Y028918D01*
X003199Y028764D01*
X003199Y028596D01*
X003258Y028455D01*
X002971Y028167D01*
X002892Y028089D01*
X002359Y028089D01*
X002359Y027931D02*
X002849Y027931D01*
X002849Y027986D02*
X002849Y024546D01*
X002359Y024056D01*
X002359Y034696D01*
X018348Y034696D01*
X017998Y034346D01*
X017963Y034360D01*
X017796Y034360D01*
X017641Y034296D01*
X017523Y034178D01*
X017459Y034024D01*
X017459Y033336D01*
X017523Y033182D01*
X017641Y033064D01*
X017783Y033005D01*
X016384Y031607D01*
X016384Y031631D01*
X016326Y031770D01*
X016219Y031877D01*
X016080Y031935D01*
X015929Y031935D01*
X015923Y031933D01*
X014856Y033000D01*
X014963Y033000D01*
X015117Y033064D01*
X015235Y033182D01*
X015299Y033336D01*
X015299Y034024D01*
X015235Y034178D01*
X015193Y034220D01*
X015565Y034220D01*
X015523Y034178D01*
X015459Y034024D01*
X015459Y033336D01*
X015523Y033182D01*
X015641Y033064D01*
X015796Y033000D01*
X015963Y033000D01*
X016117Y033064D01*
X016235Y033182D01*
X016299Y033336D01*
X016299Y033963D01*
X016459Y033803D01*
X016459Y033336D01*
X016523Y033182D01*
X016641Y033064D01*
X016796Y033000D01*
X016963Y033000D01*
X017117Y033064D01*
X017235Y033182D01*
X017299Y033336D01*
X017299Y034024D01*
X017235Y034178D01*
X017117Y034296D01*
X016963Y034360D01*
X016796Y034360D01*
X016641Y034296D01*
X016601Y034255D01*
X016216Y034640D01*
X012542Y034640D01*
X012419Y034517D01*
X012158Y034255D01*
X012117Y034296D01*
X011963Y034360D01*
X011796Y034360D01*
X011641Y034296D01*
X011523Y034178D01*
X011459Y034024D01*
X011459Y033336D01*
X011523Y033182D01*
X011641Y033064D01*
X011796Y033000D01*
X011963Y033000D01*
X012117Y033064D01*
X012235Y033182D01*
X012299Y033336D01*
X012299Y033803D01*
X012459Y033963D01*
X012459Y033336D01*
X012523Y033182D01*
X012641Y033064D01*
X012796Y033000D01*
X012963Y033000D01*
X013117Y033064D01*
X013235Y033182D01*
X013299Y033336D01*
X013299Y034024D01*
X013235Y034178D01*
X013193Y034220D01*
X013565Y034220D01*
X013523Y034178D01*
X013459Y034024D01*
X013459Y033336D01*
X013523Y033182D01*
X013641Y033064D01*
X013796Y033000D01*
X013963Y033000D01*
X014117Y033064D01*
X014158Y033105D01*
X015626Y031636D01*
X015624Y031631D01*
X015624Y031479D01*
X015682Y031340D01*
X015701Y031321D01*
X015641Y031296D01*
X015601Y031255D01*
X014966Y031890D01*
X007507Y031890D01*
X007495Y031918D01*
X007377Y032036D01*
X007223Y032100D01*
X006536Y032100D01*
X006381Y032036D01*
X006263Y031918D01*
X006199Y031764D01*
X006199Y031596D01*
X006263Y031442D01*
X006381Y031324D01*
X006536Y031260D01*
X007223Y031260D01*
X007377Y031324D01*
X007495Y031442D01*
X007507Y031470D01*
X014792Y031470D01*
X014902Y031360D01*
X014796Y031360D01*
X014641Y031296D01*
X014523Y031178D01*
X014459Y031024D01*
X014459Y030336D01*
X014523Y030182D01*
X014641Y030064D01*
X014796Y030000D01*
X014963Y030000D01*
X015117Y030064D01*
X015235Y030182D01*
X015299Y030336D01*
X015299Y030963D01*
X015459Y030803D01*
X015459Y030336D01*
X015523Y030182D01*
X015641Y030064D01*
X015783Y030005D01*
X015167Y029390D01*
X007443Y029390D01*
X007495Y029442D01*
X007559Y029596D01*
X007559Y029764D01*
X007495Y029918D01*
X007377Y030036D01*
X007223Y030100D01*
X006536Y030100D01*
X006381Y030036D01*
X006263Y029918D01*
X006199Y029764D01*
X006199Y029596D01*
X006263Y029442D01*
X006366Y029339D01*
X006294Y029267D01*
X004917Y027890D01*
X004507Y027890D01*
X004495Y027918D01*
X004377Y028036D01*
X004223Y028100D01*
X003695Y028100D01*
X003855Y028260D01*
X004223Y028260D01*
X004377Y028324D01*
X004495Y028442D01*
X004559Y028596D01*
X004559Y028764D01*
X004500Y028905D01*
X004635Y029040D02*
X006067Y029040D01*
X006226Y029199D02*
X004794Y029199D01*
X004902Y029357D02*
X006348Y029357D01*
X006233Y029516D02*
X004909Y029516D01*
X004909Y029674D02*
X006199Y029674D01*
X006228Y029833D02*
X004909Y029833D01*
X004909Y029991D02*
X006336Y029991D01*
X006420Y030308D02*
X004909Y030308D01*
X004909Y030150D02*
X010556Y030150D01*
X010523Y030182D02*
X010641Y030064D01*
X010796Y030000D01*
X010963Y030000D01*
X011117Y030064D01*
X011235Y030182D01*
X011299Y030336D01*
X011299Y031024D01*
X011235Y031178D01*
X011117Y031296D01*
X010963Y031360D01*
X010796Y031360D01*
X010641Y031296D01*
X010523Y031178D01*
X010459Y031024D01*
X010459Y030336D01*
X010523Y030182D01*
X010471Y030308D02*
X007339Y030308D01*
X007377Y030324D02*
X007495Y030442D01*
X007559Y030596D01*
X007559Y030764D01*
X007495Y030918D01*
X007377Y031036D01*
X007223Y031100D01*
X006536Y031100D01*
X006381Y031036D01*
X006263Y030918D01*
X006199Y030764D01*
X006199Y030596D01*
X006263Y030442D01*
X006381Y030324D01*
X006536Y030260D01*
X007223Y030260D01*
X007377Y030324D01*
X007505Y030467D02*
X010459Y030467D01*
X010459Y030625D02*
X007559Y030625D01*
X007551Y030784D02*
X010459Y030784D01*
X010459Y030942D02*
X007471Y030942D01*
X007471Y031418D02*
X014845Y031418D01*
X014604Y031259D02*
X014154Y031259D01*
X014117Y031296D02*
X013963Y031360D01*
X013796Y031360D01*
X013641Y031296D01*
X013523Y031178D01*
X013459Y031024D01*
X013459Y030336D01*
X013523Y030182D01*
X013641Y030064D01*
X013796Y030000D01*
X013963Y030000D01*
X014117Y030064D01*
X014235Y030182D01*
X014299Y030336D01*
X014299Y031024D01*
X014235Y031178D01*
X014117Y031296D01*
X014267Y031101D02*
X014491Y031101D01*
X014459Y030942D02*
X014299Y030942D01*
X014299Y030784D02*
X014459Y030784D01*
X014459Y030625D02*
X014299Y030625D01*
X014299Y030467D02*
X014459Y030467D01*
X014471Y030308D02*
X014287Y030308D01*
X014203Y030150D02*
X014556Y030150D01*
X015203Y030150D02*
X015556Y030150D01*
X015471Y030308D02*
X015287Y030308D01*
X015299Y030467D02*
X015459Y030467D01*
X015459Y030625D02*
X015299Y030625D01*
X015299Y030784D02*
X015459Y030784D01*
X015320Y030942D02*
X015299Y030942D01*
X015597Y031259D02*
X015604Y031259D01*
X015650Y031418D02*
X015439Y031418D01*
X015280Y031576D02*
X015624Y031576D01*
X015528Y031735D02*
X015122Y031735D01*
X015369Y031893D02*
X007506Y031893D01*
X007340Y032052D02*
X015211Y032052D01*
X015052Y032210D02*
X005805Y032210D01*
X005647Y032052D02*
X006419Y032052D01*
X006253Y031893D02*
X005488Y031893D01*
X005330Y031735D02*
X006199Y031735D01*
X006208Y031576D02*
X005171Y031576D01*
X005013Y031418D02*
X006288Y031418D01*
X006287Y030942D02*
X004909Y030942D01*
X004909Y030784D02*
X006207Y030784D01*
X006199Y030625D02*
X004909Y030625D01*
X004909Y030467D02*
X006253Y030467D01*
X007422Y029991D02*
X015768Y029991D01*
X015610Y029833D02*
X007531Y029833D01*
X007559Y029674D02*
X015451Y029674D01*
X015293Y029516D02*
X007526Y029516D01*
X007510Y028882D02*
X016909Y028882D01*
X017067Y029040D02*
X015411Y029040D01*
X015464Y029093D02*
X015464Y029093D01*
X015570Y029199D02*
X017226Y029199D01*
X017249Y029357D02*
X015728Y029357D01*
X015887Y029516D02*
X017305Y029516D01*
X017527Y029674D02*
X016045Y029674D01*
X016204Y029833D02*
X022930Y029833D01*
X022771Y029991D02*
X016362Y029991D01*
X016521Y030150D02*
X016556Y030150D01*
X017203Y030150D02*
X017556Y030150D01*
X017523Y030182D02*
X017641Y030064D01*
X017796Y030000D01*
X017963Y030000D01*
X018117Y030064D01*
X018235Y030182D01*
X018299Y030336D01*
X018299Y031024D01*
X018235Y031178D01*
X018117Y031296D01*
X017963Y031360D01*
X017796Y031360D01*
X017641Y031296D01*
X017523Y031178D01*
X017459Y031024D01*
X017459Y030336D01*
X017523Y030182D01*
X017471Y030308D02*
X017287Y030308D01*
X017299Y030467D02*
X017459Y030467D01*
X017459Y030625D02*
X017299Y030625D01*
X017299Y030784D02*
X017459Y030784D01*
X017459Y030942D02*
X017299Y030942D01*
X017267Y031101D02*
X017491Y031101D01*
X017604Y031259D02*
X017154Y031259D01*
X016947Y031576D02*
X021186Y031576D01*
X021028Y031735D02*
X017106Y031735D01*
X017264Y031893D02*
X020869Y031893D01*
X020711Y032052D02*
X017423Y032052D01*
X017581Y032210D02*
X020552Y032210D01*
X020394Y032369D02*
X017740Y032369D01*
X017898Y032527D02*
X020235Y032527D01*
X020077Y032686D02*
X018057Y032686D01*
X018215Y032844D02*
X019418Y032844D01*
X019260Y033003D02*
X018969Y033003D01*
X018789Y033003D02*
X018374Y033003D01*
X018532Y033161D02*
X018544Y033161D01*
X017780Y033003D02*
X016969Y033003D01*
X016789Y033003D02*
X015969Y033003D01*
X015789Y033003D02*
X014969Y033003D01*
X015012Y032844D02*
X017621Y032844D01*
X017463Y032686D02*
X015171Y032686D01*
X015329Y032527D02*
X017304Y032527D01*
X017146Y032369D02*
X015488Y032369D01*
X015646Y032210D02*
X016987Y032210D01*
X016829Y032052D02*
X015805Y032052D01*
X016181Y031893D02*
X016670Y031893D01*
X016512Y031735D02*
X016341Y031735D01*
X016789Y031418D02*
X021345Y031418D01*
X021503Y031259D02*
X020154Y031259D01*
X020117Y031296D02*
X019963Y031360D01*
X019796Y031360D01*
X019641Y031296D01*
X019523Y031178D01*
X019459Y031024D01*
X019459Y030336D01*
X019523Y030182D01*
X019641Y030064D01*
X019796Y030000D01*
X019963Y030000D01*
X020117Y030064D01*
X020235Y030182D01*
X020299Y030336D01*
X020299Y031024D01*
X020235Y031178D01*
X020117Y031296D01*
X020267Y031101D02*
X021662Y031101D01*
X021820Y030942D02*
X020299Y030942D01*
X020299Y030784D02*
X021979Y030784D01*
X022137Y030625D02*
X020299Y030625D01*
X020299Y030467D02*
X022296Y030467D01*
X022454Y030308D02*
X020287Y030308D01*
X020203Y030150D02*
X022613Y030150D01*
X023088Y029674D02*
X017731Y029674D01*
X017953Y029516D02*
X018043Y029516D01*
X018320Y029199D02*
X019027Y029199D01*
X018999Y029040D02*
X018161Y029040D01*
X018003Y028882D02*
X019040Y028882D01*
X018963Y030000D02*
X019117Y030064D01*
X019235Y030182D01*
X019299Y030336D01*
X019299Y031024D01*
X019235Y031178D01*
X019117Y031296D01*
X018963Y031360D01*
X018796Y031360D01*
X018641Y031296D01*
X018523Y031178D01*
X018459Y031024D01*
X018459Y030336D01*
X018523Y030182D01*
X018641Y030064D01*
X018796Y030000D01*
X018963Y030000D01*
X019203Y030150D02*
X019556Y030150D01*
X019471Y030308D02*
X019287Y030308D01*
X019299Y030467D02*
X019459Y030467D01*
X019459Y030625D02*
X019299Y030625D01*
X019299Y030784D02*
X019459Y030784D01*
X019459Y030942D02*
X019299Y030942D01*
X019267Y031101D02*
X019491Y031101D01*
X019604Y031259D02*
X019154Y031259D01*
X018604Y031259D02*
X018154Y031259D01*
X018267Y031101D02*
X018491Y031101D01*
X018459Y030942D02*
X018299Y030942D01*
X018299Y030784D02*
X018459Y030784D01*
X018459Y030625D02*
X018299Y030625D01*
X018299Y030467D02*
X018459Y030467D01*
X018471Y030308D02*
X018287Y030308D01*
X018203Y030150D02*
X018556Y030150D01*
X016750Y028723D02*
X007559Y028723D01*
X007546Y028565D02*
X016592Y028565D01*
X016192Y027455D02*
X016076Y027455D01*
X015918Y027297D02*
X016439Y027297D01*
X015165Y027138D02*
X003409Y027138D01*
X003409Y027297D02*
X003447Y027297D01*
X003879Y027120D02*
X003879Y026680D01*
X003879Y026680D01*
X003879Y026680D01*
X003879Y026240D01*
X004174Y026240D01*
X004242Y026251D01*
X004308Y026272D01*
X004370Y026304D01*
X004426Y026344D01*
X004475Y026393D01*
X004515Y026449D01*
X004547Y026511D01*
X004568Y026577D01*
X004579Y026645D01*
X004579Y026680D01*
X004579Y026715D01*
X004568Y026783D01*
X004547Y026849D01*
X004515Y026911D01*
X004475Y026967D01*
X004426Y027016D01*
X004370Y027056D01*
X004308Y027088D01*
X004242Y027109D01*
X004174Y027120D01*
X003879Y027120D01*
X003879Y026980D02*
X003879Y026980D01*
X003879Y026821D02*
X003879Y026821D01*
X003879Y026680D02*
X004579Y026680D01*
X003879Y026680D01*
X003879Y026680D01*
X003879Y026663D02*
X003879Y026663D01*
X003879Y026504D02*
X003879Y026504D01*
X003879Y026346D02*
X003879Y026346D01*
X003409Y026187D02*
X010032Y026187D01*
X009961Y026029D02*
X003409Y026029D01*
X003409Y025870D02*
X009959Y025870D01*
X009959Y025712D02*
X003409Y025712D01*
X003409Y025553D02*
X003658Y025553D01*
X003500Y025395D02*
X003409Y025395D01*
X003409Y025236D02*
X003459Y025236D01*
X002849Y025236D02*
X002359Y025236D01*
X002359Y025078D02*
X002849Y025078D01*
X002849Y024919D02*
X002359Y024919D01*
X002359Y024761D02*
X002849Y024761D01*
X002849Y024602D02*
X002359Y024602D01*
X002359Y024444D02*
X002747Y024444D01*
X002588Y024285D02*
X002359Y024285D01*
X002359Y024127D02*
X002430Y024127D01*
X002905Y023810D02*
X004656Y023810D01*
X004512Y023651D02*
X002784Y023651D01*
X003063Y023968D02*
X004497Y023968D01*
X004459Y024127D02*
X003222Y024127D01*
X003380Y024285D02*
X004459Y024285D01*
X004549Y024444D02*
X003539Y024444D01*
X003429Y024334D02*
X003429Y024334D01*
X003697Y024602D02*
X007129Y024602D01*
X006971Y024444D02*
X005210Y024444D01*
X005299Y024285D02*
X006812Y024285D01*
X006654Y024127D02*
X005299Y024127D01*
X005261Y023968D02*
X006495Y023968D01*
X006337Y023810D02*
X006119Y023810D01*
X005879Y023810D02*
X005879Y023810D01*
X005879Y023880D02*
X005879Y023180D01*
X005439Y023180D01*
X005879Y023180D01*
X005879Y023180D01*
X005879Y023180D01*
X005879Y023880D01*
X005879Y023651D02*
X005879Y023651D01*
X005879Y023493D02*
X005879Y023493D01*
X005879Y023334D02*
X005879Y023334D01*
X005439Y023334D02*
X005299Y023334D01*
X005299Y023176D02*
X005439Y023176D01*
X005439Y023017D02*
X005299Y023017D01*
X005299Y022859D02*
X005443Y022859D01*
X005497Y022700D02*
X005243Y022700D01*
X004516Y022700D02*
X004156Y022700D01*
X004008Y022859D02*
X004459Y022859D01*
X004459Y023017D02*
X004110Y023017D01*
X004139Y023176D02*
X004459Y023176D01*
X004459Y023334D02*
X004113Y023334D01*
X004017Y023493D02*
X004459Y023493D01*
X005103Y023810D02*
X005639Y023810D01*
X005493Y023651D02*
X005246Y023651D01*
X005299Y023493D02*
X005442Y023493D01*
X005061Y024740D02*
X005319Y024998D01*
X005319Y025180D01*
X005319Y025362D01*
X005061Y025620D01*
X004879Y025620D01*
X004697Y025620D01*
X004439Y025362D01*
X004439Y025180D01*
X004879Y025180D01*
X004439Y025180D01*
X004439Y024998D01*
X004697Y024740D01*
X004879Y024740D01*
X004879Y025180D01*
X004879Y025180D01*
X004879Y025180D01*
X004879Y025620D01*
X004879Y025180D01*
X004879Y025180D01*
X004879Y024740D01*
X005061Y024740D01*
X005082Y024761D02*
X007288Y024761D01*
X005319Y025078D02*
X010128Y025078D01*
X010001Y025236D02*
X005319Y025236D01*
X005319Y025180D02*
X004879Y025180D01*
X004879Y025180D01*
X005319Y025180D01*
X005287Y025395D02*
X009959Y025395D01*
X009959Y025553D02*
X005128Y025553D01*
X004879Y025553D02*
X004879Y025553D01*
X004879Y025395D02*
X004879Y025395D01*
X004879Y025236D02*
X004879Y025236D01*
X004879Y025078D02*
X004879Y025078D01*
X004879Y024919D02*
X004879Y024919D01*
X004879Y024761D02*
X004879Y024761D01*
X004676Y024761D02*
X004054Y024761D01*
X004212Y024919D02*
X004518Y024919D01*
X004439Y025078D02*
X004299Y025078D01*
X004299Y025236D02*
X004439Y025236D01*
X004471Y025395D02*
X004259Y025395D01*
X004100Y025553D02*
X004630Y025553D01*
X005240Y024919D02*
X010321Y024919D01*
X006360Y026346D02*
X004427Y026346D01*
X004543Y026504D02*
X006237Y026504D01*
X006199Y026663D02*
X004579Y026663D01*
X004556Y026821D02*
X006223Y026821D01*
X006325Y026980D02*
X004462Y026980D01*
X004311Y027297D02*
X006447Y027297D01*
X006258Y027455D02*
X004501Y027455D01*
X004483Y027931D02*
X004958Y027931D01*
X005116Y028089D02*
X004249Y028089D01*
X004459Y028406D02*
X005433Y028406D01*
X005275Y028248D02*
X003843Y028248D01*
X003209Y028406D02*
X002359Y028406D01*
X002359Y028248D02*
X003051Y028248D01*
X002892Y028089D02*
X002849Y027986D01*
X002849Y027772D02*
X002359Y027772D01*
X002359Y027614D02*
X002849Y027614D01*
X002849Y027455D02*
X002359Y027455D01*
X002359Y027297D02*
X002849Y027297D01*
X002849Y027138D02*
X002359Y027138D01*
X002359Y026980D02*
X002849Y026980D01*
X002849Y026821D02*
X002359Y026821D01*
X002359Y026663D02*
X002849Y026663D01*
X002849Y026504D02*
X002359Y026504D01*
X002359Y026346D02*
X002849Y026346D01*
X002849Y026187D02*
X002359Y026187D01*
X002359Y026029D02*
X002849Y026029D01*
X002849Y025870D02*
X002359Y025870D01*
X002359Y025712D02*
X002849Y025712D01*
X002849Y025553D02*
X002359Y025553D01*
X002359Y025395D02*
X002849Y025395D01*
X005235Y027614D02*
X006199Y027614D01*
X006203Y027772D02*
X005393Y027772D01*
X005552Y027931D02*
X006276Y027931D01*
X006509Y028089D02*
X005710Y028089D01*
X005592Y028565D02*
X004546Y028565D01*
X004559Y028723D02*
X005750Y028723D01*
X004002Y029199D02*
X002359Y029199D01*
X002359Y029357D02*
X003320Y029357D01*
X003210Y029516D02*
X002359Y029516D01*
X002359Y029674D02*
X003179Y029674D01*
X003206Y029833D02*
X002359Y029833D01*
X002359Y029991D02*
X003308Y029991D01*
X003383Y030308D02*
X002359Y030308D01*
X002359Y030150D02*
X004349Y030150D01*
X003879Y030308D02*
X003879Y030308D01*
X003879Y030467D02*
X003879Y030467D01*
X003879Y030625D02*
X003879Y030625D01*
X003879Y030784D02*
X003879Y030784D01*
X003879Y030942D02*
X003879Y030942D01*
X003879Y031101D02*
X003879Y031101D01*
X003490Y031101D02*
X002359Y031101D01*
X002359Y031259D02*
X004349Y031259D01*
X004349Y031101D02*
X004269Y031101D01*
X004909Y031101D02*
X010491Y031101D01*
X010604Y031259D02*
X004909Y031259D01*
X004696Y031893D02*
X004506Y031893D01*
X004340Y032052D02*
X004855Y032052D01*
X005013Y032210D02*
X002359Y032210D01*
X002359Y032052D02*
X003419Y032052D01*
X003253Y031893D02*
X002359Y031893D01*
X002359Y031735D02*
X003199Y031735D01*
X003208Y031576D02*
X002359Y031576D01*
X002359Y031418D02*
X003288Y031418D01*
X003266Y030942D02*
X002359Y030942D01*
X002359Y030784D02*
X003190Y030784D01*
X003182Y030625D02*
X002359Y030625D01*
X002359Y030467D02*
X003234Y030467D01*
X003879Y029991D02*
X003879Y029991D01*
X003879Y029833D02*
X003879Y029833D01*
X003879Y029674D02*
X003879Y029674D01*
X003879Y029516D02*
X003879Y029516D01*
X003879Y029357D02*
X003879Y029357D01*
X003391Y029040D02*
X002359Y029040D01*
X002359Y028882D02*
X003248Y028882D01*
X003199Y028723D02*
X002359Y028723D01*
X002359Y028565D02*
X003212Y028565D01*
X003536Y032260D02*
X003381Y032324D01*
X003263Y032442D01*
X003199Y032596D01*
X003199Y032764D01*
X003263Y032918D01*
X003381Y033036D01*
X003536Y033100D01*
X004223Y033100D01*
X004377Y033036D01*
X004495Y032918D01*
X004559Y032764D01*
X004559Y032596D01*
X004495Y032442D01*
X004377Y032324D01*
X004223Y032260D01*
X003536Y032260D01*
X003337Y032369D02*
X002359Y032369D01*
X002359Y032527D02*
X003228Y032527D01*
X003199Y032686D02*
X002359Y032686D01*
X002359Y032844D02*
X003232Y032844D01*
X003348Y033003D02*
X002359Y033003D01*
X002359Y033161D02*
X005964Y033161D01*
X005806Y033003D02*
X004411Y033003D01*
X004526Y032844D02*
X005647Y032844D01*
X005489Y032686D02*
X004559Y032686D01*
X004530Y032527D02*
X005330Y032527D01*
X005172Y032369D02*
X004422Y032369D01*
X004223Y033260D02*
X003536Y033260D01*
X003381Y033324D01*
X003263Y033442D01*
X003199Y033596D01*
X003199Y033764D01*
X003263Y033918D01*
X003381Y034036D01*
X003536Y034100D01*
X004223Y034100D01*
X004377Y034036D01*
X004495Y033918D01*
X004559Y033764D01*
X004559Y033596D01*
X004495Y033442D01*
X004377Y033324D01*
X004223Y033260D01*
X004366Y033320D02*
X006123Y033320D01*
X006248Y033478D02*
X004510Y033478D01*
X004559Y033637D02*
X006199Y033637D01*
X006212Y033795D02*
X004546Y033795D01*
X004460Y033954D02*
X006299Y033954D01*
X006756Y033161D02*
X010544Y033161D01*
X010523Y033182D02*
X010641Y033064D01*
X010796Y033000D01*
X010963Y033000D01*
X011117Y033064D01*
X011235Y033182D01*
X011299Y033336D01*
X011299Y034024D01*
X011235Y034178D01*
X011117Y034296D01*
X010963Y034360D01*
X010796Y034360D01*
X010641Y034296D01*
X010523Y034178D01*
X010459Y034024D01*
X010459Y033336D01*
X010523Y033182D01*
X010466Y033320D02*
X007366Y033320D01*
X007510Y033478D02*
X010459Y033478D01*
X010459Y033637D02*
X007559Y033637D01*
X007546Y033795D02*
X010459Y033795D01*
X010459Y033954D02*
X007460Y033954D01*
X007411Y033003D02*
X010789Y033003D01*
X010969Y033003D02*
X011789Y033003D01*
X011969Y033003D02*
X012789Y033003D01*
X012969Y033003D02*
X013789Y033003D01*
X013969Y033003D02*
X014260Y033003D01*
X014418Y032844D02*
X007526Y032844D01*
X007559Y032686D02*
X014577Y032686D01*
X014735Y032527D02*
X007530Y032527D01*
X007422Y032369D02*
X014894Y032369D01*
X015214Y033161D02*
X015544Y033161D01*
X015466Y033320D02*
X015292Y033320D01*
X015299Y033478D02*
X015459Y033478D01*
X015459Y033637D02*
X015299Y033637D01*
X015299Y033795D02*
X015459Y033795D01*
X015459Y033954D02*
X015299Y033954D01*
X015262Y034112D02*
X015496Y034112D01*
X016299Y033954D02*
X016309Y033954D01*
X016299Y033795D02*
X016459Y033795D01*
X016459Y033637D02*
X016299Y033637D01*
X016299Y033478D02*
X016459Y033478D01*
X016466Y033320D02*
X016292Y033320D01*
X016214Y033161D02*
X016544Y033161D01*
X017214Y033161D02*
X017544Y033161D01*
X017466Y033320D02*
X017292Y033320D01*
X017299Y033478D02*
X017459Y033478D01*
X017459Y033637D02*
X017299Y033637D01*
X017299Y033795D02*
X017459Y033795D01*
X017459Y033954D02*
X017299Y033954D01*
X017262Y034112D02*
X017496Y034112D01*
X017616Y034271D02*
X017143Y034271D01*
X016616Y034271D02*
X016586Y034271D01*
X016427Y034429D02*
X018081Y034429D01*
X018240Y034588D02*
X016269Y034588D01*
X013496Y034112D02*
X013262Y034112D01*
X013299Y033954D02*
X013459Y033954D01*
X013459Y033795D02*
X013299Y033795D01*
X013299Y033637D02*
X013459Y033637D01*
X013459Y033478D02*
X013299Y033478D01*
X013292Y033320D02*
X013466Y033320D01*
X013544Y033161D02*
X013214Y033161D01*
X012544Y033161D02*
X012214Y033161D01*
X012292Y033320D02*
X012466Y033320D01*
X012459Y033478D02*
X012299Y033478D01*
X012299Y033637D02*
X012459Y033637D01*
X012459Y033795D02*
X012299Y033795D01*
X012450Y033954D02*
X012459Y033954D01*
X012173Y034271D02*
X012143Y034271D01*
X012331Y034429D02*
X002359Y034429D01*
X002359Y034271D02*
X010616Y034271D01*
X010496Y034112D02*
X002359Y034112D01*
X002359Y033954D02*
X003299Y033954D01*
X003212Y033795D02*
X002359Y033795D01*
X002359Y033637D02*
X003199Y033637D01*
X003248Y033478D02*
X002359Y033478D01*
X002359Y033320D02*
X003392Y033320D01*
X002359Y034588D02*
X012490Y034588D01*
X011616Y034271D02*
X011143Y034271D01*
X011262Y034112D02*
X011496Y034112D01*
X011459Y033954D02*
X011299Y033954D01*
X011299Y033795D02*
X011459Y033795D01*
X011459Y033637D02*
X011299Y033637D01*
X011299Y033478D02*
X011459Y033478D01*
X011466Y033320D02*
X011292Y033320D01*
X011214Y033161D02*
X011544Y033161D01*
X011796Y031360D02*
X011641Y031296D01*
X011523Y031178D01*
X011459Y031024D01*
X011459Y030336D01*
X011523Y030182D01*
X011641Y030064D01*
X011796Y030000D01*
X011963Y030000D01*
X012117Y030064D01*
X012235Y030182D01*
X012299Y030336D01*
X012299Y031024D01*
X012235Y031178D01*
X012117Y031296D01*
X011963Y031360D01*
X011796Y031360D01*
X011604Y031259D02*
X011154Y031259D01*
X011267Y031101D02*
X011491Y031101D01*
X011459Y030942D02*
X011299Y030942D01*
X011299Y030784D02*
X011459Y030784D01*
X011459Y030625D02*
X011299Y030625D01*
X011299Y030467D02*
X011459Y030467D01*
X011471Y030308D02*
X011287Y030308D01*
X011203Y030150D02*
X011556Y030150D01*
X012203Y030150D02*
X012556Y030150D01*
X012523Y030182D02*
X012641Y030064D01*
X012796Y030000D01*
X012963Y030000D01*
X013117Y030064D01*
X013235Y030182D01*
X013299Y030336D01*
X013299Y031024D01*
X013235Y031178D01*
X013117Y031296D01*
X012963Y031360D01*
X012796Y031360D01*
X012641Y031296D01*
X012523Y031178D01*
X012459Y031024D01*
X012459Y030336D01*
X012523Y030182D01*
X012471Y030308D02*
X012287Y030308D01*
X012299Y030467D02*
X012459Y030467D01*
X012459Y030625D02*
X012299Y030625D01*
X012299Y030784D02*
X012459Y030784D01*
X012459Y030942D02*
X012299Y030942D01*
X012267Y031101D02*
X012491Y031101D01*
X012604Y031259D02*
X012154Y031259D01*
X013154Y031259D02*
X013604Y031259D01*
X013491Y031101D02*
X013267Y031101D01*
X013299Y030942D02*
X013459Y030942D01*
X013459Y030784D02*
X013299Y030784D01*
X013299Y030625D02*
X013459Y030625D01*
X013459Y030467D02*
X013299Y030467D01*
X013287Y030308D02*
X013471Y030308D01*
X013556Y030150D02*
X013203Y030150D01*
X017726Y026187D02*
X018032Y026187D01*
X017961Y026029D02*
X017797Y026029D01*
X017799Y025870D02*
X017959Y025870D01*
X017959Y025712D02*
X017799Y025712D01*
X017799Y025553D02*
X017959Y025553D01*
X017959Y025395D02*
X017799Y025395D01*
X017758Y025236D02*
X018001Y025236D01*
X018128Y025078D02*
X017631Y025078D01*
X018631Y025078D02*
X019128Y025078D01*
X019001Y025236D02*
X018758Y025236D01*
X018799Y025395D02*
X018959Y025395D01*
X018959Y025553D02*
X018799Y025553D01*
X018799Y025712D02*
X018959Y025712D01*
X018959Y025870D02*
X018799Y025870D01*
X018797Y026029D02*
X018961Y026029D01*
X019032Y026187D02*
X018726Y026187D01*
X021379Y026187D02*
X021379Y026187D01*
X021379Y026029D02*
X021379Y026029D01*
X021379Y025870D02*
X021379Y025870D01*
X021379Y025712D02*
X021379Y025712D01*
X021379Y025553D02*
X021379Y025553D01*
X021379Y025395D02*
X021379Y025395D01*
X021379Y025236D02*
X021379Y025236D01*
X021379Y025078D02*
X021379Y025078D01*
X022631Y025078D02*
X023128Y025078D01*
X023001Y025236D02*
X022758Y025236D01*
X022799Y025395D02*
X022959Y025395D01*
X022959Y025553D02*
X022799Y025553D01*
X022799Y025712D02*
X022959Y025712D01*
X022959Y025870D02*
X022866Y025870D01*
X023799Y025712D02*
X023959Y025712D01*
X023959Y025870D02*
X023866Y025870D01*
X023799Y025553D02*
X023959Y025553D01*
X023959Y025395D02*
X023799Y025395D01*
X023758Y025236D02*
X024001Y025236D01*
X024128Y025078D02*
X023631Y025078D01*
X024631Y025078D02*
X025128Y025078D01*
X025001Y025236D02*
X024758Y025236D01*
X024799Y025395D02*
X024959Y025395D01*
X024959Y025553D02*
X024799Y025553D01*
X024799Y025712D02*
X024959Y025712D01*
X024959Y025870D02*
X024866Y025870D01*
X025498Y026346D02*
X026261Y026346D01*
X026296Y026360D02*
X026141Y026296D01*
X026023Y026178D01*
X025959Y026024D01*
X025959Y025336D01*
X026023Y025182D01*
X026141Y025064D01*
X026296Y025000D01*
X026463Y025000D01*
X026617Y025064D01*
X026735Y025182D01*
X026799Y025336D01*
X026799Y026024D01*
X026735Y026178D01*
X026617Y026296D01*
X026463Y026360D01*
X026296Y026360D01*
X026498Y026346D02*
X027261Y026346D01*
X027498Y026346D02*
X028261Y026346D01*
X028498Y026346D02*
X028873Y026346D01*
X029031Y026504D02*
X025500Y026504D01*
X025659Y026663D02*
X029190Y026663D01*
X028032Y026187D02*
X027726Y026187D01*
X027797Y026029D02*
X027961Y026029D01*
X027959Y025870D02*
X027799Y025870D01*
X027799Y025712D02*
X027959Y025712D01*
X027959Y025553D02*
X027799Y025553D01*
X027799Y025395D02*
X027959Y025395D01*
X028001Y025236D02*
X027758Y025236D01*
X027128Y025078D02*
X026631Y025078D01*
X026758Y025236D02*
X027001Y025236D01*
X026959Y025395D02*
X026799Y025395D01*
X026799Y025553D02*
X026959Y025553D01*
X026959Y025712D02*
X026799Y025712D01*
X026799Y025870D02*
X026959Y025870D01*
X026961Y026029D02*
X026797Y026029D01*
X026726Y026187D02*
X027032Y026187D01*
X026032Y026187D02*
X025726Y026187D01*
X025797Y026029D02*
X025961Y026029D01*
X025959Y025870D02*
X025799Y025870D01*
X025799Y025712D02*
X025959Y025712D01*
X025959Y025553D02*
X025799Y025553D01*
X025799Y025395D02*
X025959Y025395D01*
X026001Y025236D02*
X025758Y025236D01*
X025631Y025078D02*
X026128Y025078D01*
X025680Y017153D02*
X011204Y017153D01*
X011045Y017311D02*
X011798Y017311D01*
X011668Y017470D02*
X010887Y017470D01*
X010728Y017628D02*
X011619Y017628D01*
X011625Y017787D02*
X010570Y017787D01*
X010411Y017945D02*
X011694Y017945D01*
X011900Y018104D02*
X010253Y018104D01*
X010293Y017470D02*
X010111Y017470D01*
X009988Y017311D02*
X010451Y017311D01*
X010610Y017153D02*
X002784Y017153D01*
X002784Y017311D02*
X008770Y017311D01*
X008648Y017470D02*
X002784Y017470D01*
X002784Y017628D02*
X008601Y017628D01*
X008599Y017700D02*
X009359Y017700D01*
X009359Y018160D01*
X009041Y018160D01*
X008967Y018148D01*
X008895Y018125D01*
X008828Y018091D01*
X008766Y018046D01*
X008713Y017993D01*
X008669Y017932D01*
X008634Y017864D01*
X008611Y017792D01*
X008599Y017718D01*
X008599Y017700D01*
X008610Y017787D02*
X002784Y017787D01*
X002784Y017945D02*
X008678Y017945D01*
X008853Y018104D02*
X002784Y018104D01*
X002784Y018262D02*
X009500Y018262D01*
X009419Y018421D02*
X002784Y018421D01*
X002784Y018579D02*
X009419Y018579D01*
X009419Y018738D02*
X002784Y018738D01*
X002784Y018896D02*
X009419Y018896D01*
X009419Y019055D02*
X002784Y019055D01*
X002784Y019213D02*
X009419Y019213D01*
X009399Y018104D02*
X009359Y018104D01*
X009359Y017945D02*
X009399Y017945D01*
X009399Y017787D02*
X009359Y017787D01*
X009359Y017628D02*
X009399Y017628D01*
X009399Y017470D02*
X009359Y017470D01*
X009359Y017311D02*
X009399Y017311D01*
X009771Y016140D02*
X008988Y016140D01*
X008819Y016070D01*
X008689Y015941D01*
X008619Y015771D01*
X008619Y015588D01*
X008689Y015419D01*
X008819Y015290D01*
X008988Y015220D01*
X009771Y015220D01*
X009940Y015290D01*
X010069Y015419D01*
X010139Y015588D01*
X010139Y015771D01*
X010069Y015941D01*
X009940Y016070D01*
X009771Y016140D01*
X009967Y016043D02*
X011719Y016043D01*
X011666Y015885D02*
X010092Y015885D01*
X010139Y015726D02*
X011619Y015726D01*
X011628Y015568D02*
X010130Y015568D01*
X010059Y015409D02*
X011700Y015409D01*
X011914Y015251D02*
X009844Y015251D01*
X008914Y015251D02*
X008635Y015251D01*
X008635Y015316D02*
X008635Y015044D01*
X008564Y014781D01*
X008428Y014544D01*
X008235Y014352D01*
X007999Y014216D01*
X007736Y014145D01*
X007463Y014145D01*
X007200Y014216D01*
X006964Y014352D01*
X006771Y014544D01*
X006635Y014781D01*
X006565Y015044D01*
X006565Y015316D01*
X006635Y015579D01*
X006771Y015816D01*
X006964Y016008D01*
X007200Y016144D01*
X007463Y016215D01*
X007736Y016215D01*
X007999Y016144D01*
X008235Y016008D01*
X008428Y015816D01*
X008564Y015579D01*
X008635Y015316D01*
X008610Y015409D02*
X008700Y015409D01*
X008628Y015568D02*
X008567Y015568D01*
X008619Y015726D02*
X008479Y015726D01*
X008359Y015885D02*
X008666Y015885D01*
X008792Y016043D02*
X008175Y016043D01*
X007786Y016202D02*
X011561Y016202D01*
X011402Y016360D02*
X002784Y016360D01*
X002784Y016202D02*
X007413Y016202D01*
X007024Y016043D02*
X005547Y016043D01*
X005555Y016041D02*
X005456Y016075D01*
X005354Y016098D01*
X005278Y016107D01*
X005278Y015260D01*
X005118Y015260D01*
X005118Y015100D01*
X004271Y015100D01*
X004280Y015024D01*
X004303Y014922D01*
X004337Y014824D01*
X004383Y014729D01*
X004438Y014641D01*
X004504Y014559D01*
X004577Y014485D01*
X004659Y014420D01*
X004747Y014365D01*
X004842Y014319D01*
X004940Y014285D01*
X005042Y014262D01*
X005118Y014253D01*
X005118Y015100D01*
X005278Y015100D01*
X005278Y014253D01*
X005354Y014262D01*
X005456Y014285D01*
X005555Y014319D01*
X005649Y014365D01*
X005737Y014420D01*
X005819Y014485D01*
X005893Y014559D01*
X005958Y014641D01*
X006013Y014729D01*
X006059Y014824D01*
X006093Y014922D01*
X006116Y015024D01*
X006125Y015100D01*
X005278Y015100D01*
X005278Y015260D01*
X006125Y015260D01*
X006116Y015336D01*
X006093Y015438D01*
X006059Y015536D01*
X006013Y015631D01*
X005958Y015719D01*
X005893Y015801D01*
X005819Y015875D01*
X005737Y015940D01*
X005649Y015995D01*
X005555Y016041D01*
X005278Y016043D02*
X005118Y016043D01*
X005118Y016107D02*
X005042Y016098D01*
X004940Y016075D01*
X004842Y016041D01*
X004747Y015995D01*
X004659Y015940D01*
X004577Y015875D01*
X004504Y015801D01*
X004438Y015719D01*
X004383Y015631D01*
X004337Y015536D01*
X004303Y015438D01*
X004280Y015336D01*
X004271Y015260D01*
X005118Y015260D01*
X005118Y016107D01*
X005118Y015885D02*
X005278Y015885D01*
X005278Y015726D02*
X005118Y015726D01*
X005118Y015568D02*
X005278Y015568D01*
X005278Y015409D02*
X005118Y015409D01*
X005118Y015251D02*
X002784Y015251D01*
X002784Y015409D02*
X004296Y015409D01*
X004352Y015568D02*
X002784Y015568D01*
X002784Y015726D02*
X004444Y015726D01*
X004590Y015885D02*
X002784Y015885D01*
X002784Y016043D02*
X004849Y016043D01*
X005806Y015885D02*
X006840Y015885D01*
X006720Y015726D02*
X005952Y015726D01*
X006044Y015568D02*
X006632Y015568D01*
X006589Y015409D02*
X006100Y015409D01*
X006124Y015092D02*
X006565Y015092D01*
X006565Y015251D02*
X005278Y015251D01*
X005278Y015092D02*
X005118Y015092D01*
X005118Y014934D02*
X005278Y014934D01*
X005278Y014775D02*
X005118Y014775D01*
X005118Y014617D02*
X005278Y014617D01*
X005278Y014458D02*
X005118Y014458D01*
X005118Y014300D02*
X005278Y014300D01*
X005498Y014300D02*
X007055Y014300D01*
X006858Y014458D02*
X005784Y014458D01*
X005938Y014617D02*
X006730Y014617D01*
X006638Y014775D02*
X006035Y014775D01*
X006096Y014934D02*
X006594Y014934D01*
X006055Y014141D02*
X002784Y014141D01*
X002784Y013983D02*
X005784Y013983D01*
X005626Y013824D02*
X002881Y013824D01*
X003040Y013666D02*
X005550Y013666D01*
X005484Y013507D02*
X003198Y013507D01*
X003357Y013349D02*
X005469Y013349D01*
X005469Y013190D02*
X003515Y013190D01*
X003674Y013032D02*
X005501Y013032D01*
X005567Y012873D02*
X003832Y012873D01*
X003991Y012715D02*
X005668Y012715D01*
X005826Y012556D02*
X004149Y012556D01*
X004308Y012398D02*
X006156Y012398D01*
X006602Y012398D02*
X013877Y012398D01*
X013824Y012450D02*
X014149Y012125D01*
X014379Y012125D01*
X014379Y012680D01*
X013824Y012680D01*
X013824Y012450D01*
X013824Y012556D02*
X006932Y012556D01*
X007090Y012715D02*
X013824Y012715D01*
X013824Y012680D02*
X014379Y012680D01*
X014379Y012680D01*
X014379Y013235D01*
X014149Y013235D01*
X013824Y012910D01*
X013824Y012680D01*
X013824Y012873D02*
X007191Y012873D01*
X007257Y013032D02*
X013946Y013032D01*
X014104Y013190D02*
X007289Y013190D01*
X007289Y013349D02*
X015660Y013349D01*
X015569Y013507D02*
X007274Y013507D01*
X008145Y014300D02*
X014003Y014300D01*
X013892Y014458D02*
X008341Y014458D01*
X008469Y014617D02*
X013844Y014617D01*
X013844Y014775D02*
X008561Y014775D01*
X008605Y014934D02*
X013905Y014934D01*
X014035Y015092D02*
X008635Y015092D01*
X010768Y016994D02*
X002784Y016994D01*
X002784Y016836D02*
X010927Y016836D01*
X011085Y016677D02*
X002784Y016677D01*
X002784Y016519D02*
X011244Y016519D01*
X011521Y016836D02*
X025363Y016836D01*
X025521Y016994D02*
X011362Y016994D01*
X011164Y019055D02*
X010594Y019055D01*
X010748Y019213D02*
X011010Y019213D01*
X010959Y019372D02*
X010799Y019372D01*
X010799Y019530D02*
X010959Y019530D01*
X010959Y019689D02*
X010799Y019689D01*
X010843Y019847D02*
X010959Y019847D01*
X011799Y019847D02*
X011959Y019847D01*
X011959Y019689D02*
X011799Y019689D01*
X011799Y019530D02*
X011959Y019530D01*
X011959Y019372D02*
X011799Y019372D01*
X011748Y019213D02*
X012010Y019213D01*
X012164Y019055D02*
X011594Y019055D01*
X011799Y020006D02*
X011959Y020006D01*
X012017Y020164D02*
X011741Y020164D01*
X012594Y019055D02*
X012708Y019055D01*
X015589Y020323D02*
X016205Y020323D01*
X016017Y020164D02*
X015741Y020164D01*
X015799Y020006D02*
X015959Y020006D01*
X015959Y019847D02*
X015799Y019847D01*
X015799Y019689D02*
X015959Y019689D01*
X015959Y019530D02*
X015799Y019530D01*
X015799Y019372D02*
X015959Y019372D01*
X016010Y019213D02*
X015748Y019213D01*
X015589Y021274D02*
X016192Y021274D01*
X016033Y021432D02*
X015589Y021432D01*
X015589Y021591D02*
X015959Y021591D01*
X015959Y021749D02*
X015589Y021749D01*
X015589Y021908D02*
X016013Y021908D01*
X016171Y022066D02*
X015589Y022066D01*
X016587Y022066D02*
X016671Y022066D01*
X016692Y021274D02*
X016567Y021274D01*
X025008Y015726D02*
X025052Y015726D01*
X027672Y014300D02*
X027702Y014300D01*
X028349Y014775D02*
X028409Y014775D01*
X028409Y014934D02*
X028349Y014934D01*
X028349Y015092D02*
X028409Y015092D01*
X028617Y010496D02*
X028898Y010496D01*
X028739Y010337D02*
X028518Y010337D01*
X029735Y010179D02*
X030024Y010179D01*
X029959Y010020D02*
X029799Y010020D01*
X029799Y009862D02*
X029959Y009862D01*
X029959Y009703D02*
X029799Y009703D01*
X029799Y009545D02*
X029959Y009545D01*
X029959Y009386D02*
X029799Y009386D01*
X029754Y009228D02*
X030004Y009228D01*
X030136Y009069D02*
X029622Y009069D01*
X029136Y009069D02*
X029065Y009069D01*
X028907Y008911D02*
X031169Y008911D01*
X031169Y008752D02*
X028748Y008752D01*
X028790Y008140D02*
X028409Y008140D01*
X028139Y007871D01*
X028139Y007489D01*
X028409Y007220D01*
X028790Y007220D01*
X029059Y007489D01*
X029059Y007871D01*
X028790Y008140D01*
X028812Y008118D02*
X029467Y008118D01*
X029489Y008140D02*
X029219Y007871D01*
X029219Y007489D01*
X029489Y007220D01*
X029870Y007220D01*
X030139Y007489D01*
X030139Y007871D01*
X029870Y008140D01*
X029489Y008140D01*
X029308Y007960D02*
X028970Y007960D01*
X029059Y007801D02*
X029219Y007801D01*
X029219Y007643D02*
X029059Y007643D01*
X029054Y007484D02*
X029225Y007484D01*
X029383Y007326D02*
X028895Y007326D01*
X028940Y007160D02*
X028659Y006879D01*
X028659Y006700D01*
X029119Y006700D01*
X029119Y007160D01*
X028940Y007160D01*
X028789Y007009D02*
X027973Y007009D01*
X027814Y007167D02*
X030819Y007167D01*
X030661Y007009D02*
X030541Y007009D01*
X030463Y007326D02*
X029975Y007326D01*
X030134Y007484D02*
X030305Y007484D01*
X030299Y007643D02*
X030139Y007643D01*
X030139Y007801D02*
X030299Y007801D01*
X030388Y007960D02*
X030050Y007960D01*
X029892Y008118D02*
X030547Y008118D01*
X030622Y009069D02*
X031136Y009069D01*
X031004Y009228D02*
X030754Y009228D01*
X030799Y009386D02*
X030959Y009386D01*
X030959Y009545D02*
X030799Y009545D01*
X030799Y009703D02*
X030959Y009703D01*
X030959Y009862D02*
X030799Y009862D01*
X030799Y010020D02*
X030959Y010020D01*
X031024Y010179D02*
X030735Y010179D01*
X027818Y009069D02*
X027622Y009069D01*
X026863Y008118D02*
X028387Y008118D01*
X028228Y007960D02*
X027022Y007960D01*
X027180Y007801D02*
X028139Y007801D01*
X028139Y007643D02*
X027339Y007643D01*
X027497Y007484D02*
X028145Y007484D01*
X028303Y007326D02*
X027656Y007326D01*
X028131Y006850D02*
X028659Y006850D01*
X028659Y006533D02*
X028448Y006533D01*
X028290Y006692D02*
X029119Y006692D01*
X029159Y006692D02*
X029759Y006692D01*
X029619Y006700D02*
X029619Y006879D01*
X029338Y007160D01*
X029159Y007160D01*
X029159Y006700D01*
X029619Y006700D01*
X029619Y006850D02*
X029759Y006850D01*
X029897Y007009D02*
X029489Y007009D01*
X029159Y007009D02*
X029119Y007009D01*
X029119Y006850D02*
X029159Y006850D01*
X029619Y006533D02*
X029759Y006533D01*
X027099Y010654D02*
X006051Y010654D01*
X006155Y010496D02*
X009523Y010496D01*
X009364Y010337D02*
X006159Y010337D01*
X006159Y010179D02*
X009206Y010179D01*
X009047Y010020D02*
X006159Y010020D01*
X006292Y009862D02*
X008889Y009862D01*
X008730Y009703D02*
X006299Y009703D01*
X006299Y009545D02*
X008572Y009545D01*
X008413Y009386D02*
X006179Y009386D01*
X005579Y009386D02*
X003179Y009386D01*
X003299Y009506D02*
X003053Y009260D01*
X002705Y009260D01*
X002459Y009506D01*
X002459Y009854D01*
X002705Y010100D01*
X003053Y010100D01*
X003299Y009854D01*
X003299Y009506D01*
X003299Y009545D02*
X005459Y009545D01*
X005459Y009703D02*
X003299Y009703D01*
X003292Y009862D02*
X005467Y009862D01*
X005599Y010020D02*
X003133Y010020D01*
X002625Y010020D02*
X002359Y010020D01*
X002359Y009862D02*
X002467Y009862D01*
X002459Y009703D02*
X002359Y009703D01*
X002359Y009545D02*
X002459Y009545D01*
X002359Y009386D02*
X002579Y009386D01*
X002359Y009228D02*
X008255Y009228D01*
X008096Y009069D02*
X002359Y009069D01*
X002359Y008911D02*
X007938Y008911D01*
X007794Y008752D02*
X002359Y008752D01*
X002359Y008594D02*
X007794Y008594D01*
X008690Y009069D02*
X009560Y009069D01*
X009452Y009228D02*
X008849Y009228D01*
X009007Y009386D02*
X009419Y009386D01*
X009419Y009545D02*
X009166Y009545D01*
X009324Y009703D02*
X009419Y009703D01*
X009869Y009545D02*
X009889Y009545D01*
X009889Y009386D02*
X009869Y009386D01*
X009869Y009228D02*
X009889Y009228D01*
X009889Y009069D02*
X009869Y009069D01*
X009599Y008160D02*
X009420Y008160D01*
X009139Y007879D01*
X009139Y007700D01*
X009599Y007700D01*
X009599Y008160D01*
X009599Y008118D02*
X009639Y008118D01*
X009639Y007960D02*
X009599Y007960D01*
X009599Y007801D02*
X009639Y007801D01*
X009639Y007643D02*
X009599Y007643D01*
X009599Y007484D02*
X009639Y007484D01*
X009639Y007326D02*
X009599Y007326D01*
X009295Y007326D02*
X008825Y007326D01*
X008889Y007140D02*
X008619Y006871D01*
X008619Y006489D01*
X008889Y006220D01*
X009270Y006220D01*
X009539Y006489D01*
X009539Y006871D01*
X009270Y007140D01*
X008889Y007140D01*
X008757Y007009D02*
X008311Y007009D01*
X008214Y007167D02*
X010044Y007167D01*
X010044Y007326D02*
X009943Y007326D01*
X009837Y007009D02*
X009401Y007009D01*
X009539Y006850D02*
X009699Y006850D01*
X009699Y006692D02*
X009539Y006692D01*
X009539Y006533D02*
X009699Y006533D01*
X009814Y006375D02*
X009424Y006375D01*
X008734Y006375D02*
X008334Y006375D01*
X008449Y006533D02*
X008619Y006533D01*
X008619Y006692D02*
X008449Y006692D01*
X008449Y006850D02*
X008619Y006850D01*
X008233Y007326D02*
X008214Y007326D01*
X007529Y006850D02*
X007359Y006850D01*
X007359Y006692D02*
X007529Y006692D01*
X007529Y006533D02*
X007359Y006533D01*
X007244Y006375D02*
X007644Y006375D01*
X006554Y006375D02*
X004454Y006375D01*
X004585Y006533D02*
X006439Y006533D01*
X006439Y006692D02*
X004677Y006692D01*
X004732Y006850D02*
X006439Y006850D01*
X006577Y007009D02*
X004774Y007009D01*
X004269Y006216D02*
X010421Y006216D01*
X009139Y007484D02*
X008984Y007484D01*
X008989Y007643D02*
X009139Y007643D01*
X009139Y007801D02*
X008989Y007801D01*
X008900Y007960D02*
X009220Y007960D01*
X009378Y008118D02*
X008742Y008118D01*
X009860Y008118D02*
X010145Y008118D01*
X010044Y007960D02*
X010018Y007960D01*
X009554Y010813D02*
X006205Y010813D01*
X006323Y010971D02*
X009435Y010971D01*
X009389Y011130D02*
X006369Y011130D01*
X006365Y011288D02*
X009394Y011288D01*
X009459Y011447D02*
X006299Y011447D01*
X005418Y010496D02*
X002359Y010496D01*
X002359Y010654D02*
X005259Y010654D01*
X005101Y010813D02*
X002359Y010813D01*
X002359Y010971D02*
X004942Y010971D01*
X004784Y011130D02*
X002359Y011130D01*
X002359Y011288D02*
X002649Y011288D01*
X002697Y011240D02*
X002879Y011240D01*
X002879Y011680D01*
X002439Y011680D01*
X002879Y011680D01*
X002879Y011680D01*
X002879Y011680D01*
X002879Y012120D01*
X002697Y012120D01*
X002439Y011862D01*
X002439Y011680D01*
X002439Y011498D01*
X002697Y011240D01*
X002879Y011240D02*
X003061Y011240D01*
X003319Y011498D01*
X003319Y011680D01*
X003319Y011862D01*
X003061Y012120D01*
X002879Y012120D01*
X002879Y011680D01*
X002879Y011680D01*
X002879Y011240D01*
X002879Y011288D02*
X002879Y011288D01*
X002879Y011447D02*
X002879Y011447D01*
X002879Y011605D02*
X002879Y011605D01*
X002879Y011680D02*
X002879Y011680D01*
X003319Y011680D01*
X002879Y011680D01*
X002879Y011764D02*
X002879Y011764D01*
X002879Y011922D02*
X002879Y011922D01*
X002879Y012081D02*
X002879Y012081D01*
X002657Y012081D02*
X002359Y012081D01*
X002359Y012239D02*
X003674Y012239D01*
X003686Y012081D02*
X003101Y012081D01*
X003259Y011922D02*
X003527Y011922D01*
X003459Y011764D02*
X003319Y011764D01*
X003319Y011605D02*
X003459Y011605D01*
X003519Y011447D02*
X003268Y011447D01*
X003109Y011288D02*
X003677Y011288D01*
X004081Y011288D02*
X004625Y011288D01*
X004467Y011447D02*
X004240Y011447D01*
X004299Y011605D02*
X004308Y011605D01*
X004408Y011505D02*
X004408Y011505D01*
X004466Y012239D02*
X014035Y012239D01*
X014379Y012239D02*
X014379Y012239D01*
X014379Y012125D02*
X014609Y012125D01*
X014934Y012450D01*
X014934Y012680D01*
X014379Y012680D01*
X014379Y012680D01*
X014379Y012680D01*
X014379Y013235D01*
X014609Y013235D01*
X014934Y012910D01*
X014934Y012680D01*
X014379Y012680D01*
X014379Y012125D01*
X014379Y012398D02*
X014379Y012398D01*
X014379Y012556D02*
X014379Y012556D01*
X014379Y012680D02*
X014379Y012680D01*
X014379Y012715D02*
X014379Y012715D01*
X014379Y012873D02*
X014379Y012873D01*
X014379Y013032D02*
X014379Y013032D01*
X014379Y013190D02*
X014379Y013190D01*
X014654Y013190D02*
X015907Y013190D01*
X015708Y013032D02*
X014813Y013032D01*
X014934Y012873D02*
X015599Y012873D01*
X015559Y012715D02*
X014934Y012715D01*
X014934Y012556D02*
X015570Y012556D01*
X015639Y012398D02*
X014882Y012398D01*
X014723Y012239D02*
X015833Y012239D01*
X005576Y010337D02*
X002359Y010337D01*
X002359Y010179D02*
X005599Y010179D01*
X003516Y012398D02*
X002359Y012398D01*
X002359Y012556D02*
X003357Y012556D01*
X003199Y012715D02*
X002359Y012715D01*
X002359Y012873D02*
X003040Y012873D01*
X002882Y013032D02*
X002359Y013032D01*
X002359Y013190D02*
X002723Y013190D01*
X002565Y013349D02*
X002359Y013349D01*
X002359Y013507D02*
X002406Y013507D01*
X002784Y014300D02*
X004899Y014300D01*
X004612Y014458D02*
X002784Y014458D01*
X002784Y014617D02*
X004458Y014617D01*
X004361Y014775D02*
X002784Y014775D01*
X002784Y014934D02*
X004300Y014934D01*
X004272Y015092D02*
X002784Y015092D01*
X002499Y011922D02*
X002359Y011922D01*
X002359Y011764D02*
X002439Y011764D01*
X002439Y011605D02*
X002359Y011605D01*
X002359Y011447D02*
X002490Y011447D01*
X003359Y020323D02*
X003399Y020323D01*
X003399Y020481D02*
X003359Y020481D01*
X003359Y020640D02*
X003399Y020640D01*
X002940Y020640D02*
X002784Y020640D01*
X002784Y020798D02*
X002811Y020798D01*
X002784Y021591D02*
X002868Y021591D01*
X002918Y021749D02*
X002784Y021749D01*
X005964Y032369D02*
X006337Y032369D01*
X006228Y032527D02*
X006122Y032527D01*
X034727Y015726D02*
X040769Y015726D01*
X040769Y015568D02*
X034990Y015568D01*
X035021Y013824D02*
X037226Y013824D01*
X037068Y013666D02*
X034782Y013666D01*
D29*
X028379Y013680D02*
X028379Y013055D01*
X027379Y012055D01*
X027379Y009680D01*
X026379Y012680D02*
X023004Y012680D01*
X022129Y011805D01*
X004629Y011805D01*
X004567Y011743D01*
X005879Y010430D01*
X005879Y009680D01*
X004567Y011743D02*
X002504Y013805D01*
X002504Y023805D01*
X003192Y024493D01*
X003129Y024555D01*
X003129Y027930D01*
X003879Y028680D01*
X004629Y029430D01*
X004629Y031430D01*
X006879Y033680D01*
X003879Y025180D02*
X003192Y024493D01*
X016379Y012680D02*
X018004Y012680D01*
X021754Y016430D01*
X022504Y017805D02*
X026254Y017805D01*
X026629Y017430D01*
X026629Y017180D01*
X025379Y015930D01*
X022504Y017805D02*
X021629Y018680D01*
X021379Y018680D01*
X021379Y019680D02*
X022129Y020430D01*
X022629Y020430D01*
X022879Y020180D01*
X022879Y019180D01*
X023129Y018930D01*
X026629Y018930D01*
X026879Y019180D01*
X026879Y020180D01*
X030379Y023680D01*
X034629Y023680D01*
X035129Y023180D01*
X035879Y023180D01*
D30*
X033254Y022430D03*
X033629Y020555D03*
X038629Y016805D03*
X036629Y016180D03*
X039379Y014930D03*
X038629Y009930D03*
X034379Y008180D03*
X032254Y005555D03*
X030879Y005680D03*
X029879Y005180D03*
X031254Y007305D03*
X025504Y008680D03*
X027379Y014055D03*
X027379Y015680D03*
X029129Y016180D03*
X026129Y017305D03*
X025379Y015930D03*
X024629Y015805D03*
X021754Y016430D03*
X020379Y017555D03*
X019754Y018305D03*
X019379Y017930D03*
X021879Y019055D03*
X022754Y018680D03*
X020879Y020930D03*
X019379Y021305D03*
X017879Y023180D03*
X019754Y024805D03*
X021879Y022930D03*
X024879Y021305D03*
X027879Y024805D03*
X030379Y025680D03*
X033254Y026555D03*
X033254Y028305D03*
X033879Y028680D03*
X032879Y029180D03*
X032254Y029680D03*
X030879Y028680D03*
X027754Y028680D03*
X025754Y027930D03*
X028504Y031680D03*
X026004Y032055D03*
X023129Y033430D03*
X019379Y029055D03*
X017629Y029305D03*
X017754Y028180D03*
X018254Y027680D03*
X016504Y027680D03*
X016004Y031555D03*
X035504Y026805D03*
X037879Y025680D03*
X039754Y021930D03*
X036004Y034180D03*
X017879Y006055D03*
X013129Y004805D03*
D31*
X020379Y004805D01*
X021004Y004180D01*
X030879Y004180D01*
X032254Y005555D01*
X032754Y005680D02*
X031879Y006555D01*
X031879Y007680D01*
X031839Y007680D01*
X031754Y007680D01*
X031379Y008055D01*
X031379Y009680D01*
X032379Y009680D02*
X032379Y007305D01*
X033004Y006680D01*
X033004Y006430D01*
X033254Y006180D01*
X035004Y006180D01*
X035504Y006680D01*
X035619Y006680D01*
X035504Y005930D02*
X033129Y005930D01*
X032379Y006680D01*
X031299Y006680D02*
X031254Y006680D01*
X031254Y005555D01*
X030129Y004430D01*
X021129Y004430D01*
X018879Y006680D01*
X018859Y006680D01*
X018629Y007180D02*
X018254Y006805D01*
X018254Y005805D01*
X017754Y005305D01*
X011629Y005305D01*
X010254Y006680D01*
X010159Y006680D01*
X010254Y006680D02*
X010254Y007930D01*
X010879Y008555D01*
X010879Y009680D01*
X009754Y010430D02*
X024254Y010430D01*
X028504Y006180D01*
X030379Y006180D01*
X030754Y006555D01*
X030754Y006805D01*
X031254Y007305D01*
X030879Y005680D02*
X025629Y005680D01*
X022879Y008430D01*
X021754Y008430D01*
X021629Y008305D01*
X017129Y008305D01*
X016754Y007930D01*
X016754Y006680D01*
X016679Y006680D01*
X017879Y006055D02*
X014504Y006055D01*
X013879Y006680D01*
X013419Y006680D01*
X012379Y006680D02*
X012339Y006680D01*
X012379Y006680D02*
X012379Y007805D01*
X013254Y008680D01*
X025504Y008680D01*
X027879Y009305D02*
X028254Y008930D01*
X028629Y008930D01*
X029379Y009680D01*
X029129Y010430D02*
X034129Y010430D01*
X038629Y014930D01*
X039379Y014930D01*
X038629Y016805D02*
X035379Y020055D01*
X035379Y021805D01*
X034379Y022805D01*
X034379Y023180D01*
X033254Y022430D02*
X031504Y020680D01*
X031254Y020680D01*
X029254Y018680D01*
X022754Y018680D01*
X022629Y018305D02*
X029879Y018305D01*
X031254Y019680D01*
X032254Y019680D01*
X034254Y021680D01*
X034504Y021680D01*
X035129Y021055D01*
X035129Y017680D01*
X036629Y016180D01*
X032129Y017930D02*
X030629Y016430D01*
X029379Y016430D01*
X029129Y016180D01*
X028379Y016680D02*
X027379Y015680D01*
X028379Y016680D02*
X030504Y016680D01*
X031879Y018055D01*
X031879Y018680D01*
X033629Y020430D01*
X033629Y020555D01*
X034379Y020805D02*
X034379Y021180D01*
X034379Y020805D02*
X032129Y018555D01*
X032129Y017930D01*
X028879Y014180D02*
X027879Y014180D01*
X027754Y014055D01*
X027379Y014055D01*
X028879Y014180D02*
X029254Y013805D01*
X029254Y011430D01*
X027879Y010055D01*
X027879Y009305D01*
X028379Y009680D02*
X029129Y010430D01*
X033504Y007805D02*
X033504Y006680D01*
X033459Y006680D01*
X034504Y006680D02*
X034539Y006680D01*
X034504Y006680D02*
X034504Y007805D01*
X034379Y007930D01*
X034379Y008180D01*
X034879Y007805D02*
X035004Y007680D01*
X035079Y007680D01*
X034879Y007805D02*
X034879Y010055D01*
X034504Y010430D01*
X034129Y010430D01*
X034379Y009680D02*
X034379Y008680D01*
X033504Y007805D01*
X035504Y005930D02*
X036629Y007055D01*
X036629Y007930D01*
X036379Y008180D01*
X036379Y009680D01*
X038629Y009930D02*
X038629Y008680D01*
X035629Y005680D01*
X032754Y005680D01*
X029879Y005180D02*
X021379Y005180D01*
X019379Y007180D01*
X018629Y007180D01*
X014379Y009680D02*
X012754Y009680D01*
X010754Y007680D01*
X010709Y007680D01*
X008004Y006680D02*
X007989Y006680D01*
X008004Y006680D02*
X008004Y008680D01*
X009754Y010430D01*
X012379Y015680D02*
X009629Y018430D01*
X009629Y019305D01*
X007754Y021180D01*
X003379Y021180D01*
X003379Y022180D02*
X010754Y022180D01*
X013879Y025305D01*
X013879Y026055D01*
X013504Y026430D01*
X011129Y026430D01*
X010379Y025680D01*
X010379Y024680D02*
X007504Y024680D01*
X006379Y023555D01*
X006379Y022805D01*
X006004Y022430D01*
X004129Y022430D01*
X003379Y023180D01*
X006879Y023180D02*
X007629Y022430D01*
X010129Y022430D01*
X013379Y025680D01*
X012379Y025680D02*
X010879Y024180D01*
X007879Y024180D01*
X010379Y024680D02*
X011379Y025680D01*
X014879Y025305D02*
X014879Y026555D01*
X017629Y029305D01*
X018254Y029430D02*
X023254Y029430D01*
X024379Y028305D01*
X027879Y028305D01*
X029379Y029805D01*
X029379Y030555D01*
X029754Y030930D01*
X030129Y030930D01*
X030879Y030180D01*
X031254Y030680D02*
X030754Y031180D01*
X028879Y031180D01*
X027879Y030180D01*
X027129Y029430D01*
X023629Y029430D01*
X020129Y032930D01*
X019629Y032930D01*
X018879Y033680D01*
X018379Y034055D02*
X018379Y033305D01*
X016379Y031305D01*
X016379Y030305D01*
X015254Y029180D01*
X006504Y029180D01*
X005004Y027680D01*
X003879Y027680D01*
X006879Y031680D02*
X014879Y031680D01*
X015879Y030680D01*
X016004Y031555D02*
X013879Y033680D01*
X012629Y034430D02*
X016129Y034430D01*
X016879Y033680D01*
X017879Y033680D02*
X017879Y033930D01*
X018629Y034680D01*
X022379Y034680D01*
X026129Y030930D01*
X028254Y030930D01*
X029004Y031680D01*
X037254Y031680D01*
X037754Y032180D01*
X039879Y032180D01*
X039879Y031180D02*
X037754Y031180D01*
X037254Y030680D01*
X031254Y030680D01*
X032254Y029680D02*
X037254Y029680D01*
X037754Y030180D01*
X039879Y030180D01*
X039879Y029180D02*
X037754Y029180D01*
X037254Y028680D01*
X033879Y028680D01*
X033254Y028305D02*
X036754Y028305D01*
X036879Y028180D01*
X036879Y029180D02*
X032879Y029180D01*
X032379Y027680D02*
X039379Y027680D01*
X039879Y027180D01*
X039879Y028180D02*
X040629Y028930D01*
X040629Y034305D01*
X040254Y034680D01*
X031379Y034680D01*
X030879Y034180D01*
X029754Y032930D02*
X036629Y032930D01*
X036879Y033180D01*
X036504Y033680D02*
X039379Y033680D01*
X039879Y034180D01*
X036504Y033680D02*
X036004Y033180D01*
X027879Y033180D01*
X026879Y034180D01*
X027879Y034180D02*
X028629Y033430D01*
X035254Y033430D01*
X036004Y034180D01*
X029754Y032930D02*
X028504Y031680D01*
X028879Y030180D02*
X027754Y029055D01*
X027754Y028680D01*
X026879Y030180D02*
X026129Y030930D01*
X026004Y032055D02*
X023879Y034180D01*
X023129Y033430D02*
X022129Y034430D01*
X018754Y034430D01*
X018379Y034055D01*
X018254Y029430D02*
X016504Y027680D01*
X017754Y028180D02*
X018254Y027680D01*
X019379Y028555D02*
X021879Y026055D01*
X021879Y022930D01*
X019754Y022180D02*
X025254Y022180D01*
X027879Y024805D01*
X028879Y025305D02*
X028879Y026055D01*
X029504Y026680D01*
X033129Y026680D01*
X033254Y026555D01*
X033879Y026305D02*
X033879Y025055D01*
X034254Y024680D01*
X037504Y024680D01*
X039379Y022805D01*
X039379Y022680D01*
X039879Y023180D02*
X039879Y022055D01*
X039754Y021930D01*
X040379Y022180D02*
X040379Y023180D01*
X037879Y025680D01*
X038379Y026180D02*
X038129Y026430D01*
X036754Y026430D01*
X035754Y027430D01*
X024129Y027430D01*
X022379Y025680D01*
X023379Y025680D02*
X024879Y027180D01*
X035629Y027180D01*
X035879Y026930D01*
X035879Y026680D01*
X035629Y026430D01*
X034754Y026430D01*
X034504Y026680D01*
X034254Y026680D01*
X033879Y026305D01*
X034379Y026180D02*
X036879Y026180D01*
X039879Y023180D01*
X035504Y026805D02*
X035379Y026930D01*
X025629Y026930D01*
X024379Y025680D01*
X025754Y027930D02*
X030129Y027930D01*
X030879Y028680D01*
X032379Y027680D02*
X029879Y030180D01*
X031379Y026180D02*
X025379Y020180D01*
X025379Y019680D01*
X024379Y019680D02*
X023379Y020680D01*
X022004Y020680D01*
X021879Y020555D01*
X020379Y020555D01*
X019629Y021305D01*
X019379Y021305D01*
X018879Y021305D02*
X019754Y022180D01*
X018879Y021305D02*
X018879Y019305D01*
X018504Y018930D01*
X015129Y018930D01*
X014379Y019680D01*
X013879Y020055D02*
X013504Y020430D01*
X011129Y020430D01*
X010379Y019680D01*
X012379Y019680D02*
X014504Y017555D01*
X020379Y017555D01*
X019754Y018305D02*
X014879Y018305D01*
X013879Y019305D01*
X013879Y020055D01*
X013379Y019680D02*
X013379Y019430D01*
X014879Y017930D01*
X019379Y017930D01*
X021879Y019055D02*
X022629Y018305D01*
X020879Y020930D02*
X025629Y020930D01*
X030379Y025680D01*
X030879Y025180D02*
X031379Y025180D01*
X030879Y025180D02*
X026379Y020680D01*
X026379Y019680D01*
X024879Y021305D02*
X028879Y025305D01*
X019754Y024805D02*
X019754Y024555D01*
X017879Y022680D01*
X016879Y022680D01*
X017879Y023180D02*
X015379Y025680D01*
X014879Y025305D02*
X015379Y024805D01*
X015379Y019680D01*
X024629Y015805D02*
X026129Y017305D01*
X019379Y028555D02*
X019379Y029055D01*
X012629Y034430D02*
X011879Y033680D01*
M02*
