G75*
%MOIN*%
%OFA0B0*%
%FSLAX24Y24*%
%IPPOS*%
%LPD*%
%AMOC8*
5,1,8,0,0,1.08239X$1,22.5*
%
%ADD10C,0.0520*%
%ADD11OC8,0.0520*%
%ADD12C,0.0520*%
%ADD13C,0.1750*%
%ADD14C,0.1500*%
%ADD15C,0.0660*%
%ADD16C,0.0660*%
%ADD17C,0.0750*%
%ADD18OC8,0.0750*%
%ADD19OC8,0.0630*%
%ADD20C,0.0630*%
%ADD21C,0.0600*%
%ADD22OC8,0.0825*%
%ADD23OC8,0.1270*%
%ADD24OC8,0.0600*%
%ADD25C,0.2000*%
%ADD26C,0.0560*%
%ADD27C,0.0480*%
%ADD28C,0.0240*%
%ADD29C,0.0440*%
%ADD30C,0.0100*%
D10*
X010379Y019420D02*
X010379Y019940D01*
X011379Y019940D02*
X011379Y019420D01*
X012379Y019420D02*
X012379Y019940D01*
X013379Y019940D02*
X013379Y019420D01*
X014379Y019420D02*
X014379Y019940D01*
X015379Y019940D02*
X015379Y019420D01*
X016379Y019420D02*
X016379Y019940D01*
X017379Y019940D02*
X017379Y019420D01*
X018379Y019420D02*
X018379Y019940D01*
X019379Y019940D02*
X019379Y019420D01*
X020379Y019420D02*
X020379Y019940D01*
X021379Y019940D02*
X021379Y019420D01*
X022379Y019420D02*
X022379Y019940D01*
X023379Y019940D02*
X023379Y019420D01*
X024379Y019420D02*
X024379Y019940D01*
X025379Y019940D02*
X025379Y019420D01*
X026379Y019420D02*
X026379Y019940D01*
X027379Y019940D02*
X027379Y019420D01*
X028379Y019420D02*
X028379Y019940D01*
X029379Y019940D02*
X029379Y019420D01*
X029379Y025420D02*
X029379Y025940D01*
X028379Y025940D02*
X028379Y025420D01*
X027379Y025420D02*
X027379Y025940D01*
X026379Y025940D02*
X026379Y025420D01*
X025379Y025420D02*
X025379Y025940D01*
X024379Y025940D02*
X024379Y025420D01*
X023379Y025420D02*
X023379Y025940D01*
X022379Y025940D02*
X022379Y025420D01*
X021379Y025420D02*
X021379Y025940D01*
X020379Y025940D02*
X020379Y025420D01*
X019379Y025420D02*
X019379Y025940D01*
X018379Y025940D02*
X018379Y025420D01*
X017379Y025420D02*
X017379Y025940D01*
X016379Y025940D02*
X016379Y025420D01*
X015379Y025420D02*
X015379Y025940D01*
X014379Y025940D02*
X014379Y025420D01*
X013379Y025420D02*
X013379Y025940D01*
X012379Y025940D02*
X012379Y025420D01*
X011379Y025420D02*
X011379Y025940D01*
X010379Y025940D02*
X010379Y025420D01*
X007879Y023440D02*
X007879Y022920D01*
X006879Y022920D02*
X006879Y023440D01*
X005879Y023440D02*
X005879Y022920D01*
X004879Y022920D02*
X004879Y023440D01*
X004879Y020440D02*
X004879Y019920D01*
X005879Y019920D02*
X005879Y020440D01*
X006879Y020440D02*
X006879Y019920D01*
X007879Y019920D02*
X007879Y020440D01*
X007139Y026680D02*
X006619Y026680D01*
X006619Y027680D02*
X007139Y027680D01*
X007139Y028680D02*
X006619Y028680D01*
X006619Y029680D02*
X007139Y029680D01*
X007139Y030680D02*
X006619Y030680D01*
X006619Y031680D02*
X007139Y031680D01*
X007139Y032680D02*
X006619Y032680D01*
X006619Y033680D02*
X007139Y033680D01*
X004139Y033680D02*
X003619Y033680D01*
X003619Y032680D02*
X004139Y032680D01*
X004139Y031680D02*
X003619Y031680D01*
X003619Y030680D02*
X004139Y030680D01*
X004139Y029680D02*
X003619Y029680D01*
X003619Y028680D02*
X004139Y028680D01*
X004139Y027680D02*
X003619Y027680D01*
X003619Y026680D02*
X004139Y026680D01*
X010879Y030420D02*
X010879Y030940D01*
X011879Y030940D02*
X011879Y030420D01*
X012879Y030420D02*
X012879Y030940D01*
X013879Y030940D02*
X013879Y030420D01*
X014879Y030420D02*
X014879Y030940D01*
X015879Y030940D02*
X015879Y030420D01*
X016879Y030420D02*
X016879Y030940D01*
X017879Y030940D02*
X017879Y030420D01*
X018879Y030420D02*
X018879Y030940D01*
X019879Y030940D02*
X019879Y030420D01*
X019879Y033420D02*
X019879Y033940D01*
X018879Y033940D02*
X018879Y033420D01*
X017879Y033420D02*
X017879Y033940D01*
X016879Y033940D02*
X016879Y033420D01*
X015879Y033420D02*
X015879Y033940D01*
X014879Y033940D02*
X014879Y033420D01*
X013879Y033420D02*
X013879Y033940D01*
X012879Y033940D02*
X012879Y033420D01*
X011879Y033420D02*
X011879Y033940D01*
X010879Y033940D02*
X010879Y033420D01*
X023879Y033920D02*
X023879Y034440D01*
X024879Y034440D02*
X024879Y033920D01*
X025879Y033920D02*
X025879Y034440D01*
X026879Y034440D02*
X026879Y033920D01*
X027879Y033920D02*
X027879Y034440D01*
X028879Y034440D02*
X028879Y033920D01*
X029879Y033920D02*
X029879Y034440D01*
X030879Y034440D02*
X030879Y033920D01*
X030879Y030440D02*
X030879Y029920D01*
X029879Y029920D02*
X029879Y030440D01*
X028879Y030440D02*
X028879Y029920D01*
X027879Y029920D02*
X027879Y030440D01*
X026879Y030440D02*
X026879Y029920D01*
X025879Y029920D02*
X025879Y030440D01*
X024879Y030440D02*
X024879Y029920D01*
X023879Y029920D02*
X023879Y030440D01*
X036619Y030180D02*
X037139Y030180D01*
X037139Y029180D02*
X036619Y029180D01*
X036619Y028180D02*
X037139Y028180D01*
X037139Y027180D02*
X036619Y027180D01*
X039619Y027180D02*
X040139Y027180D01*
X040139Y028180D02*
X039619Y028180D01*
X039619Y029180D02*
X040139Y029180D01*
X040139Y030180D02*
X039619Y030180D01*
X039619Y031180D02*
X040139Y031180D01*
X040139Y032180D02*
X039619Y032180D01*
X039619Y033180D02*
X040139Y033180D01*
X040139Y034180D02*
X039619Y034180D01*
X037139Y034180D02*
X036619Y034180D01*
X036619Y033180D02*
X037139Y033180D01*
X037139Y032180D02*
X036619Y032180D01*
X036619Y031180D02*
X037139Y031180D01*
X037379Y009940D02*
X037379Y009420D01*
X036379Y009420D02*
X036379Y009940D01*
X035379Y009940D02*
X035379Y009420D01*
X034379Y009420D02*
X034379Y009940D01*
X033379Y009940D02*
X033379Y009420D01*
X032379Y009420D02*
X032379Y009940D01*
X031379Y009940D02*
X031379Y009420D01*
X030379Y009420D02*
X030379Y009940D01*
X029379Y009940D02*
X029379Y009420D01*
X028379Y009420D02*
X028379Y009940D01*
X027379Y009940D02*
X027379Y009420D01*
D11*
X031379Y018180D03*
X031379Y019180D03*
X031379Y020180D03*
X031379Y021180D03*
X031379Y022180D03*
X031379Y023180D03*
X031379Y024180D03*
X031379Y025180D03*
X031379Y026180D03*
X034379Y026180D03*
X034379Y025180D03*
X034379Y024180D03*
X034379Y023180D03*
X034379Y022180D03*
X034379Y021180D03*
X034379Y020180D03*
X034379Y019180D03*
X034379Y018180D03*
X035879Y020180D03*
X039379Y022680D03*
X038379Y023180D03*
X040379Y022180D03*
X040379Y025180D03*
X039379Y025680D03*
X038379Y026180D03*
X035879Y023180D03*
X021379Y018680D03*
X020379Y018680D03*
X019879Y021680D03*
X019879Y022680D03*
X016879Y022680D03*
X016379Y022680D03*
X016379Y021680D03*
X016879Y021680D03*
X013379Y021680D03*
X013379Y022680D03*
X007879Y024180D03*
X004879Y024180D03*
X004879Y025180D03*
X003879Y025180D03*
X016879Y027180D03*
X017879Y027180D03*
X003879Y011680D03*
X002879Y011680D03*
X002879Y009680D03*
X005879Y009680D03*
D12*
X019929Y027180D03*
X021829Y027180D03*
D13*
X007600Y015180D03*
D14*
X006379Y013290D03*
X005198Y015180D03*
D15*
X005879Y011180D03*
X009879Y011180D03*
D16*
X016049Y012680D02*
X016709Y012680D01*
X016709Y013680D02*
X016049Y013680D01*
X016049Y014680D02*
X016709Y014680D01*
X028049Y014680D02*
X028709Y014680D01*
X028709Y013680D02*
X028049Y013680D01*
X028049Y015680D02*
X028709Y015680D01*
D17*
X014379Y014680D03*
D18*
X014379Y012680D03*
D19*
X026379Y013680D03*
X026379Y015180D03*
D20*
X026379Y016180D03*
X026379Y012680D03*
D21*
X036579Y020180D02*
X037179Y020180D01*
X037179Y021180D02*
X036579Y021180D01*
X036579Y022180D02*
X037179Y022180D01*
X037179Y023180D02*
X036579Y023180D01*
X036579Y024180D02*
X037179Y024180D01*
X037179Y025180D02*
X036579Y025180D01*
X038379Y021480D02*
X038379Y020880D01*
X040379Y020880D02*
X040379Y021480D01*
X040379Y018480D02*
X040379Y017880D01*
X038379Y017880D02*
X038379Y018480D01*
X012679Y017680D02*
X012079Y017680D01*
X012079Y015680D02*
X012679Y015680D01*
X009679Y015680D02*
X009079Y015680D01*
X009079Y017680D02*
X009679Y017680D01*
X003679Y020180D02*
X003079Y020180D01*
X003079Y021180D02*
X003679Y021180D01*
X003679Y022180D02*
X003079Y022180D01*
X003079Y023180D02*
X003679Y023180D01*
D22*
X037379Y014680D03*
D23*
X037379Y012480D03*
X040379Y014680D03*
X037379Y016880D03*
D24*
X036159Y007680D03*
X035079Y007680D03*
X033999Y007680D03*
X032919Y007680D03*
X031839Y007680D03*
X030759Y007680D03*
X029679Y007680D03*
X028599Y007680D03*
X029139Y006680D03*
X030219Y006680D03*
X031299Y006680D03*
X032379Y006680D03*
X033459Y006680D03*
X034539Y006680D03*
X035619Y006680D03*
X019399Y007680D03*
X018309Y007680D03*
X017229Y007680D03*
X016139Y007680D03*
X015049Y007680D03*
X013969Y007680D03*
X012879Y007680D03*
X011789Y007680D03*
X010709Y007680D03*
X009619Y007680D03*
X008529Y007680D03*
X007449Y007680D03*
X006359Y007680D03*
X006899Y006680D03*
X007989Y006680D03*
X009079Y006680D03*
X010159Y006680D03*
X011249Y006680D03*
X012339Y006680D03*
X013419Y006680D03*
X014509Y006680D03*
X015599Y006680D03*
X016679Y006680D03*
X017769Y006680D03*
X018859Y006680D03*
D25*
X022139Y007180D03*
X025819Y007180D03*
X038939Y007180D03*
X003619Y007180D03*
D26*
X009879Y009400D02*
X009879Y009960D01*
X010879Y009960D02*
X010879Y009400D01*
X014379Y009400D02*
X014379Y009960D01*
X015379Y009960D02*
X015379Y009400D01*
D27*
X014254Y012555D02*
X012504Y012555D01*
X010004Y010055D01*
X010004Y009805D01*
X009879Y009680D01*
X009879Y007930D01*
X009629Y007680D01*
X009619Y007680D01*
X014254Y012555D02*
X014379Y012680D01*
X015379Y013680D01*
X016379Y013680D01*
X009379Y017680D02*
X008567Y018493D01*
X005379Y015305D01*
X005198Y015180D01*
X005129Y015180D01*
X002879Y012930D01*
X002879Y011680D01*
X008567Y018493D02*
X006879Y020180D01*
X007879Y020180D01*
X006879Y020180D02*
X005879Y020180D01*
X005879Y023180D01*
X004879Y025180D02*
X004879Y025680D01*
X004629Y025930D01*
X004754Y026055D01*
X004754Y028930D01*
X004379Y029305D01*
X004254Y029305D01*
X003879Y029680D01*
X003879Y030680D01*
X003879Y026680D02*
X004629Y025930D01*
X004879Y020180D02*
X003379Y020180D01*
X004879Y020180D02*
X005879Y020180D01*
X018379Y019680D02*
X019379Y019680D01*
X036879Y023180D02*
X036879Y024180D01*
D28*
X006379Y007680D02*
X006379Y006430D01*
X008504Y004305D01*
X027504Y004305D01*
X029879Y006680D01*
X030219Y006680D01*
X027379Y012680D02*
X026379Y012680D01*
X025379Y013680D01*
X025379Y015930D01*
X026129Y016430D02*
X026379Y016180D01*
X027879Y016180D01*
X028379Y015680D01*
X026129Y016430D02*
X021754Y016430D01*
X021379Y018680D02*
X021379Y019680D01*
X021379Y022555D01*
X018379Y025555D01*
X018379Y025680D01*
X018379Y026680D01*
X017879Y027180D01*
X004879Y024180D02*
X004879Y023180D01*
X004879Y024180D02*
X003879Y025180D01*
X007504Y015180D02*
X007600Y015180D01*
X007504Y015180D02*
X007504Y013055D01*
X005879Y011430D01*
X005879Y011180D01*
X006379Y007680D02*
X009879Y011180D01*
X013379Y014680D01*
X014379Y014680D01*
X016379Y014680D01*
X006379Y007680D02*
X006359Y007680D01*
X027379Y012680D02*
X028379Y013680D01*
X035879Y023180D02*
X035879Y024305D01*
X036754Y025180D01*
X036879Y025180D01*
D29*
X037879Y025680D03*
X035504Y026805D03*
X033254Y026555D03*
X033254Y028305D03*
X033879Y028680D03*
X032879Y029180D03*
X032254Y029680D03*
X030879Y028680D03*
X030379Y025680D03*
X027879Y024805D03*
X025754Y027930D03*
X027754Y028680D03*
X028504Y031680D03*
X026004Y032055D03*
X023129Y033430D03*
X019379Y029055D03*
X017629Y029305D03*
X017754Y028180D03*
X018254Y027680D03*
X016504Y027680D03*
X019754Y024805D03*
X017879Y023180D03*
X019379Y021305D03*
X020879Y020930D03*
X021879Y019055D03*
X022754Y018680D03*
X021754Y016430D03*
X020379Y017555D03*
X019754Y018305D03*
X019379Y017930D03*
X024629Y015805D03*
X025379Y015930D03*
X026129Y017305D03*
X027379Y015680D03*
X029129Y016180D03*
X027379Y014055D03*
X025504Y008680D03*
X029879Y005180D03*
X030879Y005680D03*
X032254Y005555D03*
X031254Y007305D03*
X034379Y008180D03*
X038629Y009930D03*
X039379Y014930D03*
X038629Y016805D03*
X036629Y016180D03*
X033629Y020555D03*
X033254Y022430D03*
X039754Y021930D03*
X024879Y021305D03*
X021879Y022930D03*
X016004Y031555D03*
X036004Y034180D03*
X017879Y006055D03*
X013129Y004805D03*
D30*
X011254Y006680D01*
X011249Y006680D01*
X014509Y006680D02*
X014629Y006680D01*
X015129Y007180D01*
X016129Y007180D01*
X016129Y006555D01*
X017879Y004805D01*
X025504Y004805D01*
X027254Y006555D01*
X027254Y007055D01*
X028379Y008180D01*
X028754Y008180D01*
X030004Y009430D01*
X030379Y009430D01*
X030379Y009680D01*
X030379Y009430D02*
X031629Y008180D01*
X032379Y008180D01*
X032879Y007680D01*
X032919Y007680D01*
X033254Y007180D02*
X032879Y006805D01*
X032879Y006555D01*
X032504Y006180D01*
X031879Y006180D01*
X031379Y006680D01*
X031299Y006680D01*
X031504Y007305D02*
X032129Y006680D01*
X032379Y006680D01*
X033379Y006680D02*
X033459Y006680D01*
X033504Y006680D01*
X034004Y006180D01*
X034754Y006180D01*
X035004Y006430D01*
X035004Y006680D01*
X035629Y007305D01*
X035629Y007805D01*
X036004Y008180D01*
X036754Y008180D01*
X038254Y009680D01*
X038254Y017180D01*
X037754Y017680D01*
X037379Y017680D01*
X034879Y020180D01*
X034379Y020180D01*
X034004Y020430D02*
X031879Y018305D01*
X031879Y018055D01*
X031129Y017305D01*
X026129Y017305D01*
X027004Y018180D02*
X025879Y019305D01*
X025879Y024930D01*
X026379Y025430D01*
X026379Y025680D01*
X026879Y025180D02*
X027379Y025680D01*
X027879Y026055D02*
X029754Y027930D01*
X034379Y027930D01*
X036629Y030180D01*
X036879Y030180D01*
X037254Y029680D02*
X036504Y029680D01*
X034504Y027680D01*
X034379Y027680D01*
X033254Y026555D01*
X033254Y025680D02*
X034754Y027180D01*
X036004Y027180D01*
X036504Y026680D01*
X037254Y026680D01*
X037879Y027305D01*
X037879Y033180D01*
X036879Y034180D01*
X036504Y034680D02*
X038379Y034680D01*
X039879Y033180D01*
X036879Y032180D02*
X036129Y031430D01*
X036129Y030430D01*
X034004Y028305D01*
X033754Y028305D01*
X033379Y028680D01*
X030879Y028680D01*
X032254Y029680D02*
X031004Y030930D01*
X025129Y030930D01*
X024504Y031555D01*
X016004Y031555D01*
X015879Y030680D02*
X016879Y030680D01*
X017879Y030680D01*
X018879Y030680D01*
X019879Y030680D01*
X019254Y029430D02*
X023379Y029430D01*
X023629Y029180D01*
X032879Y029180D01*
X033254Y028305D02*
X018379Y028305D01*
X017379Y027305D01*
X017379Y027055D01*
X016879Y026555D01*
X016879Y025305D01*
X017379Y024805D01*
X017379Y021555D01*
X016379Y020555D01*
X016379Y019680D01*
X016879Y020055D02*
X016879Y019305D01*
X016504Y018930D01*
X014254Y018930D01*
X013879Y019305D01*
X013879Y020055D01*
X009004Y024930D01*
X007754Y024930D01*
X005629Y027055D01*
X005629Y029930D01*
X003879Y031680D01*
X003879Y032680D02*
X005879Y030680D01*
X005879Y028805D01*
X006504Y028180D01*
X017754Y028180D01*
X018254Y027680D02*
X022004Y027680D01*
X022879Y026805D01*
X022879Y020180D01*
X023379Y019680D01*
X023879Y019305D02*
X023879Y026055D01*
X025754Y027930D01*
X027754Y028680D02*
X006879Y028680D01*
X006504Y029180D02*
X017254Y029180D01*
X017504Y028930D01*
X019254Y028930D01*
X019379Y029055D01*
X019129Y029305D02*
X019254Y029430D01*
X019129Y029305D02*
X017629Y029305D01*
X016504Y027680D02*
X006879Y027680D01*
X006504Y029180D02*
X006129Y029555D01*
X006129Y031430D01*
X003879Y033680D01*
X003504Y034180D02*
X003129Y033805D01*
X003129Y026555D01*
X004379Y025305D01*
X004379Y025055D01*
X004754Y024680D01*
X008004Y024680D01*
X011379Y021305D01*
X011379Y019680D01*
X013379Y021680D02*
X013379Y022055D01*
X016379Y025055D01*
X016379Y025680D01*
X017379Y025680D02*
X019879Y023180D01*
X019879Y022680D01*
X019879Y021680D02*
X018379Y023180D01*
X017879Y023180D01*
X016879Y022680D02*
X016379Y022680D01*
X016379Y021680D01*
X016879Y021680D01*
X018129Y021305D02*
X019379Y021305D01*
X018629Y020930D02*
X020879Y020930D01*
X020379Y019680D02*
X016379Y015680D01*
X012379Y015680D01*
X016879Y020055D02*
X018129Y021305D01*
X018629Y020930D02*
X017379Y019680D01*
X019379Y017930D02*
X020129Y017180D01*
X022754Y017180D01*
X024879Y019305D01*
X024879Y021305D01*
X023879Y019305D02*
X022129Y017555D01*
X020379Y017555D01*
X020254Y018180D02*
X022254Y018180D01*
X022754Y018680D01*
X021879Y019055D02*
X021879Y022430D01*
X019754Y024555D01*
X019754Y024805D01*
X019379Y025680D02*
X019379Y026680D01*
X019879Y027180D01*
X019929Y027180D01*
X020379Y025680D02*
X021879Y027180D01*
X021829Y027180D01*
X023754Y029430D02*
X024129Y029430D01*
X024879Y030180D01*
X025129Y030930D02*
X025879Y030180D01*
X025879Y031680D02*
X028504Y031680D01*
X029379Y032680D02*
X030879Y034180D01*
X029379Y032680D02*
X013004Y032680D01*
X012379Y033305D01*
X012379Y034055D01*
X012754Y034430D01*
X014129Y034430D01*
X014879Y033680D01*
X015879Y033680D02*
X014879Y034680D01*
X011879Y034680D01*
X010879Y033680D01*
X011879Y033680D02*
X011879Y033430D01*
X012879Y032430D01*
X034254Y032430D01*
X036004Y034180D01*
X036504Y034680D01*
X036879Y031180D02*
X037629Y030430D01*
X037629Y030055D01*
X037254Y029680D01*
X036629Y027430D02*
X034629Y027430D01*
X032879Y025680D01*
X030379Y025680D01*
X029879Y025680D02*
X029879Y026055D01*
X029504Y026430D01*
X029129Y026430D01*
X028379Y025680D01*
X027879Y026055D02*
X027879Y024805D01*
X026879Y025180D02*
X026879Y019305D01*
X027504Y018680D01*
X029629Y018680D01*
X030129Y019180D01*
X031379Y019180D01*
X031379Y018180D02*
X027004Y018180D01*
X028129Y018930D02*
X029504Y018930D01*
X031254Y020680D01*
X031504Y020680D01*
X032129Y021305D01*
X032129Y023430D01*
X031379Y024180D01*
X031254Y023680D02*
X029379Y025555D01*
X029379Y025680D01*
X029879Y025680D02*
X030879Y024680D01*
X031504Y024680D01*
X032379Y023805D01*
X032379Y021180D01*
X031379Y020180D01*
X031379Y021180D02*
X031379Y021555D01*
X031879Y022055D01*
X031879Y023305D01*
X031504Y023680D01*
X031254Y023680D01*
X031379Y023180D02*
X028379Y020180D01*
X028379Y019680D01*
X028129Y018930D02*
X027379Y019680D01*
X029379Y019680D02*
X029379Y020180D01*
X031379Y022180D01*
X033254Y022430D02*
X033254Y025680D01*
X034379Y025180D02*
X034379Y024805D01*
X033629Y024055D01*
X033629Y020555D01*
X033879Y020805D02*
X034004Y020680D01*
X034004Y020430D01*
X033879Y020805D02*
X033879Y023305D01*
X034379Y023805D01*
X034379Y024180D01*
X034379Y022180D02*
X034379Y021805D01*
X035379Y020805D01*
X035379Y020055D01*
X036504Y018930D01*
X038629Y018930D01*
X039004Y018555D01*
X039004Y009805D01*
X035879Y006680D01*
X035629Y006680D01*
X035619Y006680D01*
X035629Y006680D02*
X034129Y005180D01*
X032129Y005180D01*
X031629Y005680D01*
X030879Y005680D01*
X030754Y006055D02*
X029879Y005180D01*
X030754Y006055D02*
X030754Y007680D01*
X030759Y007680D01*
X031254Y007305D02*
X031504Y007305D01*
X031754Y007680D02*
X031839Y007680D01*
X031754Y007680D02*
X031254Y008180D01*
X029504Y008180D01*
X029129Y007805D01*
X029129Y007555D01*
X026129Y004555D01*
X017504Y004555D01*
X015629Y006430D01*
X015629Y006680D01*
X015599Y006680D01*
X016129Y007180D02*
X016254Y007180D01*
X016629Y007555D01*
X016629Y007805D01*
X017004Y008180D01*
X021004Y008180D01*
X024629Y011805D01*
X024629Y015805D01*
X027379Y015680D02*
X027379Y014055D01*
X029254Y015805D02*
X029129Y015930D01*
X029129Y016180D01*
X029254Y015805D02*
X029254Y012180D01*
X025504Y012180D01*
X020504Y007180D01*
X018629Y007180D01*
X018129Y006680D01*
X017769Y006680D01*
X017879Y006055D02*
X021629Y006055D01*
X021754Y005930D01*
X026254Y005930D01*
X027004Y006680D01*
X027004Y008305D01*
X028379Y009680D01*
X029379Y009680D02*
X030129Y010430D01*
X027254Y010430D01*
X025504Y008680D01*
X029254Y012180D02*
X031004Y010430D01*
X032629Y010430D01*
X033379Y009680D01*
X033379Y009180D01*
X034379Y008180D01*
X034504Y007805D02*
X034504Y007555D01*
X034129Y007180D01*
X033254Y007180D01*
X033379Y006680D02*
X032254Y005555D01*
X033879Y007680D02*
X033999Y007680D01*
X033879Y007680D02*
X033129Y008430D01*
X031754Y008430D01*
X030879Y009305D01*
X030879Y010055D01*
X030504Y010430D01*
X030129Y010430D01*
X034504Y007805D02*
X035379Y008680D01*
X035379Y008930D01*
X036504Y008930D01*
X036879Y009305D01*
X036879Y010055D01*
X036254Y010680D01*
X036254Y017305D01*
X034379Y019180D01*
X034379Y018180D02*
X035004Y018180D01*
X036004Y017180D01*
X036004Y010055D01*
X036379Y009680D01*
X035379Y009680D02*
X035379Y008930D01*
X038629Y009930D02*
X038629Y016805D01*
X036629Y016180D02*
X036629Y015430D01*
X037379Y014680D01*
X039379Y014930D02*
X039754Y015305D01*
X039754Y021930D01*
X040379Y023055D02*
X038504Y021180D01*
X038379Y021180D01*
X037379Y020180D01*
X036879Y020180D01*
X035879Y020180D01*
X036879Y021180D02*
X037004Y021180D01*
X039379Y023555D01*
X039379Y025680D01*
X040379Y025180D02*
X040379Y023055D01*
X038379Y023180D02*
X037879Y023180D01*
X036879Y022180D01*
X037129Y025680D02*
X037879Y025680D01*
X037129Y025680D02*
X036004Y026805D01*
X035504Y026805D01*
X036629Y027430D02*
X036879Y027180D01*
X033879Y028680D02*
X030504Y032055D01*
X026004Y032055D01*
X025879Y031680D02*
X025629Y031930D01*
X011754Y031930D01*
X009504Y034180D01*
X003504Y034180D01*
X006879Y032680D02*
X008879Y032680D01*
X010879Y030680D01*
X011879Y030680D01*
X012879Y030680D01*
X013879Y030680D01*
X014879Y030680D01*
X013629Y032930D02*
X017129Y032930D01*
X017879Y033680D01*
X019004Y034430D02*
X019379Y034055D01*
X019379Y033305D01*
X019754Y032930D01*
X025629Y032930D01*
X026879Y034180D01*
X024879Y034180D02*
X024129Y033430D01*
X023129Y033430D01*
X022879Y033680D02*
X023379Y034180D01*
X023879Y034180D01*
X022879Y033680D02*
X019879Y033680D01*
X019004Y034430D02*
X016629Y034430D01*
X015879Y033680D01*
X013629Y032930D02*
X012879Y033680D01*
X006879Y029680D02*
X023504Y029680D01*
X023754Y029430D01*
X021879Y022930D02*
X022379Y022430D01*
X022379Y019680D01*
X020254Y018180D02*
X020129Y018305D01*
X019754Y018305D01*
X013379Y022680D02*
X013379Y024680D01*
X014379Y025680D01*
X007879Y024180D02*
X007879Y023180D01*
X003879Y011680D02*
X002879Y010680D01*
X002879Y009680D01*
X015379Y009680D02*
X015379Y008430D01*
X016129Y007680D01*
X016139Y007680D01*
M02*
