G75*
%MOIN*%
%OFA0B0*%
%FSLAX24Y24*%
%IPPOS*%
%LPD*%
%AMOC8*
5,1,8,0,0,1.08239X$1,22.5*
%
%ADD10C,0.0000*%
D10*
X001879Y003680D02*
X001879Y035176D01*
X041249Y035176D01*
X041249Y003680D01*
X001879Y003680D01*
X021629Y013680D02*
X021631Y013730D01*
X021637Y013780D01*
X021647Y013830D01*
X021660Y013878D01*
X021677Y013926D01*
X021698Y013972D01*
X021722Y014016D01*
X021750Y014058D01*
X021781Y014098D01*
X021815Y014135D01*
X021852Y014170D01*
X021891Y014201D01*
X021932Y014230D01*
X021976Y014255D01*
X022022Y014277D01*
X022069Y014295D01*
X022117Y014309D01*
X022166Y014320D01*
X022216Y014327D01*
X022266Y014330D01*
X022317Y014329D01*
X022367Y014324D01*
X022417Y014315D01*
X022465Y014303D01*
X022513Y014286D01*
X022559Y014266D01*
X022604Y014243D01*
X022647Y014216D01*
X022687Y014186D01*
X022725Y014153D01*
X022760Y014117D01*
X022793Y014078D01*
X022822Y014037D01*
X022848Y013994D01*
X022871Y013949D01*
X022890Y013902D01*
X022905Y013854D01*
X022917Y013805D01*
X022925Y013755D01*
X022929Y013705D01*
X022929Y013655D01*
X022925Y013605D01*
X022917Y013555D01*
X022905Y013506D01*
X022890Y013458D01*
X022871Y013411D01*
X022848Y013366D01*
X022822Y013323D01*
X022793Y013282D01*
X022760Y013243D01*
X022725Y013207D01*
X022687Y013174D01*
X022647Y013144D01*
X022604Y013117D01*
X022559Y013094D01*
X022513Y013074D01*
X022465Y013057D01*
X022417Y013045D01*
X022367Y013036D01*
X022317Y013031D01*
X022266Y013030D01*
X022216Y013033D01*
X022166Y013040D01*
X022117Y013051D01*
X022069Y013065D01*
X022022Y013083D01*
X021976Y013105D01*
X021932Y013130D01*
X021891Y013159D01*
X021852Y013190D01*
X021815Y013225D01*
X021781Y013262D01*
X021750Y013302D01*
X021722Y013344D01*
X021698Y013388D01*
X021677Y013434D01*
X021660Y013482D01*
X021647Y013530D01*
X021637Y013580D01*
X021631Y013630D01*
X021629Y013680D01*
X033629Y014680D02*
X033631Y014730D01*
X033637Y014780D01*
X033647Y014830D01*
X033660Y014878D01*
X033677Y014926D01*
X033698Y014972D01*
X033722Y015016D01*
X033750Y015058D01*
X033781Y015098D01*
X033815Y015135D01*
X033852Y015170D01*
X033891Y015201D01*
X033932Y015230D01*
X033976Y015255D01*
X034022Y015277D01*
X034069Y015295D01*
X034117Y015309D01*
X034166Y015320D01*
X034216Y015327D01*
X034266Y015330D01*
X034317Y015329D01*
X034367Y015324D01*
X034417Y015315D01*
X034465Y015303D01*
X034513Y015286D01*
X034559Y015266D01*
X034604Y015243D01*
X034647Y015216D01*
X034687Y015186D01*
X034725Y015153D01*
X034760Y015117D01*
X034793Y015078D01*
X034822Y015037D01*
X034848Y014994D01*
X034871Y014949D01*
X034890Y014902D01*
X034905Y014854D01*
X034917Y014805D01*
X034925Y014755D01*
X034929Y014705D01*
X034929Y014655D01*
X034925Y014605D01*
X034917Y014555D01*
X034905Y014506D01*
X034890Y014458D01*
X034871Y014411D01*
X034848Y014366D01*
X034822Y014323D01*
X034793Y014282D01*
X034760Y014243D01*
X034725Y014207D01*
X034687Y014174D01*
X034647Y014144D01*
X034604Y014117D01*
X034559Y014094D01*
X034513Y014074D01*
X034465Y014057D01*
X034417Y014045D01*
X034367Y014036D01*
X034317Y014031D01*
X034266Y014030D01*
X034216Y014033D01*
X034166Y014040D01*
X034117Y014051D01*
X034069Y014065D01*
X034022Y014083D01*
X033976Y014105D01*
X033932Y014130D01*
X033891Y014159D01*
X033852Y014190D01*
X033815Y014225D01*
X033781Y014262D01*
X033750Y014302D01*
X033722Y014344D01*
X033698Y014388D01*
X033677Y014434D01*
X033660Y014482D01*
X033647Y014530D01*
X033637Y014580D01*
X033631Y014630D01*
X033629Y014680D01*
M02*
