G75*
%MOIN*%
%OFA0B0*%
%FSLAX24Y24*%
%IPPOS*%
%LPD*%
%AMOC8*
5,1,8,0,0,1.08239X$1,22.5*
%
%ADD10C,0.0600*%
%ADD11OC8,0.0600*%
%ADD12C,0.0600*%
%ADD13C,0.1830*%
%ADD14C,0.1580*%
%ADD15C,0.0740*%
%ADD16C,0.0740*%
%ADD17C,0.1380*%
%ADD18C,0.0830*%
%ADD19OC8,0.0830*%
%ADD20OC8,0.0710*%
%ADD21C,0.0710*%
%ADD22C,0.0680*%
%ADD23OC8,0.0905*%
%ADD24OC8,0.1350*%
%ADD25OC8,0.0680*%
%ADD26C,0.2080*%
%ADD27C,0.0640*%
%ADD28C,0.0520*%
D10*
X010379Y019420D02*
X010379Y019940D01*
X011379Y019940D02*
X011379Y019420D01*
X012379Y019420D02*
X012379Y019940D01*
X013379Y019940D02*
X013379Y019420D01*
X014379Y019420D02*
X014379Y019940D01*
X015379Y019940D02*
X015379Y019420D01*
X016379Y019420D02*
X016379Y019940D01*
X017379Y019940D02*
X017379Y019420D01*
X018379Y019420D02*
X018379Y019940D01*
X019379Y019940D02*
X019379Y019420D01*
X020379Y019420D02*
X020379Y019940D01*
X021379Y019940D02*
X021379Y019420D01*
X022379Y019420D02*
X022379Y019940D01*
X023379Y019940D02*
X023379Y019420D01*
X024379Y019420D02*
X024379Y019940D01*
X025379Y019940D02*
X025379Y019420D01*
X026379Y019420D02*
X026379Y019940D01*
X027379Y019940D02*
X027379Y019420D01*
X028379Y019420D02*
X028379Y019940D01*
X029379Y019940D02*
X029379Y019420D01*
X029379Y025420D02*
X029379Y025940D01*
X028379Y025940D02*
X028379Y025420D01*
X027379Y025420D02*
X027379Y025940D01*
X026379Y025940D02*
X026379Y025420D01*
X025379Y025420D02*
X025379Y025940D01*
X024379Y025940D02*
X024379Y025420D01*
X023379Y025420D02*
X023379Y025940D01*
X022379Y025940D02*
X022379Y025420D01*
X021379Y025420D02*
X021379Y025940D01*
X020379Y025940D02*
X020379Y025420D01*
X019379Y025420D02*
X019379Y025940D01*
X018379Y025940D02*
X018379Y025420D01*
X017379Y025420D02*
X017379Y025940D01*
X016379Y025940D02*
X016379Y025420D01*
X015379Y025420D02*
X015379Y025940D01*
X014379Y025940D02*
X014379Y025420D01*
X013379Y025420D02*
X013379Y025940D01*
X012379Y025940D02*
X012379Y025420D01*
X011379Y025420D02*
X011379Y025940D01*
X010379Y025940D02*
X010379Y025420D01*
X007879Y023440D02*
X007879Y022920D01*
X006879Y022920D02*
X006879Y023440D01*
X005879Y023440D02*
X005879Y022920D01*
X004879Y022920D02*
X004879Y023440D01*
X004879Y020440D02*
X004879Y019920D01*
X005879Y019920D02*
X005879Y020440D01*
X006879Y020440D02*
X006879Y019920D01*
X007879Y019920D02*
X007879Y020440D01*
X007139Y026680D02*
X006619Y026680D01*
X006619Y027680D02*
X007139Y027680D01*
X007139Y028680D02*
X006619Y028680D01*
X006619Y029680D02*
X007139Y029680D01*
X007139Y030680D02*
X006619Y030680D01*
X006619Y031680D02*
X007139Y031680D01*
X007139Y032680D02*
X006619Y032680D01*
X006619Y033680D02*
X007139Y033680D01*
X004139Y033680D02*
X003619Y033680D01*
X003619Y032680D02*
X004139Y032680D01*
X004139Y031680D02*
X003619Y031680D01*
X003619Y030680D02*
X004139Y030680D01*
X004139Y029680D02*
X003619Y029680D01*
X003619Y028680D02*
X004139Y028680D01*
X004139Y027680D02*
X003619Y027680D01*
X003619Y026680D02*
X004139Y026680D01*
X010879Y030420D02*
X010879Y030940D01*
X011879Y030940D02*
X011879Y030420D01*
X012879Y030420D02*
X012879Y030940D01*
X013879Y030940D02*
X013879Y030420D01*
X014879Y030420D02*
X014879Y030940D01*
X015879Y030940D02*
X015879Y030420D01*
X016879Y030420D02*
X016879Y030940D01*
X017879Y030940D02*
X017879Y030420D01*
X018879Y030420D02*
X018879Y030940D01*
X019879Y030940D02*
X019879Y030420D01*
X019879Y033420D02*
X019879Y033940D01*
X018879Y033940D02*
X018879Y033420D01*
X017879Y033420D02*
X017879Y033940D01*
X016879Y033940D02*
X016879Y033420D01*
X015879Y033420D02*
X015879Y033940D01*
X014879Y033940D02*
X014879Y033420D01*
X013879Y033420D02*
X013879Y033940D01*
X012879Y033940D02*
X012879Y033420D01*
X011879Y033420D02*
X011879Y033940D01*
X010879Y033940D02*
X010879Y033420D01*
X023879Y033920D02*
X023879Y034440D01*
X024879Y034440D02*
X024879Y033920D01*
X025879Y033920D02*
X025879Y034440D01*
X026879Y034440D02*
X026879Y033920D01*
X027879Y033920D02*
X027879Y034440D01*
X028879Y034440D02*
X028879Y033920D01*
X029879Y033920D02*
X029879Y034440D01*
X030879Y034440D02*
X030879Y033920D01*
X030879Y030440D02*
X030879Y029920D01*
X029879Y029920D02*
X029879Y030440D01*
X028879Y030440D02*
X028879Y029920D01*
X027879Y029920D02*
X027879Y030440D01*
X026879Y030440D02*
X026879Y029920D01*
X025879Y029920D02*
X025879Y030440D01*
X024879Y030440D02*
X024879Y029920D01*
X023879Y029920D02*
X023879Y030440D01*
X036619Y030180D02*
X037139Y030180D01*
X037139Y029180D02*
X036619Y029180D01*
X036619Y028180D02*
X037139Y028180D01*
X037139Y027180D02*
X036619Y027180D01*
X039619Y027180D02*
X040139Y027180D01*
X040139Y028180D02*
X039619Y028180D01*
X039619Y029180D02*
X040139Y029180D01*
X040139Y030180D02*
X039619Y030180D01*
X039619Y031180D02*
X040139Y031180D01*
X040139Y032180D02*
X039619Y032180D01*
X039619Y033180D02*
X040139Y033180D01*
X040139Y034180D02*
X039619Y034180D01*
X037139Y034180D02*
X036619Y034180D01*
X036619Y033180D02*
X037139Y033180D01*
X037139Y032180D02*
X036619Y032180D01*
X036619Y031180D02*
X037139Y031180D01*
X037379Y009940D02*
X037379Y009420D01*
X036379Y009420D02*
X036379Y009940D01*
X035379Y009940D02*
X035379Y009420D01*
X034379Y009420D02*
X034379Y009940D01*
X033379Y009940D02*
X033379Y009420D01*
X032379Y009420D02*
X032379Y009940D01*
X031379Y009940D02*
X031379Y009420D01*
X030379Y009420D02*
X030379Y009940D01*
X029379Y009940D02*
X029379Y009420D01*
X028379Y009420D02*
X028379Y009940D01*
X027379Y009940D02*
X027379Y009420D01*
D11*
X031379Y018180D03*
X031379Y019180D03*
X031379Y020180D03*
X031379Y021180D03*
X031379Y022180D03*
X031379Y023180D03*
X031379Y024180D03*
X031379Y025180D03*
X031379Y026180D03*
X034379Y026180D03*
X034379Y025180D03*
X034379Y024180D03*
X034379Y023180D03*
X034379Y022180D03*
X034379Y021180D03*
X034379Y020180D03*
X034379Y019180D03*
X034379Y018180D03*
X035879Y020180D03*
X039379Y022680D03*
X038379Y023180D03*
X040379Y022180D03*
X040379Y025180D03*
X039379Y025680D03*
X038379Y026180D03*
X035879Y023180D03*
X021379Y018680D03*
X020379Y018680D03*
X019879Y021680D03*
X019879Y022680D03*
X016879Y022680D03*
X016379Y022680D03*
X016379Y021680D03*
X016879Y021680D03*
X013379Y021680D03*
X013379Y022680D03*
X007879Y024180D03*
X004879Y024180D03*
X004879Y025180D03*
X003879Y025180D03*
X016879Y027180D03*
X017879Y027180D03*
X003879Y011680D03*
X002879Y011680D03*
X002879Y009680D03*
X005879Y009680D03*
D12*
X019929Y027180D03*
X021829Y027180D03*
D13*
X007600Y015180D03*
D14*
X006379Y013290D03*
X005198Y015180D03*
D15*
X005879Y011180D03*
X009879Y011180D03*
D16*
X016049Y012680D02*
X016709Y012680D01*
X016709Y013680D02*
X016049Y013680D01*
X016049Y014680D02*
X016709Y014680D01*
X028049Y014680D02*
X028709Y014680D01*
X028709Y013680D02*
X028049Y013680D01*
X028049Y015680D02*
X028709Y015680D01*
D17*
X034279Y014680D03*
X022279Y013680D03*
D18*
X014379Y014680D03*
D19*
X014379Y012680D03*
D20*
X026379Y013680D03*
X026379Y015180D03*
D21*
X026379Y016180D03*
X026379Y012680D03*
D22*
X036579Y020180D02*
X037179Y020180D01*
X037179Y021180D02*
X036579Y021180D01*
X036579Y022180D02*
X037179Y022180D01*
X037179Y023180D02*
X036579Y023180D01*
X036579Y024180D02*
X037179Y024180D01*
X037179Y025180D02*
X036579Y025180D01*
X038379Y021480D02*
X038379Y020880D01*
X040379Y020880D02*
X040379Y021480D01*
X040379Y018480D02*
X040379Y017880D01*
X038379Y017880D02*
X038379Y018480D01*
X012679Y017680D02*
X012079Y017680D01*
X012079Y015680D02*
X012679Y015680D01*
X009679Y015680D02*
X009079Y015680D01*
X009079Y017680D02*
X009679Y017680D01*
X003679Y020180D02*
X003079Y020180D01*
X003079Y021180D02*
X003679Y021180D01*
X003679Y022180D02*
X003079Y022180D01*
X003079Y023180D02*
X003679Y023180D01*
D23*
X037379Y014680D03*
D24*
X037379Y012480D03*
X040379Y014680D03*
X037379Y016880D03*
D25*
X006899Y006680D03*
X007989Y006680D03*
X009079Y006680D03*
X010159Y006680D03*
X011249Y006680D03*
X012339Y006680D03*
X013419Y006680D03*
X014509Y006680D03*
X015599Y006680D03*
X016679Y006680D03*
X017769Y006680D03*
X018859Y006680D03*
X019399Y007680D03*
X018309Y007680D03*
X017229Y007680D03*
X016139Y007680D03*
X015049Y007680D03*
X013969Y007680D03*
X012879Y007680D03*
X011789Y007680D03*
X010709Y007680D03*
X009619Y007680D03*
X008529Y007680D03*
X007449Y007680D03*
X006359Y007680D03*
X028599Y007680D03*
X029679Y007680D03*
X030759Y007680D03*
X031839Y007680D03*
X032919Y007680D03*
X033999Y007680D03*
X035079Y007680D03*
X036159Y007680D03*
X035619Y006680D03*
X034539Y006680D03*
X033459Y006680D03*
X032379Y006680D03*
X031299Y006680D03*
X030219Y006680D03*
X029139Y006680D03*
D26*
X025819Y007180D03*
X022139Y007180D03*
X038939Y007180D03*
X003619Y007180D03*
D27*
X009879Y009400D02*
X009879Y009960D01*
X010879Y009960D02*
X010879Y009400D01*
X014379Y009400D02*
X014379Y009960D01*
X015379Y009960D02*
X015379Y009400D01*
D28*
X017879Y006055D03*
X013129Y004805D03*
X025504Y008680D03*
X029879Y005180D03*
X030879Y005680D03*
X032254Y005555D03*
X031254Y007305D03*
X034379Y008180D03*
X038629Y009930D03*
X039379Y014930D03*
X038629Y016805D03*
X036629Y016180D03*
X033629Y020555D03*
X033254Y022430D03*
X030379Y025680D03*
X027879Y024805D03*
X025754Y027930D03*
X027754Y028680D03*
X028504Y031680D03*
X026004Y032055D03*
X023129Y033430D03*
X019379Y029055D03*
X017629Y029305D03*
X017754Y028180D03*
X018254Y027680D03*
X016504Y027680D03*
X019754Y024805D03*
X017879Y023180D03*
X019379Y021305D03*
X020879Y020930D03*
X021879Y019055D03*
X022754Y018680D03*
X021754Y016430D03*
X020379Y017555D03*
X019754Y018305D03*
X019379Y017930D03*
X024629Y015805D03*
X025379Y015930D03*
X026129Y017305D03*
X027379Y015680D03*
X029129Y016180D03*
X027379Y014055D03*
X024879Y021305D03*
X021879Y022930D03*
X030879Y028680D03*
X032254Y029680D03*
X032879Y029180D03*
X033254Y028305D03*
X033879Y028680D03*
X035504Y026805D03*
X033254Y026555D03*
X037879Y025680D03*
X039754Y021930D03*
X036004Y034180D03*
X016004Y031555D03*
M02*
